<?xml version="1.0" encoding="utf-8" standalone="no"?>
<!DOCTYPE svg PUBLIC "-//W3C//DTD SVG 1.1//EN"
  "http://www.w3.org/Graphics/SVG/1.1/DTD/svg11.dtd">
<svg height="331.674375pt" version="1.1" viewBox="0 0 337.932813 331.674375" width="337.932813pt" xmlns="http://www.w3.org/2000/svg" xmlns:xlink="http://www.w3.org/1999/xlink">
 <metadata>
  <rdf:RDF xmlns:cc="http://creativecommons.org/ns#" xmlns:dc="http://purl.org/dc/elements/1.1/" xmlns:rdf="http://www.w3.org/1999/02/22-rdf-syntax-ns#">
   <cc:Work>
    <dc:type rdf:resource="http://purl.org/dc/dcmitype/StillImage"/>
    <dc:date>2021-10-12T19:28:09.528513</dc:date>
    <dc:format>image/svg+xml</dc:format>
    <dc:creator>
     <cc:Agent>
      <dc:title>Matplotlib v3.4.2, https://matplotlib.org/</dc:title>
     </cc:Agent>
    </dc:creator>
   </cc:Work>
  </rdf:RDF>
 </metadata>
 <defs>
  <style type="text/css">*{stroke-linecap:butt;stroke-linejoin:round;}</style>
 </defs>
 <g id="figure_1">
  <g id="patch_1">
   <path d="M 0 331.674375 
L 337.932813 331.674375 
L 337.932813 0 
L 0 0 
z
" style="fill:none;"/>
  </g>
  <g id="axes_1">
   <g id="patch_2">
    <path d="M 43.78125 294.118125 
L 322.78125 294.118125 
L 322.78125 22.318125 
L 43.78125 22.318125 
z
" style="fill:#ffffff;"/>
   </g>
   <g id="matplotlib.axis_1">
    <g id="xtick_1">
     <g id="line2d_1">
      <defs>
       <path d="M 0 0 
L 0 3.5 
" id="mc2a1070a01" style="stroke:#000000;stroke-width:0.8;"/>
      </defs>
      <g>
       <use style="stroke:#000000;stroke-width:0.8;" x="46.543626" xlink:href="#mc2a1070a01" y="294.118125"/>
      </g>
     </g>
     <g id="text_1">
      <!-- 0.0 -->
      <g transform="translate(38.592064 308.716563)scale(0.1 -0.1)">
       <defs>
        <path d="M 2034 4250 
Q 1547 4250 1301 3770 
Q 1056 3291 1056 2328 
Q 1056 1369 1301 889 
Q 1547 409 2034 409 
Q 2525 409 2770 889 
Q 3016 1369 3016 2328 
Q 3016 3291 2770 3770 
Q 2525 4250 2034 4250 
z
M 2034 4750 
Q 2819 4750 3233 4129 
Q 3647 3509 3647 2328 
Q 3647 1150 3233 529 
Q 2819 -91 2034 -91 
Q 1250 -91 836 529 
Q 422 1150 422 2328 
Q 422 3509 836 4129 
Q 1250 4750 2034 4750 
z
" id="DejaVuSans-30" transform="scale(0.015625)"/>
        <path d="M 684 794 
L 1344 794 
L 1344 0 
L 684 0 
L 684 794 
z
" id="DejaVuSans-2e" transform="scale(0.015625)"/>
       </defs>
       <use xlink:href="#DejaVuSans-30"/>
       <use x="63.623047" xlink:href="#DejaVuSans-2e"/>
       <use x="95.410156" xlink:href="#DejaVuSans-30"/>
      </g>
     </g>
    </g>
    <g id="xtick_2">
     <g id="line2d_2">
      <g>
       <use style="stroke:#000000;stroke-width:0.8;" x="101.791151" xlink:href="#mc2a1070a01" y="294.118125"/>
      </g>
     </g>
     <g id="text_2">
      <!-- 0.2 -->
      <g transform="translate(93.839588 308.716563)scale(0.1 -0.1)">
       <defs>
        <path d="M 1228 531 
L 3431 531 
L 3431 0 
L 469 0 
L 469 531 
Q 828 903 1448 1529 
Q 2069 2156 2228 2338 
Q 2531 2678 2651 2914 
Q 2772 3150 2772 3378 
Q 2772 3750 2511 3984 
Q 2250 4219 1831 4219 
Q 1534 4219 1204 4116 
Q 875 4013 500 3803 
L 500 4441 
Q 881 4594 1212 4672 
Q 1544 4750 1819 4750 
Q 2544 4750 2975 4387 
Q 3406 4025 3406 3419 
Q 3406 3131 3298 2873 
Q 3191 2616 2906 2266 
Q 2828 2175 2409 1742 
Q 1991 1309 1228 531 
z
" id="DejaVuSans-32" transform="scale(0.015625)"/>
       </defs>
       <use xlink:href="#DejaVuSans-30"/>
       <use x="63.623047" xlink:href="#DejaVuSans-2e"/>
       <use x="95.410156" xlink:href="#DejaVuSans-32"/>
      </g>
     </g>
    </g>
    <g id="xtick_3">
     <g id="line2d_3">
      <g>
       <use style="stroke:#000000;stroke-width:0.8;" x="157.038676" xlink:href="#mc2a1070a01" y="294.118125"/>
      </g>
     </g>
     <g id="text_3">
      <!-- 0.4 -->
      <g transform="translate(149.087113 308.716563)scale(0.1 -0.1)">
       <defs>
        <path d="M 2419 4116 
L 825 1625 
L 2419 1625 
L 2419 4116 
z
M 2253 4666 
L 3047 4666 
L 3047 1625 
L 3713 1625 
L 3713 1100 
L 3047 1100 
L 3047 0 
L 2419 0 
L 2419 1100 
L 313 1100 
L 313 1709 
L 2253 4666 
z
" id="DejaVuSans-34" transform="scale(0.015625)"/>
       </defs>
       <use xlink:href="#DejaVuSans-30"/>
       <use x="63.623047" xlink:href="#DejaVuSans-2e"/>
       <use x="95.410156" xlink:href="#DejaVuSans-34"/>
      </g>
     </g>
    </g>
    <g id="xtick_4">
     <g id="line2d_4">
      <g>
       <use style="stroke:#000000;stroke-width:0.8;" x="212.2862" xlink:href="#mc2a1070a01" y="294.118125"/>
      </g>
     </g>
     <g id="text_4">
      <!-- 0.6 -->
      <g transform="translate(204.334638 308.716563)scale(0.1 -0.1)">
       <defs>
        <path d="M 2113 2584 
Q 1688 2584 1439 2293 
Q 1191 2003 1191 1497 
Q 1191 994 1439 701 
Q 1688 409 2113 409 
Q 2538 409 2786 701 
Q 3034 994 3034 1497 
Q 3034 2003 2786 2293 
Q 2538 2584 2113 2584 
z
M 3366 4563 
L 3366 3988 
Q 3128 4100 2886 4159 
Q 2644 4219 2406 4219 
Q 1781 4219 1451 3797 
Q 1122 3375 1075 2522 
Q 1259 2794 1537 2939 
Q 1816 3084 2150 3084 
Q 2853 3084 3261 2657 
Q 3669 2231 3669 1497 
Q 3669 778 3244 343 
Q 2819 -91 2113 -91 
Q 1303 -91 875 529 
Q 447 1150 447 2328 
Q 447 3434 972 4092 
Q 1497 4750 2381 4750 
Q 2619 4750 2861 4703 
Q 3103 4656 3366 4563 
z
" id="DejaVuSans-36" transform="scale(0.015625)"/>
       </defs>
       <use xlink:href="#DejaVuSans-30"/>
       <use x="63.623047" xlink:href="#DejaVuSans-2e"/>
       <use x="95.410156" xlink:href="#DejaVuSans-36"/>
      </g>
     </g>
    </g>
    <g id="xtick_5">
     <g id="line2d_5">
      <g>
       <use style="stroke:#000000;stroke-width:0.8;" x="267.533725" xlink:href="#mc2a1070a01" y="294.118125"/>
      </g>
     </g>
     <g id="text_5">
      <!-- 0.8 -->
      <g transform="translate(259.582163 308.716563)scale(0.1 -0.1)">
       <defs>
        <path d="M 2034 2216 
Q 1584 2216 1326 1975 
Q 1069 1734 1069 1313 
Q 1069 891 1326 650 
Q 1584 409 2034 409 
Q 2484 409 2743 651 
Q 3003 894 3003 1313 
Q 3003 1734 2745 1975 
Q 2488 2216 2034 2216 
z
M 1403 2484 
Q 997 2584 770 2862 
Q 544 3141 544 3541 
Q 544 4100 942 4425 
Q 1341 4750 2034 4750 
Q 2731 4750 3128 4425 
Q 3525 4100 3525 3541 
Q 3525 3141 3298 2862 
Q 3072 2584 2669 2484 
Q 3125 2378 3379 2068 
Q 3634 1759 3634 1313 
Q 3634 634 3220 271 
Q 2806 -91 2034 -91 
Q 1263 -91 848 271 
Q 434 634 434 1313 
Q 434 1759 690 2068 
Q 947 2378 1403 2484 
z
M 1172 3481 
Q 1172 3119 1398 2916 
Q 1625 2713 2034 2713 
Q 2441 2713 2670 2916 
Q 2900 3119 2900 3481 
Q 2900 3844 2670 4047 
Q 2441 4250 2034 4250 
Q 1625 4250 1398 4047 
Q 1172 3844 1172 3481 
z
" id="DejaVuSans-38" transform="scale(0.015625)"/>
       </defs>
       <use xlink:href="#DejaVuSans-30"/>
       <use x="63.623047" xlink:href="#DejaVuSans-2e"/>
       <use x="95.410156" xlink:href="#DejaVuSans-38"/>
      </g>
     </g>
    </g>
    <g id="xtick_6">
     <g id="line2d_6">
      <g>
       <use style="stroke:#000000;stroke-width:0.8;" x="322.78125" xlink:href="#mc2a1070a01" y="294.118125"/>
      </g>
     </g>
     <g id="text_6">
      <!-- 1.0 -->
      <g transform="translate(314.829688 308.716563)scale(0.1 -0.1)">
       <defs>
        <path d="M 794 531 
L 1825 531 
L 1825 4091 
L 703 3866 
L 703 4441 
L 1819 4666 
L 2450 4666 
L 2450 531 
L 3481 531 
L 3481 0 
L 794 0 
L 794 531 
z
" id="DejaVuSans-31" transform="scale(0.015625)"/>
       </defs>
       <use xlink:href="#DejaVuSans-31"/>
       <use x="63.623047" xlink:href="#DejaVuSans-2e"/>
       <use x="95.410156" xlink:href="#DejaVuSans-30"/>
      </g>
     </g>
    </g>
    <g id="text_7">
     <!-- False Positive Rate -->
     <g transform="translate(136.814844 322.394687)scale(0.1 -0.1)">
      <defs>
       <path d="M 628 4666 
L 3309 4666 
L 3309 4134 
L 1259 4134 
L 1259 2759 
L 3109 2759 
L 3109 2228 
L 1259 2228 
L 1259 0 
L 628 0 
L 628 4666 
z
" id="DejaVuSans-46" transform="scale(0.015625)"/>
       <path d="M 2194 1759 
Q 1497 1759 1228 1600 
Q 959 1441 959 1056 
Q 959 750 1161 570 
Q 1363 391 1709 391 
Q 2188 391 2477 730 
Q 2766 1069 2766 1631 
L 2766 1759 
L 2194 1759 
z
M 3341 1997 
L 3341 0 
L 2766 0 
L 2766 531 
Q 2569 213 2275 61 
Q 1981 -91 1556 -91 
Q 1019 -91 701 211 
Q 384 513 384 1019 
Q 384 1609 779 1909 
Q 1175 2209 1959 2209 
L 2766 2209 
L 2766 2266 
Q 2766 2663 2505 2880 
Q 2244 3097 1772 3097 
Q 1472 3097 1187 3025 
Q 903 2953 641 2809 
L 641 3341 
Q 956 3463 1253 3523 
Q 1550 3584 1831 3584 
Q 2591 3584 2966 3190 
Q 3341 2797 3341 1997 
z
" id="DejaVuSans-61" transform="scale(0.015625)"/>
       <path d="M 603 4863 
L 1178 4863 
L 1178 0 
L 603 0 
L 603 4863 
z
" id="DejaVuSans-6c" transform="scale(0.015625)"/>
       <path d="M 2834 3397 
L 2834 2853 
Q 2591 2978 2328 3040 
Q 2066 3103 1784 3103 
Q 1356 3103 1142 2972 
Q 928 2841 928 2578 
Q 928 2378 1081 2264 
Q 1234 2150 1697 2047 
L 1894 2003 
Q 2506 1872 2764 1633 
Q 3022 1394 3022 966 
Q 3022 478 2636 193 
Q 2250 -91 1575 -91 
Q 1294 -91 989 -36 
Q 684 19 347 128 
L 347 722 
Q 666 556 975 473 
Q 1284 391 1588 391 
Q 1994 391 2212 530 
Q 2431 669 2431 922 
Q 2431 1156 2273 1281 
Q 2116 1406 1581 1522 
L 1381 1569 
Q 847 1681 609 1914 
Q 372 2147 372 2553 
Q 372 3047 722 3315 
Q 1072 3584 1716 3584 
Q 2034 3584 2315 3537 
Q 2597 3491 2834 3397 
z
" id="DejaVuSans-73" transform="scale(0.015625)"/>
       <path d="M 3597 1894 
L 3597 1613 
L 953 1613 
Q 991 1019 1311 708 
Q 1631 397 2203 397 
Q 2534 397 2845 478 
Q 3156 559 3463 722 
L 3463 178 
Q 3153 47 2828 -22 
Q 2503 -91 2169 -91 
Q 1331 -91 842 396 
Q 353 884 353 1716 
Q 353 2575 817 3079 
Q 1281 3584 2069 3584 
Q 2775 3584 3186 3129 
Q 3597 2675 3597 1894 
z
M 3022 2063 
Q 3016 2534 2758 2815 
Q 2500 3097 2075 3097 
Q 1594 3097 1305 2825 
Q 1016 2553 972 2059 
L 3022 2063 
z
" id="DejaVuSans-65" transform="scale(0.015625)"/>
       <path id="DejaVuSans-20" transform="scale(0.015625)"/>
       <path d="M 1259 4147 
L 1259 2394 
L 2053 2394 
Q 2494 2394 2734 2622 
Q 2975 2850 2975 3272 
Q 2975 3691 2734 3919 
Q 2494 4147 2053 4147 
L 1259 4147 
z
M 628 4666 
L 2053 4666 
Q 2838 4666 3239 4311 
Q 3641 3956 3641 3272 
Q 3641 2581 3239 2228 
Q 2838 1875 2053 1875 
L 1259 1875 
L 1259 0 
L 628 0 
L 628 4666 
z
" id="DejaVuSans-50" transform="scale(0.015625)"/>
       <path d="M 1959 3097 
Q 1497 3097 1228 2736 
Q 959 2375 959 1747 
Q 959 1119 1226 758 
Q 1494 397 1959 397 
Q 2419 397 2687 759 
Q 2956 1122 2956 1747 
Q 2956 2369 2687 2733 
Q 2419 3097 1959 3097 
z
M 1959 3584 
Q 2709 3584 3137 3096 
Q 3566 2609 3566 1747 
Q 3566 888 3137 398 
Q 2709 -91 1959 -91 
Q 1206 -91 779 398 
Q 353 888 353 1747 
Q 353 2609 779 3096 
Q 1206 3584 1959 3584 
z
" id="DejaVuSans-6f" transform="scale(0.015625)"/>
       <path d="M 603 3500 
L 1178 3500 
L 1178 0 
L 603 0 
L 603 3500 
z
M 603 4863 
L 1178 4863 
L 1178 4134 
L 603 4134 
L 603 4863 
z
" id="DejaVuSans-69" transform="scale(0.015625)"/>
       <path d="M 1172 4494 
L 1172 3500 
L 2356 3500 
L 2356 3053 
L 1172 3053 
L 1172 1153 
Q 1172 725 1289 603 
Q 1406 481 1766 481 
L 2356 481 
L 2356 0 
L 1766 0 
Q 1100 0 847 248 
Q 594 497 594 1153 
L 594 3053 
L 172 3053 
L 172 3500 
L 594 3500 
L 594 4494 
L 1172 4494 
z
" id="DejaVuSans-74" transform="scale(0.015625)"/>
       <path d="M 191 3500 
L 800 3500 
L 1894 563 
L 2988 3500 
L 3597 3500 
L 2284 0 
L 1503 0 
L 191 3500 
z
" id="DejaVuSans-76" transform="scale(0.015625)"/>
       <path d="M 2841 2188 
Q 3044 2119 3236 1894 
Q 3428 1669 3622 1275 
L 4263 0 
L 3584 0 
L 2988 1197 
Q 2756 1666 2539 1819 
Q 2322 1972 1947 1972 
L 1259 1972 
L 1259 0 
L 628 0 
L 628 4666 
L 2053 4666 
Q 2853 4666 3247 4331 
Q 3641 3997 3641 3322 
Q 3641 2881 3436 2590 
Q 3231 2300 2841 2188 
z
M 1259 4147 
L 1259 2491 
L 2053 2491 
Q 2509 2491 2742 2702 
Q 2975 2913 2975 3322 
Q 2975 3731 2742 3939 
Q 2509 4147 2053 4147 
L 1259 4147 
z
" id="DejaVuSans-52" transform="scale(0.015625)"/>
      </defs>
      <use xlink:href="#DejaVuSans-46"/>
      <use x="48.394531" xlink:href="#DejaVuSans-61"/>
      <use x="109.673828" xlink:href="#DejaVuSans-6c"/>
      <use x="137.457031" xlink:href="#DejaVuSans-73"/>
      <use x="189.556641" xlink:href="#DejaVuSans-65"/>
      <use x="251.080078" xlink:href="#DejaVuSans-20"/>
      <use x="282.867188" xlink:href="#DejaVuSans-50"/>
      <use x="339.544922" xlink:href="#DejaVuSans-6f"/>
      <use x="400.726562" xlink:href="#DejaVuSans-73"/>
      <use x="452.826172" xlink:href="#DejaVuSans-69"/>
      <use x="480.609375" xlink:href="#DejaVuSans-74"/>
      <use x="519.818359" xlink:href="#DejaVuSans-69"/>
      <use x="547.601562" xlink:href="#DejaVuSans-76"/>
      <use x="606.78125" xlink:href="#DejaVuSans-65"/>
      <use x="668.304688" xlink:href="#DejaVuSans-20"/>
      <use x="700.091797" xlink:href="#DejaVuSans-52"/>
      <use x="767.324219" xlink:href="#DejaVuSans-61"/>
      <use x="828.603516" xlink:href="#DejaVuSans-74"/>
      <use x="867.8125" xlink:href="#DejaVuSans-65"/>
     </g>
    </g>
   </g>
   <g id="matplotlib.axis_2">
    <g id="ytick_1">
     <g id="line2d_7">
      <defs>
       <path d="M 0 0 
L -3.5 0 
" id="mebd1bb351f" style="stroke:#000000;stroke-width:0.8;"/>
      </defs>
      <g>
       <use style="stroke:#000000;stroke-width:0.8;" x="43.78125" xlink:href="#mebd1bb351f" y="294.118125"/>
      </g>
     </g>
     <g id="text_8">
      <!-- 0.0 -->
      <g transform="translate(20.878125 297.917344)scale(0.1 -0.1)">
       <use xlink:href="#DejaVuSans-30"/>
       <use x="63.623047" xlink:href="#DejaVuSans-2e"/>
       <use x="95.410156" xlink:href="#DejaVuSans-30"/>
      </g>
     </g>
    </g>
    <g id="ytick_2">
     <g id="line2d_8">
      <g>
       <use style="stroke:#000000;stroke-width:0.8;" x="43.78125" xlink:href="#mebd1bb351f" y="240.296343"/>
      </g>
     </g>
     <g id="text_9">
      <!-- 0.2 -->
      <g transform="translate(20.878125 244.095562)scale(0.1 -0.1)">
       <use xlink:href="#DejaVuSans-30"/>
       <use x="63.623047" xlink:href="#DejaVuSans-2e"/>
       <use x="95.410156" xlink:href="#DejaVuSans-32"/>
      </g>
     </g>
    </g>
    <g id="ytick_3">
     <g id="line2d_9">
      <g>
       <use style="stroke:#000000;stroke-width:0.8;" x="43.78125" xlink:href="#mebd1bb351f" y="186.474561"/>
      </g>
     </g>
     <g id="text_10">
      <!-- 0.4 -->
      <g transform="translate(20.878125 190.273779)scale(0.1 -0.1)">
       <use xlink:href="#DejaVuSans-30"/>
       <use x="63.623047" xlink:href="#DejaVuSans-2e"/>
       <use x="95.410156" xlink:href="#DejaVuSans-34"/>
      </g>
     </g>
    </g>
    <g id="ytick_4">
     <g id="line2d_10">
      <g>
       <use style="stroke:#000000;stroke-width:0.8;" x="43.78125" xlink:href="#mebd1bb351f" y="132.652778"/>
      </g>
     </g>
     <g id="text_11">
      <!-- 0.6 -->
      <g transform="translate(20.878125 136.451997)scale(0.1 -0.1)">
       <use xlink:href="#DejaVuSans-30"/>
       <use x="63.623047" xlink:href="#DejaVuSans-2e"/>
       <use x="95.410156" xlink:href="#DejaVuSans-36"/>
      </g>
     </g>
    </g>
    <g id="ytick_5">
     <g id="line2d_11">
      <g>
       <use style="stroke:#000000;stroke-width:0.8;" x="43.78125" xlink:href="#mebd1bb351f" y="78.830996"/>
      </g>
     </g>
     <g id="text_12">
      <!-- 0.8 -->
      <g transform="translate(20.878125 82.630215)scale(0.1 -0.1)">
       <use xlink:href="#DejaVuSans-30"/>
       <use x="63.623047" xlink:href="#DejaVuSans-2e"/>
       <use x="95.410156" xlink:href="#DejaVuSans-38"/>
      </g>
     </g>
    </g>
    <g id="ytick_6">
     <g id="line2d_12">
      <g>
       <use style="stroke:#000000;stroke-width:0.8;" x="43.78125" xlink:href="#mebd1bb351f" y="25.009214"/>
      </g>
     </g>
     <g id="text_13">
      <!-- 1.0 -->
      <g transform="translate(20.878125 28.808433)scale(0.1 -0.1)">
       <use xlink:href="#DejaVuSans-31"/>
       <use x="63.623047" xlink:href="#DejaVuSans-2e"/>
       <use x="95.410156" xlink:href="#DejaVuSans-30"/>
      </g>
     </g>
    </g>
    <g id="text_14">
     <!-- True Positive Rate -->
     <g transform="translate(14.798438 202.747813)rotate(-90)scale(0.1 -0.1)">
      <defs>
       <path d="M -19 4666 
L 3928 4666 
L 3928 4134 
L 2272 4134 
L 2272 0 
L 1638 0 
L 1638 4134 
L -19 4134 
L -19 4666 
z
" id="DejaVuSans-54" transform="scale(0.015625)"/>
       <path d="M 2631 2963 
Q 2534 3019 2420 3045 
Q 2306 3072 2169 3072 
Q 1681 3072 1420 2755 
Q 1159 2438 1159 1844 
L 1159 0 
L 581 0 
L 581 3500 
L 1159 3500 
L 1159 2956 
Q 1341 3275 1631 3429 
Q 1922 3584 2338 3584 
Q 2397 3584 2469 3576 
Q 2541 3569 2628 3553 
L 2631 2963 
z
" id="DejaVuSans-72" transform="scale(0.015625)"/>
       <path d="M 544 1381 
L 544 3500 
L 1119 3500 
L 1119 1403 
Q 1119 906 1312 657 
Q 1506 409 1894 409 
Q 2359 409 2629 706 
Q 2900 1003 2900 1516 
L 2900 3500 
L 3475 3500 
L 3475 0 
L 2900 0 
L 2900 538 
Q 2691 219 2414 64 
Q 2138 -91 1772 -91 
Q 1169 -91 856 284 
Q 544 659 544 1381 
z
M 1991 3584 
L 1991 3584 
z
" id="DejaVuSans-75" transform="scale(0.015625)"/>
      </defs>
      <use xlink:href="#DejaVuSans-54"/>
      <use x="46.333984" xlink:href="#DejaVuSans-72"/>
      <use x="87.447266" xlink:href="#DejaVuSans-75"/>
      <use x="150.826172" xlink:href="#DejaVuSans-65"/>
      <use x="212.349609" xlink:href="#DejaVuSans-20"/>
      <use x="244.136719" xlink:href="#DejaVuSans-50"/>
      <use x="300.814453" xlink:href="#DejaVuSans-6f"/>
      <use x="361.996094" xlink:href="#DejaVuSans-73"/>
      <use x="414.095703" xlink:href="#DejaVuSans-69"/>
      <use x="441.878906" xlink:href="#DejaVuSans-74"/>
      <use x="481.087891" xlink:href="#DejaVuSans-69"/>
      <use x="508.871094" xlink:href="#DejaVuSans-76"/>
      <use x="568.050781" xlink:href="#DejaVuSans-65"/>
      <use x="629.574219" xlink:href="#DejaVuSans-20"/>
      <use x="661.361328" xlink:href="#DejaVuSans-52"/>
      <use x="728.59375" xlink:href="#DejaVuSans-61"/>
      <use x="789.873047" xlink:href="#DejaVuSans-74"/>
      <use x="829.082031" xlink:href="#DejaVuSans-65"/>
     </g>
    </g>
   </g>
   <g id="line2d_13">
    <path clip-path="url(#p67e7777eee)" d="M 46.543626 294.118125 
L 46.618906 80.699595 
L 46.648181 80.699595 
L 46.673274 80.63833 
L 46.673274 80.607697 
L 47.288055 74.848736 
L 47.313149 74.848736 
L 47.417703 74.389244 
L 47.434432 74.358611 
L 47.543169 73.500894 
L 47.60172 73.439628 
L 47.815011 71.90799 
L 47.827558 71.90799 
L 47.827558 71.816091 
L 48.045031 70.100656 
L 48.082671 70.100656 
L 48.174679 69.671797 
L 48.187226 69.671797 
L 48.203954 69.671797 
L 48.203954 69.610532 
L 48.396335 68.630283 
L 48.429793 68.569017 
L 48.563622 67.803198 
L 48.601262 67.741932 
L 48.709999 67.466238 
L 48.722546 67.404972 
L 48.981841 65.842701 
L 49.023663 65.842701 
L 49.023663 65.750802 
L 49.157493 65.260678 
L 49.186768 65.16878 
L 49.282959 64.739921 
L 49.295505 64.739921 
L 49.341509 64.709288 
L 49.341509 64.678655 
L 49.563165 63.392079 
L 49.57153 63.392079 
L 49.713724 62.687525 
L 49.830825 62.595627 
L 49.910287 62.197401 
L 49.922833 62.197401 
L 50.106849 61.462214 
L 50.148671 61.370316 
L 50.253226 61.094621 
L 50.286683 61.033355 
L 50.39542 60.604496 
L 50.445607 60.573864 
L 50.512522 60.451332 
L 50.60453 60.359434 
L 50.696538 59.961208 
L 50.704902 59.961208 
L 50.734177 59.961208 
L 50.734177 59.930575 
L 50.876372 59.440451 
L 50.93074 59.379185 
L 51.014384 58.797163 
L 51.026931 58.797163 
L 51.043659 58.797163 
L 51.219311 58.092609 
L 51.256951 58.000711 
L 51.507882 57.32679 
L 51.54134 57.32679 
L 51.54134 57.265524 
L 51.742084 56.469072 
L 51.888461 56.377174 
L 52.030655 55.825784 
L 52.047384 55.825784 
L 52.047384 55.764518 
L 52.235583 54.906801 
L 52.243947 54.906801 
L 52.243947 54.876168 
L 52.323408 54.355411 
L 52.344319 54.355411 
L 52.369413 54.324778 
L 52.49906 54.079716 
L 52.557611 54.01845 
L 52.67053 53.650857 
L 52.795996 53.589591 
L 52.917279 53.221998 
L 53.092931 53.160733 
L 53.235125 52.701241 
L 53.322951 52.609343 
L 53.389866 52.36428 
L 53.431688 52.36428 
L 53.486056 52.303015 
L 53.624069 51.659727 
L 53.661708 51.629094 
L 54.046469 49.576698 
L 54.138478 49.4848 
L 54.305765 49.025308 
L 54.418684 48.93341 
L 54.510692 48.535184 
L 54.523239 48.535184 
L 54.535785 48.535184 
L 54.661251 48.228856 
L 54.761623 48.136958 
L 54.861996 47.922528 
L 54.966551 47.83063 
L 55.066923 47.463037 
L 55.112927 47.371138 
L 55.238393 47.187342 
L 55.342947 47.126076 
L 55.342947 47.095443 
L 55.485142 46.666585 
L 55.556239 46.666585 
L 55.715162 46.237726 
L 55.76953 46.17646 
L 55.828081 46.023296 
L 55.865721 46.023296 
L 55.936818 46.023296 
L 56.091559 45.349375 
L 56.271393 45.257477 
L 56.338308 45.134946 
L 56.375948 45.134946 
L 56.501413 44.920517 
L 56.559964 44.828618 
L 56.651972 44.246596 
L 56.656154 44.246596 
L 56.873628 44.154697 
L 56.87781 44.062799 
L 56.978182 44.062799 
L 57.032551 44.001533 
L 57.124559 43.664573 
L 57.371308 43.63394 
L 57.526049 43.205081 
L 57.651515 43.113183 
L 57.77698 42.929386 
L 57.81462 42.837488 
L 57.860624 42.653691 
L 57.91081 42.653691 
L 57.956814 42.653691 
L 58.17847 41.673443 
L 58.224474 41.612177 
L 58.375033 41.244584 
L 58.387579 41.213951 
L 58.525592 40.938256 
L 58.554867 40.876991 
L 58.554867 40.846358 
L 58.651057 40.754459 
L 58.688697 40.693194 
L 58.71379 40.509397 
L 58.793252 40.509397 
L 58.901988 40.417499 
L 59.002361 40.325601 
L 59.010725 40.325601 
L 59.173831 40.233702 
L 59.173831 40.20307 
L 59.274203 40.20307 
L 59.684057 40.141804 
L 59.830434 39.835476 
L 60.248653 39.774211 
L 60.344843 39.406617 
L 60.399211 39.314719 
L 60.499584 39.192188 
L 60.566499 39.10029 
L 60.708693 38.640798 
L 60.842523 38.579533 
L 60.972171 38.33447 
L 61.013993 38.242572 
L 61.131094 38.089408 
L 61.239831 37.99751 
L 61.336021 37.905612 
L 61.344386 37.905612 
L 61.478215 37.813713 
L 61.570224 37.599284 
L 61.578588 37.599284 
L 61.670596 37.538018 
L 61.775151 37.354222 
L 61.950803 37.262323 
L 62.0219 37.047894 
L 62.055357 37.047894 
L 62.084633 37.017261 
L 62.205916 36.710933 
L 62.260284 36.680301 
L 62.373203 36.55777 
L 62.720325 36.496504 
L 62.732872 36.404606 
L 62.799787 36.404606 
L 62.950345 36.34334 
L 63.067446 36.220809 
L 63.184548 36.128911 
L 63.301649 36.037012 
L 63.381111 35.945114 
L 63.381111 35.914481 
L 63.489847 35.914481 
L 63.598584 35.853216 
L 63.728232 35.546888 
L 63.811876 35.485622 
L 63.903884 35.332459 
L 64.104629 35.24056 
L 64.225912 35.087396 
L 64.414111 34.995498 
L 64.506119 34.719803 
L 64.522848 34.719803 
L 64.673406 34.627905 
L 64.715228 34.505374 
L 64.71941 34.505374 
L 65.003799 34.413475 
L 65.125082 34.260312 
L 65.459657 34.168413 
L 65.526572 34.107148 
L 65.568394 34.107148 
L 65.672949 34.107148 
L 65.672949 33.953984 
L 65.781686 33.953984 
L 65.902969 33.862086 
L 65.902969 33.831453 
L 66.007524 33.831453 
L 66.241726 33.739554 
L 66.241726 33.708922 
L 66.350463 33.708922 
L 66.530297 33.617023 
L 66.63067 33.371961 
L 66.639034 33.371961 
L 67.136714 33.280063 
L 67.182718 33.157532 
L 67.241269 33.157532 
L 67.370917 33.035001 
L 67.559115 32.943102 
L 67.559115 32.91247 
L 67.659488 32.91247 
L 67.943876 32.820571 
L 68.040067 32.759306 
L 68.052613 32.759306 
L 68.215719 32.667407 
L 68.337002 32.544876 
L 68.403917 32.544876 
L 68.550293 32.238549 
L 68.633937 32.177283 
L 68.705034 32.085385 
L 68.73431 32.085385 
L 69.093978 32.024119 
L 69.206897 31.901588 
L 69.307269 31.80969 
L 69.361638 31.564628 
L 69.411824 31.564628 
L 69.679484 31.472729 
L 69.679484 31.411464 
L 69.742217 31.411464 
L 70.172982 31.319565 
L 70.285901 31.227667 
L 70.440642 31.135769 
L 70.53265 30.982605 
L 70.549379 30.982605 
L 70.616294 30.982605 
L 70.616294 30.951972 
L 70.741759 30.798808 
L 71.001055 30.70691 
L 71.109792 30.523113 
L 71.197618 30.431215 
L 71.197618 30.400582 
L 71.302172 30.400582 
L 71.406727 30.308684 
L 71.498735 30.124887 
L 71.653476 30.063622 
L 71.653476 30.032989 
L 71.728755 29.941091 
L 71.758031 29.941091 
L 71.962958 29.879825 
L 71.962958 29.787927 
L 72.059148 29.787927 
L 72.59865 29.696028 
L 72.59865 29.665396 
L 72.707387 29.665396 
L 72.862128 29.634763 
L 72.979229 29.512232 
L 73.200885 29.420333 
L 73.200885 29.389701 
L 73.292893 29.389701 
L 73.819849 29.328435 
L 73.849124 29.175271 
L 73.911857 29.175271 
L 74.233885 29.083373 
L 74.271525 29.022107 
L 74.342622 29.022107 
L 74.815209 28.930209 
L 74.857031 28.868944 
L 74.915582 28.868944 
L 74.936493 28.868944 
L 74.936493 28.838311 
L 75.074505 28.593249 
L 75.145602 28.562616 
L 75.266886 28.409452 
L 75.509452 28.317554 
L 75.509452 28.286921 
L 75.614007 28.286921 
L 75.760384 28.195023 
L 75.831481 28.133757 
L 75.860756 28.133757 
L 76.224606 28.041859 
L 76.30825 27.766164 
L 76.333343 27.766164 
L 76.567546 27.735531 
L 76.688829 27.613 
L 76.822659 27.551734 
L 76.893756 27.245407 
L 76.931396 27.245407 
L 77.115412 27.184141 
L 77.232513 27.092243 
L 77.337068 27.000344 
L 77.345432 26.877813 
L 77.441623 26.877813 
L 77.680007 26.816548 
L 77.797109 26.694017 
L 78.094044 26.602118 
L 78.198599 26.571486 
L 78.512263 26.479587 
L 78.620999 26.326423 
L 78.725554 26.234525 
L 78.763194 25.989463 
L 78.825927 25.989463 
L 78.846837 25.989463 
L 78.980667 25.775033 
L 80.063854 25.683135 
L 80.134951 25.591237 
L 80.160044 25.591237 
L 80.912838 25.499338 
L 81.01321 25.193011 
L 81.017392 25.193011 
L 81.293417 25.101112 
L 81.423065 25.009214 
L 322.78125 25.009214 
L 322.78125 25.009214 
" style="fill:none;stroke:#ff8c00;stroke-linecap:square;stroke-width:2;"/>
   </g>
   <g id="line2d_14">
    <path clip-path="url(#p67e7777eee)" d="M 46.543626 294.118125 
L 322.78125 25.009214 
" style="fill:none;stroke:#000080;stroke-dasharray:7.4,3.2;stroke-dashoffset:0;stroke-width:2;"/>
   </g>
   <g id="patch_3">
    <path d="M 43.78125 294.118125 
L 43.78125 22.318125 
" style="fill:none;stroke:#000000;stroke-linecap:square;stroke-linejoin:miter;stroke-width:0.8;"/>
   </g>
   <g id="patch_4">
    <path d="M 322.78125 294.118125 
L 322.78125 22.318125 
" style="fill:none;stroke:#000000;stroke-linecap:square;stroke-linejoin:miter;stroke-width:0.8;"/>
   </g>
   <g id="patch_5">
    <path d="M 43.78125 294.118125 
L 322.78125 294.118125 
" style="fill:none;stroke:#000000;stroke-linecap:square;stroke-linejoin:miter;stroke-width:0.8;"/>
   </g>
   <g id="patch_6">
    <path d="M 43.78125 22.318125 
L 322.78125 22.318125 
" style="fill:none;stroke:#000000;stroke-linecap:square;stroke-linejoin:miter;stroke-width:0.8;"/>
   </g>
   <g id="text_15">
    <!-- Receiver Operating Characteristic -->
    <g transform="translate(81.778125 16.318125)scale(0.12 -0.12)">
     <defs>
      <path d="M 3122 3366 
L 3122 2828 
Q 2878 2963 2633 3030 
Q 2388 3097 2138 3097 
Q 1578 3097 1268 2742 
Q 959 2388 959 1747 
Q 959 1106 1268 751 
Q 1578 397 2138 397 
Q 2388 397 2633 464 
Q 2878 531 3122 666 
L 3122 134 
Q 2881 22 2623 -34 
Q 2366 -91 2075 -91 
Q 1284 -91 818 406 
Q 353 903 353 1747 
Q 353 2603 823 3093 
Q 1294 3584 2113 3584 
Q 2378 3584 2631 3529 
Q 2884 3475 3122 3366 
z
" id="DejaVuSans-63" transform="scale(0.015625)"/>
      <path d="M 2522 4238 
Q 1834 4238 1429 3725 
Q 1025 3213 1025 2328 
Q 1025 1447 1429 934 
Q 1834 422 2522 422 
Q 3209 422 3611 934 
Q 4013 1447 4013 2328 
Q 4013 3213 3611 3725 
Q 3209 4238 2522 4238 
z
M 2522 4750 
Q 3503 4750 4090 4092 
Q 4678 3434 4678 2328 
Q 4678 1225 4090 567 
Q 3503 -91 2522 -91 
Q 1538 -91 948 565 
Q 359 1222 359 2328 
Q 359 3434 948 4092 
Q 1538 4750 2522 4750 
z
" id="DejaVuSans-4f" transform="scale(0.015625)"/>
      <path d="M 1159 525 
L 1159 -1331 
L 581 -1331 
L 581 3500 
L 1159 3500 
L 1159 2969 
Q 1341 3281 1617 3432 
Q 1894 3584 2278 3584 
Q 2916 3584 3314 3078 
Q 3713 2572 3713 1747 
Q 3713 922 3314 415 
Q 2916 -91 2278 -91 
Q 1894 -91 1617 61 
Q 1341 213 1159 525 
z
M 3116 1747 
Q 3116 2381 2855 2742 
Q 2594 3103 2138 3103 
Q 1681 3103 1420 2742 
Q 1159 2381 1159 1747 
Q 1159 1113 1420 752 
Q 1681 391 2138 391 
Q 2594 391 2855 752 
Q 3116 1113 3116 1747 
z
" id="DejaVuSans-70" transform="scale(0.015625)"/>
      <path d="M 3513 2113 
L 3513 0 
L 2938 0 
L 2938 2094 
Q 2938 2591 2744 2837 
Q 2550 3084 2163 3084 
Q 1697 3084 1428 2787 
Q 1159 2491 1159 1978 
L 1159 0 
L 581 0 
L 581 3500 
L 1159 3500 
L 1159 2956 
Q 1366 3272 1645 3428 
Q 1925 3584 2291 3584 
Q 2894 3584 3203 3211 
Q 3513 2838 3513 2113 
z
" id="DejaVuSans-6e" transform="scale(0.015625)"/>
      <path d="M 2906 1791 
Q 2906 2416 2648 2759 
Q 2391 3103 1925 3103 
Q 1463 3103 1205 2759 
Q 947 2416 947 1791 
Q 947 1169 1205 825 
Q 1463 481 1925 481 
Q 2391 481 2648 825 
Q 2906 1169 2906 1791 
z
M 3481 434 
Q 3481 -459 3084 -895 
Q 2688 -1331 1869 -1331 
Q 1566 -1331 1297 -1286 
Q 1028 -1241 775 -1147 
L 775 -588 
Q 1028 -725 1275 -790 
Q 1522 -856 1778 -856 
Q 2344 -856 2625 -561 
Q 2906 -266 2906 331 
L 2906 616 
Q 2728 306 2450 153 
Q 2172 0 1784 0 
Q 1141 0 747 490 
Q 353 981 353 1791 
Q 353 2603 747 3093 
Q 1141 3584 1784 3584 
Q 2172 3584 2450 3431 
Q 2728 3278 2906 2969 
L 2906 3500 
L 3481 3500 
L 3481 434 
z
" id="DejaVuSans-67" transform="scale(0.015625)"/>
      <path d="M 4122 4306 
L 4122 3641 
Q 3803 3938 3442 4084 
Q 3081 4231 2675 4231 
Q 1875 4231 1450 3742 
Q 1025 3253 1025 2328 
Q 1025 1406 1450 917 
Q 1875 428 2675 428 
Q 3081 428 3442 575 
Q 3803 722 4122 1019 
L 4122 359 
Q 3791 134 3420 21 
Q 3050 -91 2638 -91 
Q 1578 -91 968 557 
Q 359 1206 359 2328 
Q 359 3453 968 4101 
Q 1578 4750 2638 4750 
Q 3056 4750 3426 4639 
Q 3797 4528 4122 4306 
z
" id="DejaVuSans-43" transform="scale(0.015625)"/>
      <path d="M 3513 2113 
L 3513 0 
L 2938 0 
L 2938 2094 
Q 2938 2591 2744 2837 
Q 2550 3084 2163 3084 
Q 1697 3084 1428 2787 
Q 1159 2491 1159 1978 
L 1159 0 
L 581 0 
L 581 4863 
L 1159 4863 
L 1159 2956 
Q 1366 3272 1645 3428 
Q 1925 3584 2291 3584 
Q 2894 3584 3203 3211 
Q 3513 2838 3513 2113 
z
" id="DejaVuSans-68" transform="scale(0.015625)"/>
     </defs>
     <use xlink:href="#DejaVuSans-52"/>
     <use x="64.982422" xlink:href="#DejaVuSans-65"/>
     <use x="126.505859" xlink:href="#DejaVuSans-63"/>
     <use x="181.486328" xlink:href="#DejaVuSans-65"/>
     <use x="243.009766" xlink:href="#DejaVuSans-69"/>
     <use x="270.792969" xlink:href="#DejaVuSans-76"/>
     <use x="329.972656" xlink:href="#DejaVuSans-65"/>
     <use x="391.496094" xlink:href="#DejaVuSans-72"/>
     <use x="432.609375" xlink:href="#DejaVuSans-20"/>
     <use x="464.396484" xlink:href="#DejaVuSans-4f"/>
     <use x="543.107422" xlink:href="#DejaVuSans-70"/>
     <use x="606.583984" xlink:href="#DejaVuSans-65"/>
     <use x="668.107422" xlink:href="#DejaVuSans-72"/>
     <use x="709.220703" xlink:href="#DejaVuSans-61"/>
     <use x="770.5" xlink:href="#DejaVuSans-74"/>
     <use x="809.708984" xlink:href="#DejaVuSans-69"/>
     <use x="837.492188" xlink:href="#DejaVuSans-6e"/>
     <use x="900.871094" xlink:href="#DejaVuSans-67"/>
     <use x="964.347656" xlink:href="#DejaVuSans-20"/>
     <use x="996.134766" xlink:href="#DejaVuSans-43"/>
     <use x="1065.958984" xlink:href="#DejaVuSans-68"/>
     <use x="1129.337891" xlink:href="#DejaVuSans-61"/>
     <use x="1190.617188" xlink:href="#DejaVuSans-72"/>
     <use x="1231.730469" xlink:href="#DejaVuSans-61"/>
     <use x="1293.009766" xlink:href="#DejaVuSans-63"/>
     <use x="1347.990234" xlink:href="#DejaVuSans-74"/>
     <use x="1387.199219" xlink:href="#DejaVuSans-65"/>
     <use x="1448.722656" xlink:href="#DejaVuSans-72"/>
     <use x="1489.835938" xlink:href="#DejaVuSans-69"/>
     <use x="1517.619141" xlink:href="#DejaVuSans-73"/>
     <use x="1569.71875" xlink:href="#DejaVuSans-74"/>
     <use x="1608.927734" xlink:href="#DejaVuSans-69"/>
     <use x="1636.710938" xlink:href="#DejaVuSans-63"/>
    </g>
   </g>
   <g id="legend_1">
    <g id="patch_7">
     <path d="M 160.503125 289.118125 
L 315.78125 289.118125 
Q 317.78125 289.118125 317.78125 287.118125 
L 317.78125 273.44 
Q 317.78125 271.44 315.78125 271.44 
L 160.503125 271.44 
Q 158.503125 271.44 158.503125 273.44 
L 158.503125 287.118125 
Q 158.503125 289.118125 160.503125 289.118125 
z
" style="fill:#ffffff;opacity:0.8;stroke:#cccccc;stroke-linejoin:miter;"/>
    </g>
    <g id="line2d_15">
     <path d="M 162.503125 279.538437 
L 182.503125 279.538437 
" style="fill:none;stroke:#ff8c00;stroke-linecap:square;stroke-width:2;"/>
    </g>
    <g id="line2d_16"/>
    <g id="text_16">
     <!-- ROC curve (area = 0.99) -->
     <g transform="translate(190.503125 283.038437)scale(0.1 -0.1)">
      <defs>
       <path d="M 1984 4856 
Q 1566 4138 1362 3434 
Q 1159 2731 1159 2009 
Q 1159 1288 1364 580 
Q 1569 -128 1984 -844 
L 1484 -844 
Q 1016 -109 783 600 
Q 550 1309 550 2009 
Q 550 2706 781 3412 
Q 1013 4119 1484 4856 
L 1984 4856 
z
" id="DejaVuSans-28" transform="scale(0.015625)"/>
       <path d="M 678 2906 
L 4684 2906 
L 4684 2381 
L 678 2381 
L 678 2906 
z
M 678 1631 
L 4684 1631 
L 4684 1100 
L 678 1100 
L 678 1631 
z
" id="DejaVuSans-3d" transform="scale(0.015625)"/>
       <path d="M 703 97 
L 703 672 
Q 941 559 1184 500 
Q 1428 441 1663 441 
Q 2288 441 2617 861 
Q 2947 1281 2994 2138 
Q 2813 1869 2534 1725 
Q 2256 1581 1919 1581 
Q 1219 1581 811 2004 
Q 403 2428 403 3163 
Q 403 3881 828 4315 
Q 1253 4750 1959 4750 
Q 2769 4750 3195 4129 
Q 3622 3509 3622 2328 
Q 3622 1225 3098 567 
Q 2575 -91 1691 -91 
Q 1453 -91 1209 -44 
Q 966 3 703 97 
z
M 1959 2075 
Q 2384 2075 2632 2365 
Q 2881 2656 2881 3163 
Q 2881 3666 2632 3958 
Q 2384 4250 1959 4250 
Q 1534 4250 1286 3958 
Q 1038 3666 1038 3163 
Q 1038 2656 1286 2365 
Q 1534 2075 1959 2075 
z
" id="DejaVuSans-39" transform="scale(0.015625)"/>
       <path d="M 513 4856 
L 1013 4856 
Q 1481 4119 1714 3412 
Q 1947 2706 1947 2009 
Q 1947 1309 1714 600 
Q 1481 -109 1013 -844 
L 513 -844 
Q 928 -128 1133 580 
Q 1338 1288 1338 2009 
Q 1338 2731 1133 3434 
Q 928 4138 513 4856 
z
" id="DejaVuSans-29" transform="scale(0.015625)"/>
      </defs>
      <use xlink:href="#DejaVuSans-52"/>
      <use x="69.482422" xlink:href="#DejaVuSans-4f"/>
      <use x="148.193359" xlink:href="#DejaVuSans-43"/>
      <use x="218.017578" xlink:href="#DejaVuSans-20"/>
      <use x="249.804688" xlink:href="#DejaVuSans-63"/>
      <use x="304.785156" xlink:href="#DejaVuSans-75"/>
      <use x="368.164062" xlink:href="#DejaVuSans-72"/>
      <use x="409.277344" xlink:href="#DejaVuSans-76"/>
      <use x="468.457031" xlink:href="#DejaVuSans-65"/>
      <use x="529.980469" xlink:href="#DejaVuSans-20"/>
      <use x="561.767578" xlink:href="#DejaVuSans-28"/>
      <use x="600.78125" xlink:href="#DejaVuSans-61"/>
      <use x="662.060547" xlink:href="#DejaVuSans-72"/>
      <use x="700.923828" xlink:href="#DejaVuSans-65"/>
      <use x="762.447266" xlink:href="#DejaVuSans-61"/>
      <use x="823.726562" xlink:href="#DejaVuSans-20"/>
      <use x="855.513672" xlink:href="#DejaVuSans-3d"/>
      <use x="939.302734" xlink:href="#DejaVuSans-20"/>
      <use x="971.089844" xlink:href="#DejaVuSans-30"/>
      <use x="1034.712891" xlink:href="#DejaVuSans-2e"/>
      <use x="1066.5" xlink:href="#DejaVuSans-39"/>
      <use x="1130.123047" xlink:href="#DejaVuSans-39"/>
      <use x="1193.746094" xlink:href="#DejaVuSans-29"/>
     </g>
    </g>
   </g>
  </g>
 </g>
 <defs>
  <clipPath id="p67e7777eee">
   <rect height="271.8" width="279" x="43.78125" y="22.318125"/>
  </clipPath>
 </defs>
</svg>
