<?xml version="1.0" encoding="utf-8" standalone="no"?>
<!DOCTYPE svg PUBLIC "-//W3C//DTD SVG 1.1//EN"
  "http://www.w3.org/Graphics/SVG/1.1/DTD/svg11.dtd">
<svg height="275.837188pt" version="1.1" viewBox="0 0 522.652344 275.837188" width="522.652344pt" xmlns="http://www.w3.org/2000/svg" xmlns:xlink="http://www.w3.org/1999/xlink">
 <metadata>
  <rdf:RDF xmlns:cc="http://creativecommons.org/ns#" xmlns:dc="http://purl.org/dc/elements/1.1/" xmlns:rdf="http://www.w3.org/1999/02/22-rdf-syntax-ns#">
   <cc:Work>
    <dc:type rdf:resource="http://purl.org/dc/dcmitype/StillImage"/>
    <dc:date>2021-10-18T14:04:53.356754</dc:date>
    <dc:format>image/svg+xml</dc:format>
    <dc:creator>
     <cc:Agent>
      <dc:title>Matplotlib v3.4.2, https://matplotlib.org/</dc:title>
     </cc:Agent>
    </dc:creator>
   </cc:Work>
  </rdf:RDF>
 </metadata>
 <defs>
  <style type="text/css">*{stroke-linecap:butt;stroke-linejoin:round;}</style>
 </defs>
 <g id="figure_1">
  <g id="patch_1">
   <path d="M 0 275.837188 
L 522.652344 275.837188 
L 522.652344 0 
L 0 0 
z
" style="fill:#ffffff;"/>
  </g>
  <g id="axes_1">
   <g id="patch_2">
    <path d="M 60.710938 239.229375 
L 507.110937 239.229375 
L 507.110937 21.789375 
L 60.710938 21.789375 
z
" style="fill:#ffffff;"/>
   </g>
   <g id="matplotlib.axis_1">
    <g id="xtick_1">
     <g id="line2d_1">
      <path clip-path="url(#p922f67cfcc)" d="M 60.710938 239.229375 
L 60.710938 21.789375 
" style="fill:none;stroke:#cccccc;stroke-linecap:round;stroke-width:0.8;"/>
     </g>
     <g id="text_1">
      <!-- 0 -->
      <g style="fill:#262626;" transform="translate(57.930469 253.387188)scale(0.1 -0.1)">
       <defs>
        <path d="M 266 2259 
Q 266 3072 433 3567 
Q 600 4063 929 4331 
Q 1259 4600 1759 4600 
Q 2128 4600 2406 4451 
Q 2684 4303 2865 4023 
Q 3047 3744 3150 3342 
Q 3253 2941 3253 2259 
Q 3253 1453 3087 958 
Q 2922 463 2592 192 
Q 2263 -78 1759 -78 
Q 1097 -78 719 397 
Q 266 969 266 2259 
z
M 844 2259 
Q 844 1131 1108 757 
Q 1372 384 1759 384 
Q 2147 384 2411 759 
Q 2675 1134 2675 2259 
Q 2675 3391 2411 3762 
Q 2147 4134 1753 4134 
Q 1366 4134 1134 3806 
Q 844 3388 844 2259 
z
" id="ArialMT-30" transform="scale(0.015625)"/>
       </defs>
       <use xlink:href="#ArialMT-30"/>
      </g>
     </g>
    </g>
    <g id="xtick_2">
     <g id="line2d_2">
      <path clip-path="url(#p922f67cfcc)" d="M 149.990938 239.229375 
L 149.990938 21.789375 
" style="fill:none;stroke:#cccccc;stroke-linecap:round;stroke-width:0.8;"/>
     </g>
     <g id="text_2">
      <!-- 50 -->
      <g style="fill:#262626;" transform="translate(144.43 253.387188)scale(0.1 -0.1)">
       <defs>
        <path d="M 266 1200 
L 856 1250 
Q 922 819 1161 601 
Q 1400 384 1738 384 
Q 2144 384 2425 690 
Q 2706 997 2706 1503 
Q 2706 1984 2436 2262 
Q 2166 2541 1728 2541 
Q 1456 2541 1237 2417 
Q 1019 2294 894 2097 
L 366 2166 
L 809 4519 
L 3088 4519 
L 3088 3981 
L 1259 3981 
L 1013 2750 
Q 1425 3038 1878 3038 
Q 2478 3038 2890 2622 
Q 3303 2206 3303 1553 
Q 3303 931 2941 478 
Q 2500 -78 1738 -78 
Q 1113 -78 717 272 
Q 322 622 266 1200 
z
" id="ArialMT-35" transform="scale(0.015625)"/>
       </defs>
       <use xlink:href="#ArialMT-35"/>
       <use x="55.615234" xlink:href="#ArialMT-30"/>
      </g>
     </g>
    </g>
    <g id="xtick_3">
     <g id="line2d_3">
      <path clip-path="url(#p922f67cfcc)" d="M 239.270937 239.229375 
L 239.270937 21.789375 
" style="fill:none;stroke:#cccccc;stroke-linecap:round;stroke-width:0.8;"/>
     </g>
     <g id="text_3">
      <!-- 100 -->
      <g style="fill:#262626;" transform="translate(230.929531 253.387188)scale(0.1 -0.1)">
       <defs>
        <path d="M 2384 0 
L 1822 0 
L 1822 3584 
Q 1619 3391 1289 3197 
Q 959 3003 697 2906 
L 697 3450 
Q 1169 3672 1522 3987 
Q 1875 4303 2022 4600 
L 2384 4600 
L 2384 0 
z
" id="ArialMT-31" transform="scale(0.015625)"/>
       </defs>
       <use xlink:href="#ArialMT-31"/>
       <use x="55.615234" xlink:href="#ArialMT-30"/>
       <use x="111.230469" xlink:href="#ArialMT-30"/>
      </g>
     </g>
    </g>
    <g id="xtick_4">
     <g id="line2d_4">
      <path clip-path="url(#p922f67cfcc)" d="M 328.550937 239.229375 
L 328.550937 21.789375 
" style="fill:none;stroke:#cccccc;stroke-linecap:round;stroke-width:0.8;"/>
     </g>
     <g id="text_4">
      <!-- 150 -->
      <g style="fill:#262626;" transform="translate(320.209531 253.387188)scale(0.1 -0.1)">
       <use xlink:href="#ArialMT-31"/>
       <use x="55.615234" xlink:href="#ArialMT-35"/>
       <use x="111.230469" xlink:href="#ArialMT-30"/>
      </g>
     </g>
    </g>
    <g id="xtick_5">
     <g id="line2d_5">
      <path clip-path="url(#p922f67cfcc)" d="M 417.830937 239.229375 
L 417.830937 21.789375 
" style="fill:none;stroke:#cccccc;stroke-linecap:round;stroke-width:0.8;"/>
     </g>
     <g id="text_5">
      <!-- 200 -->
      <g style="fill:#262626;" transform="translate(409.489531 253.387188)scale(0.1 -0.1)">
       <defs>
        <path d="M 3222 541 
L 3222 0 
L 194 0 
Q 188 203 259 391 
Q 375 700 629 1000 
Q 884 1300 1366 1694 
Q 2113 2306 2375 2664 
Q 2638 3022 2638 3341 
Q 2638 3675 2398 3904 
Q 2159 4134 1775 4134 
Q 1369 4134 1125 3890 
Q 881 3647 878 3216 
L 300 3275 
Q 359 3922 746 4261 
Q 1134 4600 1788 4600 
Q 2447 4600 2831 4234 
Q 3216 3869 3216 3328 
Q 3216 3053 3103 2787 
Q 2991 2522 2730 2228 
Q 2469 1934 1863 1422 
Q 1356 997 1212 845 
Q 1069 694 975 541 
L 3222 541 
z
" id="ArialMT-32" transform="scale(0.015625)"/>
       </defs>
       <use xlink:href="#ArialMT-32"/>
       <use x="55.615234" xlink:href="#ArialMT-30"/>
       <use x="111.230469" xlink:href="#ArialMT-30"/>
      </g>
     </g>
    </g>
    <g id="xtick_6">
     <g id="line2d_6">
      <path clip-path="url(#p922f67cfcc)" d="M 507.110937 239.229375 
L 507.110937 21.789375 
" style="fill:none;stroke:#cccccc;stroke-linecap:round;stroke-width:0.8;"/>
     </g>
     <g id="text_6">
      <!-- 250 -->
      <g style="fill:#262626;" transform="translate(498.769531 253.387188)scale(0.1 -0.1)">
       <use xlink:href="#ArialMT-32"/>
       <use x="55.615234" xlink:href="#ArialMT-35"/>
       <use x="111.230469" xlink:href="#ArialMT-30"/>
      </g>
     </g>
    </g>
    <g id="text_7">
     <!-- Text Length -->
     <g style="fill:#262626;" transform="translate(258.063281 266.5325)scale(0.1 -0.1)">
      <defs>
       <path d="M 1659 0 
L 1659 4041 
L 150 4041 
L 150 4581 
L 3781 4581 
L 3781 4041 
L 2266 4041 
L 2266 0 
L 1659 0 
z
" id="ArialMT-54" transform="scale(0.015625)"/>
       <path d="M 2694 1069 
L 3275 997 
Q 3138 488 2766 206 
Q 2394 -75 1816 -75 
Q 1088 -75 661 373 
Q 234 822 234 1631 
Q 234 2469 665 2931 
Q 1097 3394 1784 3394 
Q 2450 3394 2872 2941 
Q 3294 2488 3294 1666 
Q 3294 1616 3291 1516 
L 816 1516 
Q 847 969 1125 678 
Q 1403 388 1819 388 
Q 2128 388 2347 550 
Q 2566 713 2694 1069 
z
M 847 1978 
L 2700 1978 
Q 2663 2397 2488 2606 
Q 2219 2931 1791 2931 
Q 1403 2931 1139 2672 
Q 875 2413 847 1978 
z
" id="ArialMT-65" transform="scale(0.015625)"/>
       <path d="M 47 0 
L 1259 1725 
L 138 3319 
L 841 3319 
L 1350 2541 
Q 1494 2319 1581 2169 
Q 1719 2375 1834 2534 
L 2394 3319 
L 3066 3319 
L 1919 1756 
L 3153 0 
L 2463 0 
L 1781 1031 
L 1600 1309 
L 728 0 
L 47 0 
z
" id="ArialMT-78" transform="scale(0.015625)"/>
       <path d="M 1650 503 
L 1731 6 
Q 1494 -44 1306 -44 
Q 1000 -44 831 53 
Q 663 150 594 308 
Q 525 466 525 972 
L 525 2881 
L 113 2881 
L 113 3319 
L 525 3319 
L 525 4141 
L 1084 4478 
L 1084 3319 
L 1650 3319 
L 1650 2881 
L 1084 2881 
L 1084 941 
Q 1084 700 1114 631 
Q 1144 563 1211 522 
Q 1278 481 1403 481 
Q 1497 481 1650 503 
z
" id="ArialMT-74" transform="scale(0.015625)"/>
       <path id="ArialMT-20" transform="scale(0.015625)"/>
       <path d="M 469 0 
L 469 4581 
L 1075 4581 
L 1075 541 
L 3331 541 
L 3331 0 
L 469 0 
z
" id="ArialMT-4c" transform="scale(0.015625)"/>
       <path d="M 422 0 
L 422 3319 
L 928 3319 
L 928 2847 
Q 1294 3394 1984 3394 
Q 2284 3394 2536 3286 
Q 2788 3178 2913 3003 
Q 3038 2828 3088 2588 
Q 3119 2431 3119 2041 
L 3119 0 
L 2556 0 
L 2556 2019 
Q 2556 2363 2490 2533 
Q 2425 2703 2258 2804 
Q 2091 2906 1866 2906 
Q 1506 2906 1245 2678 
Q 984 2450 984 1813 
L 984 0 
L 422 0 
z
" id="ArialMT-6e" transform="scale(0.015625)"/>
       <path d="M 319 -275 
L 866 -356 
Q 900 -609 1056 -725 
Q 1266 -881 1628 -881 
Q 2019 -881 2231 -725 
Q 2444 -569 2519 -288 
Q 2563 -116 2559 434 
Q 2191 0 1641 0 
Q 956 0 581 494 
Q 206 988 206 1678 
Q 206 2153 378 2554 
Q 550 2956 876 3175 
Q 1203 3394 1644 3394 
Q 2231 3394 2613 2919 
L 2613 3319 
L 3131 3319 
L 3131 450 
Q 3131 -325 2973 -648 
Q 2816 -972 2473 -1159 
Q 2131 -1347 1631 -1347 
Q 1038 -1347 672 -1080 
Q 306 -813 319 -275 
z
M 784 1719 
Q 784 1066 1043 766 
Q 1303 466 1694 466 
Q 2081 466 2343 764 
Q 2606 1063 2606 1700 
Q 2606 2309 2336 2618 
Q 2066 2928 1684 2928 
Q 1309 2928 1046 2623 
Q 784 2319 784 1719 
z
" id="ArialMT-67" transform="scale(0.015625)"/>
       <path d="M 422 0 
L 422 4581 
L 984 4581 
L 984 2938 
Q 1378 3394 1978 3394 
Q 2347 3394 2619 3248 
Q 2891 3103 3008 2847 
Q 3125 2591 3125 2103 
L 3125 0 
L 2563 0 
L 2563 2103 
Q 2563 2525 2380 2717 
Q 2197 2909 1863 2909 
Q 1613 2909 1392 2779 
Q 1172 2650 1078 2428 
Q 984 2206 984 1816 
L 984 0 
L 422 0 
z
" id="ArialMT-68" transform="scale(0.015625)"/>
      </defs>
      <use xlink:href="#ArialMT-54"/>
      <use x="49.958984" xlink:href="#ArialMT-65"/>
      <use x="105.574219" xlink:href="#ArialMT-78"/>
      <use x="155.574219" xlink:href="#ArialMT-74"/>
      <use x="183.357422" xlink:href="#ArialMT-20"/>
      <use x="211.140625" xlink:href="#ArialMT-4c"/>
      <use x="266.755859" xlink:href="#ArialMT-65"/>
      <use x="322.371094" xlink:href="#ArialMT-6e"/>
      <use x="377.986328" xlink:href="#ArialMT-67"/>
      <use x="433.601562" xlink:href="#ArialMT-74"/>
      <use x="461.384766" xlink:href="#ArialMT-68"/>
     </g>
    </g>
   </g>
   <g id="matplotlib.axis_2">
    <g id="ytick_1">
     <g id="line2d_7">
      <path clip-path="url(#p922f67cfcc)" d="M 60.710938 239.229375 
L 507.110937 239.229375 
" style="fill:none;stroke:#cccccc;stroke-linecap:round;stroke-width:0.8;"/>
     </g>
     <g id="text_8">
      <!-- 0 -->
      <g style="fill:#262626;" transform="translate(48.15 242.808281)scale(0.1 -0.1)">
       <use xlink:href="#ArialMT-30"/>
      </g>
     </g>
    </g>
    <g id="ytick_2">
     <g id="line2d_8">
      <path clip-path="url(#p922f67cfcc)" d="M 60.710938 195.741375 
L 507.110937 195.741375 
" style="fill:none;stroke:#cccccc;stroke-linecap:round;stroke-width:0.8;"/>
     </g>
     <g id="text_9">
      <!-- 50000 -->
      <g style="fill:#262626;" transform="translate(25.90625 199.320281)scale(0.1 -0.1)">
       <use xlink:href="#ArialMT-35"/>
       <use x="55.615234" xlink:href="#ArialMT-30"/>
       <use x="111.230469" xlink:href="#ArialMT-30"/>
       <use x="166.845703" xlink:href="#ArialMT-30"/>
       <use x="222.460938" xlink:href="#ArialMT-30"/>
      </g>
     </g>
    </g>
    <g id="ytick_3">
     <g id="line2d_9">
      <path clip-path="url(#p922f67cfcc)" d="M 60.710938 152.253375 
L 507.110937 152.253375 
" style="fill:none;stroke:#cccccc;stroke-linecap:round;stroke-width:0.8;"/>
     </g>
     <g id="text_10">
      <!-- 100000 -->
      <g style="fill:#262626;" transform="translate(20.345313 155.832281)scale(0.1 -0.1)">
       <use xlink:href="#ArialMT-31"/>
       <use x="55.615234" xlink:href="#ArialMT-30"/>
       <use x="111.230469" xlink:href="#ArialMT-30"/>
       <use x="166.845703" xlink:href="#ArialMT-30"/>
       <use x="222.460938" xlink:href="#ArialMT-30"/>
       <use x="278.076172" xlink:href="#ArialMT-30"/>
      </g>
     </g>
    </g>
    <g id="ytick_4">
     <g id="line2d_10">
      <path clip-path="url(#p922f67cfcc)" d="M 60.710938 108.765375 
L 507.110937 108.765375 
" style="fill:none;stroke:#cccccc;stroke-linecap:round;stroke-width:0.8;"/>
     </g>
     <g id="text_11">
      <!-- 150000 -->
      <g style="fill:#262626;" transform="translate(20.345313 112.344281)scale(0.1 -0.1)">
       <use xlink:href="#ArialMT-31"/>
       <use x="55.615234" xlink:href="#ArialMT-35"/>
       <use x="111.230469" xlink:href="#ArialMT-30"/>
       <use x="166.845703" xlink:href="#ArialMT-30"/>
       <use x="222.460938" xlink:href="#ArialMT-30"/>
       <use x="278.076172" xlink:href="#ArialMT-30"/>
      </g>
     </g>
    </g>
    <g id="ytick_5">
     <g id="line2d_11">
      <path clip-path="url(#p922f67cfcc)" d="M 60.710938 65.277375 
L 507.110937 65.277375 
" style="fill:none;stroke:#cccccc;stroke-linecap:round;stroke-width:0.8;"/>
     </g>
     <g id="text_12">
      <!-- 200000 -->
      <g style="fill:#262626;" transform="translate(20.345313 68.856281)scale(0.1 -0.1)">
       <use xlink:href="#ArialMT-32"/>
       <use x="55.615234" xlink:href="#ArialMT-30"/>
       <use x="111.230469" xlink:href="#ArialMT-30"/>
       <use x="166.845703" xlink:href="#ArialMT-30"/>
       <use x="222.460938" xlink:href="#ArialMT-30"/>
       <use x="278.076172" xlink:href="#ArialMT-30"/>
      </g>
     </g>
    </g>
    <g id="ytick_6">
     <g id="line2d_12">
      <path clip-path="url(#p922f67cfcc)" d="M 60.710938 21.789375 
L 507.110937 21.789375 
" style="fill:none;stroke:#cccccc;stroke-linecap:round;stroke-width:0.8;"/>
     </g>
     <g id="text_13">
      <!-- 250000 -->
      <g style="fill:#262626;" transform="translate(20.345313 25.368281)scale(0.1 -0.1)">
       <use xlink:href="#ArialMT-32"/>
       <use x="55.615234" xlink:href="#ArialMT-35"/>
       <use x="111.230469" xlink:href="#ArialMT-30"/>
       <use x="166.845703" xlink:href="#ArialMT-30"/>
       <use x="222.460938" xlink:href="#ArialMT-30"/>
       <use x="278.076172" xlink:href="#ArialMT-30"/>
      </g>
     </g>
    </g>
    <g id="text_14">
     <!-- Count -->
     <g style="fill:#262626;" transform="translate(14.357813 143.850781)rotate(-90)scale(0.1 -0.1)">
      <defs>
       <path d="M 3763 1606 
L 4369 1453 
Q 4178 706 3683 314 
Q 3188 -78 2472 -78 
Q 1731 -78 1267 223 
Q 803 525 561 1097 
Q 319 1669 319 2325 
Q 319 3041 592 3573 
Q 866 4106 1370 4382 
Q 1875 4659 2481 4659 
Q 3169 4659 3637 4309 
Q 4106 3959 4291 3325 
L 3694 3184 
Q 3534 3684 3231 3912 
Q 2928 4141 2469 4141 
Q 1941 4141 1586 3887 
Q 1231 3634 1087 3207 
Q 944 2781 944 2328 
Q 944 1744 1114 1308 
Q 1284 872 1643 656 
Q 2003 441 2422 441 
Q 2931 441 3284 734 
Q 3638 1028 3763 1606 
z
" id="ArialMT-43" transform="scale(0.015625)"/>
       <path d="M 213 1659 
Q 213 2581 725 3025 
Q 1153 3394 1769 3394 
Q 2453 3394 2887 2945 
Q 3322 2497 3322 1706 
Q 3322 1066 3130 698 
Q 2938 331 2570 128 
Q 2203 -75 1769 -75 
Q 1072 -75 642 372 
Q 213 819 213 1659 
z
M 791 1659 
Q 791 1022 1069 705 
Q 1347 388 1769 388 
Q 2188 388 2466 706 
Q 2744 1025 2744 1678 
Q 2744 2294 2464 2611 
Q 2184 2928 1769 2928 
Q 1347 2928 1069 2612 
Q 791 2297 791 1659 
z
" id="ArialMT-6f" transform="scale(0.015625)"/>
       <path d="M 2597 0 
L 2597 488 
Q 2209 -75 1544 -75 
Q 1250 -75 995 37 
Q 741 150 617 320 
Q 494 491 444 738 
Q 409 903 409 1263 
L 409 3319 
L 972 3319 
L 972 1478 
Q 972 1038 1006 884 
Q 1059 663 1231 536 
Q 1403 409 1656 409 
Q 1909 409 2131 539 
Q 2353 669 2445 892 
Q 2538 1116 2538 1541 
L 2538 3319 
L 3100 3319 
L 3100 0 
L 2597 0 
z
" id="ArialMT-75" transform="scale(0.015625)"/>
      </defs>
      <use xlink:href="#ArialMT-43"/>
      <use x="72.216797" xlink:href="#ArialMT-6f"/>
      <use x="127.832031" xlink:href="#ArialMT-75"/>
      <use x="183.447266" xlink:href="#ArialMT-6e"/>
      <use x="239.0625" xlink:href="#ArialMT-74"/>
     </g>
    </g>
   </g>
   <g id="patch_3">
    <path clip-path="url(#p922f67cfcc)" d="M 60.710938 239.229375 
L 69.638938 239.229375 
L 69.638938 219.548446 
L 60.710938 219.548446 
z
" style="fill:#ff7f0e;fill-opacity:0.75;stroke:#ffffff;stroke-linejoin:miter;stroke-width:0.39021;"/>
   </g>
   <g id="patch_4">
    <path clip-path="url(#p922f67cfcc)" d="M 69.638938 239.229375 
L 78.566938 239.229375 
L 78.566938 206.802983 
L 69.638938 206.802983 
z
" style="fill:#ff7f0e;fill-opacity:0.75;stroke:#ffffff;stroke-linejoin:miter;stroke-width:0.39021;"/>
   </g>
   <g id="patch_5">
    <path clip-path="url(#p922f67cfcc)" d="M 78.566938 239.229375 
L 87.494938 239.229375 
L 87.494938 29.360636 
L 78.566938 29.360636 
z
" style="fill:#ff7f0e;fill-opacity:0.75;stroke:#ffffff;stroke-linejoin:miter;stroke-width:0.39021;"/>
   </g>
   <g id="patch_6">
    <path clip-path="url(#p922f67cfcc)" d="M 87.494938 239.229375 
L 96.422938 239.229375 
L 96.422938 68.164108 
L 87.494938 68.164108 
z
" style="fill:#ff7f0e;fill-opacity:0.75;stroke:#ffffff;stroke-linejoin:miter;stroke-width:0.39021;"/>
   </g>
   <g id="patch_7">
    <path clip-path="url(#p922f67cfcc)" d="M 96.422938 239.229375 
L 105.350938 239.229375 
L 105.350938 104.873199 
L 96.422938 104.873199 
z
" style="fill:#ff7f0e;fill-opacity:0.75;stroke:#ffffff;stroke-linejoin:miter;stroke-width:0.39021;"/>
   </g>
   <g id="patch_8">
    <path clip-path="url(#p922f67cfcc)" d="M 105.350938 239.229375 
L 114.278937 239.229375 
L 114.278937 132.688124 
L 105.350938 132.688124 
z
" style="fill:#ff7f0e;fill-opacity:0.75;stroke:#ffffff;stroke-linejoin:miter;stroke-width:0.39021;"/>
   </g>
   <g id="patch_9">
    <path clip-path="url(#p922f67cfcc)" d="M 114.278938 239.229375 
L 123.206938 239.229375 
L 123.206938 152.443852 
L 114.278938 152.443852 
z
" style="fill:#ff7f0e;fill-opacity:0.75;stroke:#ffffff;stroke-linejoin:miter;stroke-width:0.39021;"/>
   </g>
   <g id="patch_10">
    <path clip-path="url(#p922f67cfcc)" d="M 123.206938 239.229375 
L 132.134938 239.229375 
L 132.134938 167.922101 
L 123.206938 167.922101 
z
" style="fill:#ff7f0e;fill-opacity:0.75;stroke:#ffffff;stroke-linejoin:miter;stroke-width:0.39021;"/>
   </g>
   <g id="patch_11">
    <path clip-path="url(#p922f67cfcc)" d="M 132.134938 239.229375 
L 141.062938 239.229375 
L 141.062938 179.566448 
L 132.134938 179.566448 
z
" style="fill:#ff7f0e;fill-opacity:0.75;stroke:#ffffff;stroke-linejoin:miter;stroke-width:0.39021;"/>
   </g>
   <g id="patch_12">
    <path clip-path="url(#p922f67cfcc)" d="M 141.062938 239.229375 
L 149.990938 239.229375 
L 149.990938 188.953768 
L 141.062938 188.953768 
z
" style="fill:#ff7f0e;fill-opacity:0.75;stroke:#ffffff;stroke-linejoin:miter;stroke-width:0.39021;"/>
   </g>
   <g id="patch_13">
    <path clip-path="url(#p922f67cfcc)" d="M 149.990938 239.229375 
L 158.918937 239.229375 
L 158.918937 197.096461 
L 149.990938 197.096461 
z
" style="fill:#ff7f0e;fill-opacity:0.75;stroke:#ffffff;stroke-linejoin:miter;stroke-width:0.39021;"/>
   </g>
   <g id="patch_14">
    <path clip-path="url(#p922f67cfcc)" d="M 158.918937 239.229375 
L 167.846937 239.229375 
L 167.846937 203.663149 
L 158.918937 203.663149 
z
" style="fill:#ff7f0e;fill-opacity:0.75;stroke:#ffffff;stroke-linejoin:miter;stroke-width:0.39021;"/>
   </g>
   <g id="patch_15">
    <path clip-path="url(#p922f67cfcc)" d="M 167.846937 239.229375 
L 176.774937 239.229375 
L 176.774937 209.279189 
L 167.846937 209.279189 
z
" style="fill:#ff7f0e;fill-opacity:0.75;stroke:#ffffff;stroke-linejoin:miter;stroke-width:0.39021;"/>
   </g>
   <g id="patch_16">
    <path clip-path="url(#p922f67cfcc)" d="M 176.774937 239.229375 
L 185.702937 239.229375 
L 185.702937 213.412289 
L 176.774937 213.412289 
z
" style="fill:#ff7f0e;fill-opacity:0.75;stroke:#ffffff;stroke-linejoin:miter;stroke-width:0.39021;"/>
   </g>
   <g id="patch_17">
    <path clip-path="url(#p922f67cfcc)" d="M 185.702937 239.229375 
L 194.630937 239.229375 
L 194.630937 217.474068 
L 185.702937 217.474068 
z
" style="fill:#ff7f0e;fill-opacity:0.75;stroke:#ffffff;stroke-linejoin:miter;stroke-width:0.39021;"/>
   </g>
   <g id="patch_18">
    <path clip-path="url(#p922f67cfcc)" d="M 194.630937 239.229375 
L 203.558937 239.229375 
L 203.558937 220.500833 
L 194.630937 220.500833 
z
" style="fill:#ff7f0e;fill-opacity:0.75;stroke:#ffffff;stroke-linejoin:miter;stroke-width:0.39021;"/>
   </g>
   <g id="patch_19">
    <path clip-path="url(#p922f67cfcc)" d="M 203.558937 239.229375 
L 212.486937 239.229375 
L 212.486937 223.429315 
L 203.558937 223.429315 
z
" style="fill:#ff7f0e;fill-opacity:0.75;stroke:#ffffff;stroke-linejoin:miter;stroke-width:0.39021;"/>
   </g>
   <g id="patch_20">
    <path clip-path="url(#p922f67cfcc)" d="M 212.486937 239.229375 
L 221.414937 239.229375 
L 221.414937 225.576752 
L 212.486937 225.576752 
z
" style="fill:#ff7f0e;fill-opacity:0.75;stroke:#ffffff;stroke-linejoin:miter;stroke-width:0.39021;"/>
   </g>
   <g id="patch_21">
    <path clip-path="url(#p922f67cfcc)" d="M 221.414937 239.229375 
L 230.342937 239.229375 
L 230.342937 227.570242 
L 221.414937 227.570242 
z
" style="fill:#ff7f0e;fill-opacity:0.75;stroke:#ffffff;stroke-linejoin:miter;stroke-width:0.39021;"/>
   </g>
   <g id="patch_22">
    <path clip-path="url(#p922f67cfcc)" d="M 230.342937 239.229375 
L 239.270937 239.229375 
L 239.270937 229.298455 
L 230.342937 229.298455 
z
" style="fill:#ff7f0e;fill-opacity:0.75;stroke:#ffffff;stroke-linejoin:miter;stroke-width:0.39021;"/>
   </g>
   <g id="patch_23">
    <path clip-path="url(#p922f67cfcc)" d="M 239.270937 239.229375 
L 248.198937 239.229375 
L 248.198937 230.552649 
L 239.270937 230.552649 
z
" style="fill:#ff7f0e;fill-opacity:0.75;stroke:#ffffff;stroke-linejoin:miter;stroke-width:0.39021;"/>
   </g>
   <g id="patch_24">
    <path clip-path="url(#p922f67cfcc)" d="M 248.198937 239.229375 
L 257.126937 239.229375 
L 257.126937 231.979925 
L 248.198937 231.979925 
z
" style="fill:#ff7f0e;fill-opacity:0.75;stroke:#ffffff;stroke-linejoin:miter;stroke-width:0.39021;"/>
   </g>
   <g id="patch_25">
    <path clip-path="url(#p922f67cfcc)" d="M 257.126937 239.229375 
L 266.054937 239.229375 
L 266.054937 232.994935 
L 257.126937 232.994935 
z
" style="fill:#ff7f0e;fill-opacity:0.75;stroke:#ffffff;stroke-linejoin:miter;stroke-width:0.39021;"/>
   </g>
   <g id="patch_26">
    <path clip-path="url(#p922f67cfcc)" d="M 266.054937 239.229375 
L 274.982937 239.229375 
L 274.982937 233.709878 
L 266.054937 233.709878 
z
" style="fill:#ff7f0e;fill-opacity:0.75;stroke:#ffffff;stroke-linejoin:miter;stroke-width:0.39021;"/>
   </g>
   <g id="patch_27">
    <path clip-path="url(#p922f67cfcc)" d="M 274.982937 239.229375 
L 283.910937 239.229375 
L 283.910937 234.476137 
L 274.982937 234.476137 
z
" style="fill:#ff7f0e;fill-opacity:0.75;stroke:#ffffff;stroke-linejoin:miter;stroke-width:0.39021;"/>
   </g>
   <g id="patch_28">
    <path clip-path="url(#p922f67cfcc)" d="M 283.910937 239.229375 
L 292.838937 239.229375 
L 292.838937 235.197168 
L 283.910937 235.197168 
z
" style="fill:#ff7f0e;fill-opacity:0.75;stroke:#ffffff;stroke-linejoin:miter;stroke-width:0.39021;"/>
   </g>
   <g id="patch_29">
    <path clip-path="url(#p922f67cfcc)" d="M 292.838937 239.229375 
L 301.766937 239.229375 
L 301.766937 235.619871 
L 292.838937 235.619871 
z
" style="fill:#ff7f0e;fill-opacity:0.75;stroke:#ffffff;stroke-linejoin:miter;stroke-width:0.39021;"/>
   </g>
   <g id="patch_30">
    <path clip-path="url(#p922f67cfcc)" d="M 301.766937 239.229375 
L 310.694937 239.229375 
L 310.694937 236.119113 
L 301.766937 236.119113 
z
" style="fill:#ff7f0e;fill-opacity:0.75;stroke:#ffffff;stroke-linejoin:miter;stroke-width:0.39021;"/>
   </g>
   <g id="patch_31">
    <path clip-path="url(#p922f67cfcc)" d="M 310.694937 239.229375 
L 319.622937 239.229375 
L 319.622937 236.560951 
L 310.694937 236.560951 
z
" style="fill:#ff7f0e;fill-opacity:0.75;stroke:#ffffff;stroke-linejoin:miter;stroke-width:0.39021;"/>
   </g>
   <g id="patch_32">
    <path clip-path="url(#p922f67cfcc)" d="M 319.622937 239.229375 
L 328.550937 239.229375 
L 328.550937 236.919292 
L 319.622937 236.919292 
z
" style="fill:#ff7f0e;fill-opacity:0.75;stroke:#ffffff;stroke-linejoin:miter;stroke-width:0.39021;"/>
   </g>
   <g id="patch_33">
    <path clip-path="url(#p922f67cfcc)" d="M 328.550937 239.229375 
L 337.478937 239.229375 
L 337.478937 237.251541 
L 328.550937 237.251541 
z
" style="fill:#ff7f0e;fill-opacity:0.75;stroke:#ffffff;stroke-linejoin:miter;stroke-width:0.39021;"/>
   </g>
   <g id="patch_34">
    <path clip-path="url(#p922f67cfcc)" d="M 337.478937 239.229375 
L 346.406937 239.229375 
L 346.406937 237.479418 
L 337.478937 237.479418 
z
" style="fill:#ff7f0e;fill-opacity:0.75;stroke:#ffffff;stroke-linejoin:miter;stroke-width:0.39021;"/>
   </g>
   <g id="patch_35">
    <path clip-path="url(#p922f67cfcc)" d="M 346.406937 239.229375 
L 355.334937 239.229375 
L 355.334937 237.716862 
L 346.406937 237.716862 
z
" style="fill:#ff7f0e;fill-opacity:0.75;stroke:#ffffff;stroke-linejoin:miter;stroke-width:0.39021;"/>
   </g>
   <g id="patch_36">
    <path clip-path="url(#p922f67cfcc)" d="M 355.334937 239.229375 
L 364.262937 239.229375 
L 364.262937 237.878638 
L 355.334937 237.878638 
z
" style="fill:#ff7f0e;fill-opacity:0.75;stroke:#ffffff;stroke-linejoin:miter;stroke-width:0.39021;"/>
   </g>
   <g id="patch_37">
    <path clip-path="url(#p922f67cfcc)" d="M 364.262937 239.229375 
L 373.190937 239.229375 
L 373.190937 238.068245 
L 364.262937 238.068245 
z
" style="fill:#ff7f0e;fill-opacity:0.75;stroke:#ffffff;stroke-linejoin:miter;stroke-width:0.39021;"/>
   </g>
   <g id="patch_38">
    <path clip-path="url(#p922f67cfcc)" d="M 373.190937 239.229375 
L 382.118937 239.229375 
L 382.118937 238.222193 
L 373.190937 238.222193 
z
" style="fill:#ff7f0e;fill-opacity:0.75;stroke:#ffffff;stroke-linejoin:miter;stroke-width:0.39021;"/>
   </g>
   <g id="patch_39">
    <path clip-path="url(#p922f67cfcc)" d="M 382.118937 239.229375 
L 391.046937 239.229375 
L 391.046937 238.321346 
L 382.118937 238.321346 
z
" style="fill:#ff7f0e;fill-opacity:0.75;stroke:#ffffff;stroke-linejoin:miter;stroke-width:0.39021;"/>
   </g>
   <g id="patch_40">
    <path clip-path="url(#p922f67cfcc)" d="M 391.046937 239.229375 
L 399.974937 239.229375 
L 399.974937 238.422238 
L 391.046937 238.422238 
z
" style="fill:#ff7f0e;fill-opacity:0.75;stroke:#ffffff;stroke-linejoin:miter;stroke-width:0.39021;"/>
   </g>
   <g id="patch_41">
    <path clip-path="url(#p922f67cfcc)" d="M 399.974937 239.229375 
L 408.902937 239.229375 
L 408.902937 238.516172 
L 399.974937 238.516172 
z
" style="fill:#ff7f0e;fill-opacity:0.75;stroke:#ffffff;stroke-linejoin:miter;stroke-width:0.39021;"/>
   </g>
   <g id="patch_42">
    <path clip-path="url(#p922f67cfcc)" d="M 408.902937 239.229375 
L 417.830937 239.229375 
L 417.830937 238.617934 
L 408.902937 238.617934 
z
" style="fill:#ff7f0e;fill-opacity:0.75;stroke:#ffffff;stroke-linejoin:miter;stroke-width:0.39021;"/>
   </g>
   <g id="patch_43">
    <path clip-path="url(#p922f67cfcc)" d="M 417.830937 239.229375 
L 426.758937 239.229375 
L 426.758937 238.73883 
L 417.830937 238.73883 
z
" style="fill:#ff7f0e;fill-opacity:0.75;stroke:#ffffff;stroke-linejoin:miter;stroke-width:0.39021;"/>
   </g>
   <g id="patch_44">
    <path clip-path="url(#p922f67cfcc)" d="M 426.758937 239.229375 
L 435.686937 239.229375 
L 435.686937 238.760574 
L 426.758937 238.760574 
z
" style="fill:#ff7f0e;fill-opacity:0.75;stroke:#ffffff;stroke-linejoin:miter;stroke-width:0.39021;"/>
   </g>
   <g id="patch_45">
    <path clip-path="url(#p922f67cfcc)" d="M 435.686937 239.229375 
L 444.614937 239.229375 
L 444.614937 238.796235 
L 435.686937 238.796235 
z
" style="fill:#ff7f0e;fill-opacity:0.75;stroke:#ffffff;stroke-linejoin:miter;stroke-width:0.39021;"/>
   </g>
   <g id="patch_46">
    <path clip-path="url(#p922f67cfcc)" d="M 444.614937 239.229375 
L 453.542937 239.229375 
L 453.542937 238.857987 
L 444.614937 238.857987 
z
" style="fill:#ff7f0e;fill-opacity:0.75;stroke:#ffffff;stroke-linejoin:miter;stroke-width:0.39021;"/>
   </g>
   <g id="patch_47">
    <path clip-path="url(#p922f67cfcc)" d="M 453.542937 239.229375 
L 462.470937 239.229375 
L 462.470937 238.88669 
L 453.542937 238.88669 
z
" style="fill:#ff7f0e;fill-opacity:0.75;stroke:#ffffff;stroke-linejoin:miter;stroke-width:0.39021;"/>
   </g>
   <g id="patch_48">
    <path clip-path="url(#p922f67cfcc)" d="M 462.470937 239.229375 
L 471.398937 239.229375 
L 471.398937 238.928438 
L 462.470937 238.928438 
z
" style="fill:#ff7f0e;fill-opacity:0.75;stroke:#ffffff;stroke-linejoin:miter;stroke-width:0.39021;"/>
   </g>
   <g id="patch_49">
    <path clip-path="url(#p922f67cfcc)" d="M 471.398937 239.229375 
L 480.326937 239.229375 
L 480.326937 238.978884 
L 471.398937 238.978884 
z
" style="fill:#ff7f0e;fill-opacity:0.75;stroke:#ffffff;stroke-linejoin:miter;stroke-width:0.39021;"/>
   </g>
   <g id="patch_50">
    <path clip-path="url(#p922f67cfcc)" d="M 480.326937 239.229375 
L 489.254937 239.229375 
L 489.254937 238.990191 
L 480.326937 238.990191 
z
" style="fill:#ff7f0e;fill-opacity:0.75;stroke:#ffffff;stroke-linejoin:miter;stroke-width:0.39021;"/>
   </g>
   <g id="patch_51">
    <path clip-path="url(#p922f67cfcc)" d="M 489.254937 239.229375 
L 498.182937 239.229375 
L 498.182937 239.037158 
L 489.254937 239.037158 
z
" style="fill:#ff7f0e;fill-opacity:0.75;stroke:#ffffff;stroke-linejoin:miter;stroke-width:0.39021;"/>
   </g>
   <g id="patch_52">
    <path clip-path="url(#p922f67cfcc)" d="M 498.182937 239.229375 
L 507.110937 239.229375 
L 507.110937 239.068469 
L 498.182937 239.068469 
z
" style="fill:#ff7f0e;fill-opacity:0.75;stroke:#ffffff;stroke-linejoin:miter;stroke-width:0.39021;"/>
   </g>
   <g id="patch_53">
    <path clip-path="url(#p922f67cfcc)" d="M 507.110937 239.229375 
L 516.038937 239.229375 
L 516.038937 239.061511 
L 507.110937 239.061511 
z
" style="fill:#ff7f0e;fill-opacity:0.75;stroke:#ffffff;stroke-linejoin:miter;stroke-width:0.39021;"/>
   </g>
   <g id="patch_54">
    <path clip-path="url(#p922f67cfcc)" d="M 516.038937 239.229375 
L 524.966937 239.229375 
L 524.966937 239.069339 
L 516.038937 239.069339 
z
" style="fill:#ff7f0e;fill-opacity:0.75;stroke:#ffffff;stroke-linejoin:miter;stroke-width:0.39021;"/>
   </g>
   <g id="patch_55">
    <path clip-path="url(#p922f67cfcc)" d="M 524.966937 239.229375 
L 533.894937 239.229375 
L 533.894937 239.075427 
L 524.966937 239.075427 
z
" style="fill:#ff7f0e;fill-opacity:0.75;stroke:#ffffff;stroke-linejoin:miter;stroke-width:0.39021;"/>
   </g>
   <g id="patch_56">
    <path clip-path="url(#p922f67cfcc)" d="M 533.894937 239.229375 
L 542.822937 239.229375 
L 542.822937 239.091953 
L 533.894937 239.091953 
z
" style="fill:#ff7f0e;fill-opacity:0.75;stroke:#ffffff;stroke-linejoin:miter;stroke-width:0.39021;"/>
   </g>
   <g id="patch_57">
    <path clip-path="url(#p922f67cfcc)" d="M 542.822937 239.229375 
L 551.750937 239.229375 
L 551.750937 239.123264 
L 542.822937 239.123264 
z
" style="fill:#ff7f0e;fill-opacity:0.75;stroke:#ffffff;stroke-linejoin:miter;stroke-width:0.39021;"/>
   </g>
   <g id="patch_58">
    <path clip-path="url(#p922f67cfcc)" d="M 551.750937 239.229375 
L 560.678937 239.229375 
L 560.678937 239.110218 
L 551.750937 239.110218 
z
" style="fill:#ff7f0e;fill-opacity:0.75;stroke:#ffffff;stroke-linejoin:miter;stroke-width:0.39021;"/>
   </g>
   <g id="patch_59">
    <path clip-path="url(#p922f67cfcc)" d="M 560.678937 239.229375 
L 569.606937 239.229375 
L 569.606937 239.128483 
L 560.678937 239.128483 
z
" style="fill:#ff7f0e;fill-opacity:0.75;stroke:#ffffff;stroke-linejoin:miter;stroke-width:0.39021;"/>
   </g>
   <g id="patch_60">
    <path clip-path="url(#p922f67cfcc)" d="M 569.606937 239.229375 
L 578.534937 239.229375 
L 578.534937 239.160664 
L 569.606937 239.160664 
z
" style="fill:#ff7f0e;fill-opacity:0.75;stroke:#ffffff;stroke-linejoin:miter;stroke-width:0.39021;"/>
   </g>
   <g id="patch_61">
    <path clip-path="url(#p922f67cfcc)" d="M 578.534937 239.229375 
L 587.462937 239.229375 
L 587.462937 239.153706 
L 578.534937 239.153706 
z
" style="fill:#ff7f0e;fill-opacity:0.75;stroke:#ffffff;stroke-linejoin:miter;stroke-width:0.39021;"/>
   </g>
   <g id="patch_62">
    <path clip-path="url(#p922f67cfcc)" d="M 587.462937 239.229375 
L 596.390937 239.229375 
L 596.390937 239.131962 
L 587.462937 239.131962 
z
" style="fill:#ff7f0e;fill-opacity:0.75;stroke:#ffffff;stroke-linejoin:miter;stroke-width:0.39021;"/>
   </g>
   <g id="patch_63">
    <path clip-path="url(#p922f67cfcc)" d="M 596.390937 239.229375 
L 605.318937 239.229375 
L 605.318937 239.155445 
L 596.390937 239.155445 
z
" style="fill:#ff7f0e;fill-opacity:0.75;stroke:#ffffff;stroke-linejoin:miter;stroke-width:0.39021;"/>
   </g>
   <g id="patch_64">
    <path clip-path="url(#p922f67cfcc)" d="M 605.318937 239.229375 
L 614.246937 239.229375 
L 614.246937 239.164143 
L 605.318937 239.164143 
z
" style="fill:#ff7f0e;fill-opacity:0.75;stroke:#ffffff;stroke-linejoin:miter;stroke-width:0.39021;"/>
   </g>
   <g id="patch_65">
    <path clip-path="url(#p922f67cfcc)" d="M 614.246937 239.229375 
L 623.174937 239.229375 
L 623.174937 239.171971 
L 614.246937 239.171971 
z
" style="fill:#ff7f0e;fill-opacity:0.75;stroke:#ffffff;stroke-linejoin:miter;stroke-width:0.39021;"/>
   </g>
   <g id="patch_66">
    <path clip-path="url(#p922f67cfcc)" d="M 623.174937 239.229375 
L 632.102937 239.229375 
L 632.102937 239.178929 
L 623.174937 239.178929 
z
" style="fill:#ff7f0e;fill-opacity:0.75;stroke:#ffffff;stroke-linejoin:miter;stroke-width:0.39021;"/>
   </g>
   <g id="patch_67">
    <path clip-path="url(#p922f67cfcc)" d="M 632.102937 239.229375 
L 641.030937 239.229375 
L 641.030937 239.169362 
L 632.102937 239.169362 
z
" style="fill:#ff7f0e;fill-opacity:0.75;stroke:#ffffff;stroke-linejoin:miter;stroke-width:0.39021;"/>
   </g>
   <g id="patch_68">
    <path clip-path="url(#p922f67cfcc)" d="M 641.030937 239.229375 
L 649.958937 239.229375 
L 649.958937 239.186757 
L 641.030937 239.186757 
z
" style="fill:#ff7f0e;fill-opacity:0.75;stroke:#ffffff;stroke-linejoin:miter;stroke-width:0.39021;"/>
   </g>
   <g id="patch_69">
    <path clip-path="url(#p922f67cfcc)" d="M 649.958937 239.229375 
L 658.886937 239.229375 
L 658.886937 239.185887 
L 649.958937 239.185887 
z
" style="fill:#ff7f0e;fill-opacity:0.75;stroke:#ffffff;stroke-linejoin:miter;stroke-width:0.39021;"/>
   </g>
   <g id="patch_70">
    <path clip-path="url(#p922f67cfcc)" d="M 658.886937 239.229375 
L 667.814937 239.229375 
L 667.814937 239.17458 
L 658.886937 239.17458 
z
" style="fill:#ff7f0e;fill-opacity:0.75;stroke:#ffffff;stroke-linejoin:miter;stroke-width:0.39021;"/>
   </g>
   <g id="patch_71">
    <path clip-path="url(#p922f67cfcc)" d="M 667.814937 239.229375 
L 676.742937 239.229375 
L 676.742937 239.191106 
L 667.814937 239.191106 
z
" style="fill:#ff7f0e;fill-opacity:0.75;stroke:#ffffff;stroke-linejoin:miter;stroke-width:0.39021;"/>
   </g>
   <g id="patch_72">
    <path clip-path="url(#p922f67cfcc)" d="M 676.742937 239.229375 
L 685.670937 239.229375 
L 685.670937 239.190236 
L 676.742937 239.190236 
z
" style="fill:#ff7f0e;fill-opacity:0.75;stroke:#ffffff;stroke-linejoin:miter;stroke-width:0.39021;"/>
   </g>
   <g id="patch_73">
    <path clip-path="url(#p922f67cfcc)" d="M 685.670937 239.229375 
L 694.598937 239.229375 
L 694.598937 239.184147 
L 685.670937 239.184147 
z
" style="fill:#ff7f0e;fill-opacity:0.75;stroke:#ffffff;stroke-linejoin:miter;stroke-width:0.39021;"/>
   </g>
   <g id="patch_74">
    <path clip-path="url(#p922f67cfcc)" d="M 694.598937 239.229375 
L 703.526937 239.229375 
L 703.526937 239.196324 
L 694.598937 239.196324 
z
" style="fill:#ff7f0e;fill-opacity:0.75;stroke:#ffffff;stroke-linejoin:miter;stroke-width:0.39021;"/>
   </g>
   <g id="patch_75">
    <path clip-path="url(#p922f67cfcc)" d="M 703.526937 239.229375 
L 712.454937 239.229375 
L 712.454937 239.198933 
L 703.526937 239.198933 
z
" style="fill:#ff7f0e;fill-opacity:0.75;stroke:#ffffff;stroke-linejoin:miter;stroke-width:0.39021;"/>
   </g>
   <g id="patch_76">
    <path clip-path="url(#p922f67cfcc)" d="M 712.454937 239.229375 
L 721.382937 239.229375 
L 721.382937 239.198933 
L 712.454937 239.198933 
z
" style="fill:#ff7f0e;fill-opacity:0.75;stroke:#ffffff;stroke-linejoin:miter;stroke-width:0.39021;"/>
   </g>
   <g id="patch_77">
    <path clip-path="url(#p922f67cfcc)" d="M 721.382937 239.229375 
L 730.310937 239.229375 
L 730.310937 239.200673 
L 721.382937 239.200673 
z
" style="fill:#ff7f0e;fill-opacity:0.75;stroke:#ffffff;stroke-linejoin:miter;stroke-width:0.39021;"/>
   </g>
   <g id="patch_78">
    <path clip-path="url(#p922f67cfcc)" d="M 730.310937 239.229375 
L 739.238937 239.229375 
L 739.238937 239.201543 
L 730.310937 239.201543 
z
" style="fill:#ff7f0e;fill-opacity:0.75;stroke:#ffffff;stroke-linejoin:miter;stroke-width:0.39021;"/>
   </g>
   <g id="patch_79">
    <path clip-path="url(#p922f67cfcc)" d="M 739.238937 239.229375 
L 748.166937 239.229375 
L 748.166937 239.207631 
L 739.238937 239.207631 
z
" style="fill:#ff7f0e;fill-opacity:0.75;stroke:#ffffff;stroke-linejoin:miter;stroke-width:0.39021;"/>
   </g>
   <g id="patch_80">
    <path clip-path="url(#p922f67cfcc)" d="M 748.166937 239.229375 
L 757.094937 239.229375 
L 757.094937 239.207631 
L 748.166937 239.207631 
z
" style="fill:#ff7f0e;fill-opacity:0.75;stroke:#ffffff;stroke-linejoin:miter;stroke-width:0.39021;"/>
   </g>
   <g id="patch_81">
    <path clip-path="url(#p922f67cfcc)" d="M 757.094937 239.229375 
L 766.022937 239.229375 
L 766.022937 239.21111 
L 757.094937 239.21111 
z
" style="fill:#ff7f0e;fill-opacity:0.75;stroke:#ffffff;stroke-linejoin:miter;stroke-width:0.39021;"/>
   </g>
   <g id="patch_82">
    <path clip-path="url(#p922f67cfcc)" d="M 766.022937 239.229375 
L 774.950937 239.229375 
L 774.950937 239.201543 
L 766.022937 239.201543 
z
" style="fill:#ff7f0e;fill-opacity:0.75;stroke:#ffffff;stroke-linejoin:miter;stroke-width:0.39021;"/>
   </g>
   <g id="patch_83">
    <path clip-path="url(#p922f67cfcc)" d="M 774.950937 239.229375 
L 783.878937 239.229375 
L 783.878937 239.216329 
L 774.950937 239.216329 
z
" style="fill:#ff7f0e;fill-opacity:0.75;stroke:#ffffff;stroke-linejoin:miter;stroke-width:0.39021;"/>
   </g>
   <g id="patch_84">
    <path clip-path="url(#p922f67cfcc)" d="M 783.878937 239.229375 
L 792.806937 239.229375 
L 792.806937 239.21024 
L 783.878937 239.21024 
z
" style="fill:#ff7f0e;fill-opacity:0.75;stroke:#ffffff;stroke-linejoin:miter;stroke-width:0.39021;"/>
   </g>
   <g id="patch_85">
    <path clip-path="url(#p922f67cfcc)" d="M 792.806937 239.229375 
L 801.734937 239.229375 
L 801.734937 239.21024 
L 792.806937 239.21024 
z
" style="fill:#ff7f0e;fill-opacity:0.75;stroke:#ffffff;stroke-linejoin:miter;stroke-width:0.39021;"/>
   </g>
   <g id="patch_86">
    <path clip-path="url(#p922f67cfcc)" d="M 801.734937 239.229375 
L 810.662937 239.229375 
L 810.662937 239.214589 
L 801.734937 239.214589 
z
" style="fill:#ff7f0e;fill-opacity:0.75;stroke:#ffffff;stroke-linejoin:miter;stroke-width:0.39021;"/>
   </g>
   <g id="patch_87">
    <path clip-path="url(#p922f67cfcc)" d="M 810.662937 239.229375 
L 819.590937 239.229375 
L 819.590937 239.21198 
L 810.662937 239.21198 
z
" style="fill:#ff7f0e;fill-opacity:0.75;stroke:#ffffff;stroke-linejoin:miter;stroke-width:0.39021;"/>
   </g>
   <g id="patch_88">
    <path clip-path="url(#p922f67cfcc)" d="M 819.590937 239.229375 
L 828.518937 239.229375 
L 828.518937 239.21285 
L 819.590937 239.21285 
z
" style="fill:#ff7f0e;fill-opacity:0.75;stroke:#ffffff;stroke-linejoin:miter;stroke-width:0.39021;"/>
   </g>
   <g id="patch_89">
    <path clip-path="url(#p922f67cfcc)" d="M 828.518937 239.229375 
L 837.446937 239.229375 
L 837.446937 239.218068 
L 828.518937 239.218068 
z
" style="fill:#ff7f0e;fill-opacity:0.75;stroke:#ffffff;stroke-linejoin:miter;stroke-width:0.39021;"/>
   </g>
   <g id="patch_90">
    <path clip-path="url(#p922f67cfcc)" d="M 837.446937 239.229375 
L 846.374937 239.229375 
L 846.374937 239.216329 
L 837.446937 239.216329 
z
" style="fill:#ff7f0e;fill-opacity:0.75;stroke:#ffffff;stroke-linejoin:miter;stroke-width:0.39021;"/>
   </g>
   <g id="patch_91">
    <path clip-path="url(#p922f67cfcc)" d="M 846.374937 239.229375 
L 855.302937 239.229375 
L 855.302937 239.216329 
L 846.374937 239.216329 
z
" style="fill:#ff7f0e;fill-opacity:0.75;stroke:#ffffff;stroke-linejoin:miter;stroke-width:0.39021;"/>
   </g>
   <g id="patch_92">
    <path clip-path="url(#p922f67cfcc)" d="M 855.302937 239.229375 
L 864.230937 239.229375 
L 864.230937 239.222417 
L 855.302937 239.222417 
z
" style="fill:#ff7f0e;fill-opacity:0.75;stroke:#ffffff;stroke-linejoin:miter;stroke-width:0.39021;"/>
   </g>
   <g id="patch_93">
    <path clip-path="url(#p922f67cfcc)" d="M 864.230937 239.229375 
L 873.158937 239.229375 
L 873.158937 239.218068 
L 864.230937 239.218068 
z
" style="fill:#ff7f0e;fill-opacity:0.75;stroke:#ffffff;stroke-linejoin:miter;stroke-width:0.39021;"/>
   </g>
   <g id="patch_94">
    <path clip-path="url(#p922f67cfcc)" d="M 873.158937 239.229375 
L 882.086937 239.229375 
L 882.086937 239.221547 
L 873.158937 239.221547 
z
" style="fill:#ff7f0e;fill-opacity:0.75;stroke:#ffffff;stroke-linejoin:miter;stroke-width:0.39021;"/>
   </g>
   <g id="patch_95">
    <path clip-path="url(#p922f67cfcc)" d="M 882.086937 239.229375 
L 891.014937 239.229375 
L 891.014937 239.218938 
L 882.086937 239.218938 
z
" style="fill:#ff7f0e;fill-opacity:0.75;stroke:#ffffff;stroke-linejoin:miter;stroke-width:0.39021;"/>
   </g>
   <g id="patch_96">
    <path clip-path="url(#p922f67cfcc)" d="M 891.014937 239.229375 
L 899.942937 239.229375 
L 899.942937 239.216329 
L 891.014937 239.216329 
z
" style="fill:#ff7f0e;fill-opacity:0.75;stroke:#ffffff;stroke-linejoin:miter;stroke-width:0.39021;"/>
   </g>
   <g id="patch_97">
    <path clip-path="url(#p922f67cfcc)" d="M 899.942937 239.229375 
L 908.870937 239.229375 
L 908.870937 239.216329 
L 899.942937 239.216329 
z
" style="fill:#ff7f0e;fill-opacity:0.75;stroke:#ffffff;stroke-linejoin:miter;stroke-width:0.39021;"/>
   </g>
   <g id="patch_98">
    <path clip-path="url(#p922f67cfcc)" d="M 908.870937 239.229375 
L 917.798937 239.229375 
L 917.798937 239.220677 
L 908.870937 239.220677 
z
" style="fill:#ff7f0e;fill-opacity:0.75;stroke:#ffffff;stroke-linejoin:miter;stroke-width:0.39021;"/>
   </g>
   <g id="patch_99">
    <path clip-path="url(#p922f67cfcc)" d="M 917.798937 239.229375 
L 926.726937 239.229375 
L 926.726937 239.221547 
L 917.798937 239.221547 
z
" style="fill:#ff7f0e;fill-opacity:0.75;stroke:#ffffff;stroke-linejoin:miter;stroke-width:0.39021;"/>
   </g>
   <g id="patch_100">
    <path clip-path="url(#p922f67cfcc)" d="M 926.726937 239.229375 
L 935.654937 239.229375 
L 935.654937 239.214589 
L 926.726937 239.214589 
z
" style="fill:#ff7f0e;fill-opacity:0.75;stroke:#ffffff;stroke-linejoin:miter;stroke-width:0.39021;"/>
   </g>
   <g id="patch_101">
    <path clip-path="url(#p922f67cfcc)" d="M 935.654937 239.229375 
L 944.582937 239.229375 
L 944.582937 239.219808 
L 935.654937 239.219808 
z
" style="fill:#ff7f0e;fill-opacity:0.75;stroke:#ffffff;stroke-linejoin:miter;stroke-width:0.39021;"/>
   </g>
   <g id="patch_102">
    <path clip-path="url(#p922f67cfcc)" d="M 944.582937 239.229375 
L 953.510937 239.229375 
L 953.510937 239.221547 
L 944.582937 239.221547 
z
" style="fill:#ff7f0e;fill-opacity:0.75;stroke:#ffffff;stroke-linejoin:miter;stroke-width:0.39021;"/>
   </g>
   <g id="patch_103">
    <path clip-path="url(#p922f67cfcc)" d="M 953.510937 239.229375 
L 962.438937 239.229375 
L 962.438937 239.225026 
L 953.510937 239.225026 
z
" style="fill:#ff7f0e;fill-opacity:0.75;stroke:#ffffff;stroke-linejoin:miter;stroke-width:0.39021;"/>
   </g>
   <g id="patch_104">
    <path clip-path="url(#p922f67cfcc)" d="M 962.438937 239.229375 
L 971.366937 239.229375 
L 971.366937 239.218068 
L 962.438937 239.218068 
z
" style="fill:#ff7f0e;fill-opacity:0.75;stroke:#ffffff;stroke-linejoin:miter;stroke-width:0.39021;"/>
   </g>
   <g id="patch_105">
    <path clip-path="url(#p922f67cfcc)" d="M 971.366937 239.229375 
L 980.294937 239.229375 
L 980.294937 238.944094 
L 971.366937 238.944094 
z
" style="fill:#ff7f0e;fill-opacity:0.75;stroke:#ffffff;stroke-linejoin:miter;stroke-width:0.39021;"/>
   </g>
   <g id="patch_106">
    <path clip-path="url(#p922f67cfcc)" d="M 980.294937 239.229375 
L 989.222937 239.229375 
L 989.222937 239.225896 
L 980.294937 239.225896 
z
" style="fill:#ff7f0e;fill-opacity:0.75;stroke:#ffffff;stroke-linejoin:miter;stroke-width:0.39021;"/>
   </g>
   <g id="patch_107">
    <path clip-path="url(#p922f67cfcc)" d="M 60.710938 239.229375 
L 69.638938 239.229375 
L 69.638938 226.619595 
L 60.710938 226.619595 
z
" style="fill:#1f77b4;fill-opacity:0.75;stroke:#ffffff;stroke-linejoin:miter;stroke-width:0.39021;"/>
   </g>
   <g id="patch_108">
    <path clip-path="url(#p922f67cfcc)" d="M 69.638938 239.229375 
L 78.566938 239.229375 
L 78.566938 197.481765 
L 69.638938 197.481765 
z
" style="fill:#1f77b4;fill-opacity:0.75;stroke:#ffffff;stroke-linejoin:miter;stroke-width:0.39021;"/>
   </g>
   <g id="patch_109">
    <path clip-path="url(#p922f67cfcc)" d="M 78.566938 239.229375 
L 87.494938 239.229375 
L 87.494938 138.726867 
L 78.566938 138.726867 
z
" style="fill:#1f77b4;fill-opacity:0.75;stroke:#ffffff;stroke-linejoin:miter;stroke-width:0.39021;"/>
   </g>
   <g id="patch_110">
    <path clip-path="url(#p922f67cfcc)" d="M 87.494938 239.229375 
L 96.422938 239.229375 
L 96.422938 172.423979 
L 87.494938 172.423979 
z
" style="fill:#1f77b4;fill-opacity:0.75;stroke:#ffffff;stroke-linejoin:miter;stroke-width:0.39021;"/>
   </g>
   <g id="patch_111">
    <path clip-path="url(#p922f67cfcc)" d="M 96.422938 239.229375 
L 105.350938 239.229375 
L 105.350938 195.698757 
L 96.422938 195.698757 
z
" style="fill:#1f77b4;fill-opacity:0.75;stroke:#ffffff;stroke-linejoin:miter;stroke-width:0.39021;"/>
   </g>
   <g id="patch_112">
    <path clip-path="url(#p922f67cfcc)" d="M 105.350938 239.229375 
L 114.278937 239.229375 
L 114.278937 209.723637 
L 105.350938 209.723637 
z
" style="fill:#1f77b4;fill-opacity:0.75;stroke:#ffffff;stroke-linejoin:miter;stroke-width:0.39021;"/>
   </g>
   <g id="patch_113">
    <path clip-path="url(#p922f67cfcc)" d="M 114.278938 239.229375 
L 123.206938 239.229375 
L 123.206938 218.303819 
L 114.278938 218.303819 
z
" style="fill:#1f77b4;fill-opacity:0.75;stroke:#ffffff;stroke-linejoin:miter;stroke-width:0.39021;"/>
   </g>
   <g id="patch_114">
    <path clip-path="url(#p922f67cfcc)" d="M 123.206938 239.229375 
L 132.134938 239.229375 
L 132.134938 224.196443 
L 123.206938 224.196443 
z
" style="fill:#1f77b4;fill-opacity:0.75;stroke:#ffffff;stroke-linejoin:miter;stroke-width:0.39021;"/>
   </g>
   <g id="patch_115">
    <path clip-path="url(#p922f67cfcc)" d="M 132.134938 239.229375 
L 141.062938 239.229375 
L 141.062938 227.885965 
L 132.134938 227.885965 
z
" style="fill:#1f77b4;fill-opacity:0.75;stroke:#ffffff;stroke-linejoin:miter;stroke-width:0.39021;"/>
   </g>
   <g id="patch_116">
    <path clip-path="url(#p922f67cfcc)" d="M 141.062938 239.229375 
L 149.990938 239.229375 
L 149.990938 230.580482 
L 141.062938 230.580482 
z
" style="fill:#1f77b4;fill-opacity:0.75;stroke:#ffffff;stroke-linejoin:miter;stroke-width:0.39021;"/>
   </g>
   <g id="patch_117">
    <path clip-path="url(#p922f67cfcc)" d="M 149.990938 239.229375 
L 158.918937 239.229375 
L 158.918937 232.518307 
L 149.990938 232.518307 
z
" style="fill:#1f77b4;fill-opacity:0.75;stroke:#ffffff;stroke-linejoin:miter;stroke-width:0.39021;"/>
   </g>
   <g id="patch_118">
    <path clip-path="url(#p922f67cfcc)" d="M 158.918937 239.229375 
L 167.846937 239.229375 
L 167.846937 233.838603 
L 158.918937 233.838603 
z
" style="fill:#1f77b4;fill-opacity:0.75;stroke:#ffffff;stroke-linejoin:miter;stroke-width:0.39021;"/>
   </g>
   <g id="patch_119">
    <path clip-path="url(#p922f67cfcc)" d="M 167.846937 239.229375 
L 176.774937 239.229375 
L 176.774937 234.986686 
L 167.846937 234.986686 
z
" style="fill:#1f77b4;fill-opacity:0.75;stroke:#ffffff;stroke-linejoin:miter;stroke-width:0.39021;"/>
   </g>
   <g id="patch_120">
    <path clip-path="url(#p922f67cfcc)" d="M 176.774937 239.229375 
L 185.702937 239.229375 
L 185.702937 235.632917 
L 176.774937 235.632917 
z
" style="fill:#1f77b4;fill-opacity:0.75;stroke:#ffffff;stroke-linejoin:miter;stroke-width:0.39021;"/>
   </g>
   <g id="patch_121">
    <path clip-path="url(#p922f67cfcc)" d="M 185.702937 239.229375 
L 194.630937 239.229375 
L 194.630937 236.350469 
L 185.702937 236.350469 
z
" style="fill:#1f77b4;fill-opacity:0.75;stroke:#ffffff;stroke-linejoin:miter;stroke-width:0.39021;"/>
   </g>
   <g id="patch_122">
    <path clip-path="url(#p922f67cfcc)" d="M 194.630937 239.229375 
L 203.558937 239.229375 
L 203.558937 237.008878 
L 194.630937 237.008878 
z
" style="fill:#1f77b4;fill-opacity:0.75;stroke:#ffffff;stroke-linejoin:miter;stroke-width:0.39021;"/>
   </g>
   <g id="patch_123">
    <path clip-path="url(#p922f67cfcc)" d="M 203.558937 239.229375 
L 212.486937 239.229375 
L 212.486937 237.351563 
L 203.558937 237.351563 
z
" style="fill:#1f77b4;fill-opacity:0.75;stroke:#ffffff;stroke-linejoin:miter;stroke-width:0.39021;"/>
   </g>
   <g id="patch_124">
    <path clip-path="url(#p922f67cfcc)" d="M 212.486937 239.229375 
L 221.414937 239.229375 
L 221.414937 237.664677 
L 212.486937 237.664677 
z
" style="fill:#1f77b4;fill-opacity:0.75;stroke:#ffffff;stroke-linejoin:miter;stroke-width:0.39021;"/>
   </g>
   <g id="patch_125">
    <path clip-path="url(#p922f67cfcc)" d="M 221.414937 239.229375 
L 230.342937 239.229375 
L 230.342937 237.856024 
L 221.414937 237.856024 
z
" style="fill:#1f77b4;fill-opacity:0.75;stroke:#ffffff;stroke-linejoin:miter;stroke-width:0.39021;"/>
   </g>
   <g id="patch_126">
    <path clip-path="url(#p922f67cfcc)" d="M 230.342937 239.229375 
L 239.270937 239.229375 
L 239.270937 238.074334 
L 230.342937 238.074334 
z
" style="fill:#1f77b4;fill-opacity:0.75;stroke:#ffffff;stroke-linejoin:miter;stroke-width:0.39021;"/>
   </g>
   <g id="patch_127">
    <path clip-path="url(#p922f67cfcc)" d="M 239.270937 239.229375 
L 248.198937 239.229375 
L 248.198937 238.181314 
L 239.270937 238.181314 
z
" style="fill:#1f77b4;fill-opacity:0.75;stroke:#ffffff;stroke-linejoin:miter;stroke-width:0.39021;"/>
   </g>
   <g id="patch_128">
    <path clip-path="url(#p922f67cfcc)" d="M 248.198937 239.229375 
L 257.126937 239.229375 
L 257.126937 238.283946 
L 248.198937 238.283946 
z
" style="fill:#1f77b4;fill-opacity:0.75;stroke:#ffffff;stroke-linejoin:miter;stroke-width:0.39021;"/>
   </g>
   <g id="patch_129">
    <path clip-path="url(#p922f67cfcc)" d="M 257.126937 239.229375 
L 266.054937 239.229375 
L 266.054937 238.424847 
L 257.126937 238.424847 
z
" style="fill:#1f77b4;fill-opacity:0.75;stroke:#ffffff;stroke-linejoin:miter;stroke-width:0.39021;"/>
   </g>
   <g id="patch_130">
    <path clip-path="url(#p922f67cfcc)" d="M 266.054937 239.229375 
L 274.982937 239.229375 
L 274.982937 238.544874 
L 266.054937 238.544874 
z
" style="fill:#1f77b4;fill-opacity:0.75;stroke:#ffffff;stroke-linejoin:miter;stroke-width:0.39021;"/>
   </g>
   <g id="patch_131">
    <path clip-path="url(#p922f67cfcc)" d="M 274.982937 239.229375 
L 283.910937 239.229375 
L 283.910937 238.607497 
L 274.982937 238.607497 
z
" style="fill:#1f77b4;fill-opacity:0.75;stroke:#ffffff;stroke-linejoin:miter;stroke-width:0.39021;"/>
   </g>
   <g id="patch_132">
    <path clip-path="url(#p922f67cfcc)" d="M 283.910937 239.229375 
L 292.838937 239.229375 
L 292.838937 238.653594 
L 283.910937 238.653594 
z
" style="fill:#1f77b4;fill-opacity:0.75;stroke:#ffffff;stroke-linejoin:miter;stroke-width:0.39021;"/>
   </g>
   <g id="patch_133">
    <path clip-path="url(#p922f67cfcc)" d="M 292.838937 239.229375 
L 301.766937 239.229375 
L 301.766937 238.70491 
L 292.838937 238.70491 
z
" style="fill:#1f77b4;fill-opacity:0.75;stroke:#ffffff;stroke-linejoin:miter;stroke-width:0.39021;"/>
   </g>
   <g id="patch_134">
    <path clip-path="url(#p922f67cfcc)" d="M 301.766937 239.229375 
L 310.694937 239.229375 
L 310.694937 238.751007 
L 301.766937 238.751007 
z
" style="fill:#1f77b4;fill-opacity:0.75;stroke:#ffffff;stroke-linejoin:miter;stroke-width:0.39021;"/>
   </g>
   <g id="patch_135">
    <path clip-path="url(#p922f67cfcc)" d="M 310.694937 239.229375 
L 319.622937 239.229375 
L 319.622937 238.797104 
L 310.694937 238.797104 
z
" style="fill:#1f77b4;fill-opacity:0.75;stroke:#ffffff;stroke-linejoin:miter;stroke-width:0.39021;"/>
   </g>
   <g id="patch_136">
    <path clip-path="url(#p922f67cfcc)" d="M 319.622937 239.229375 
L 328.550937 239.229375 
L 328.550937 238.859727 
L 319.622937 238.859727 
z
" style="fill:#1f77b4;fill-opacity:0.75;stroke:#ffffff;stroke-linejoin:miter;stroke-width:0.39021;"/>
   </g>
   <g id="patch_137">
    <path clip-path="url(#p922f67cfcc)" d="M 328.550937 239.229375 
L 337.478937 239.229375 
L 337.478937 238.869294 
L 328.550937 238.869294 
z
" style="fill:#1f77b4;fill-opacity:0.75;stroke:#ffffff;stroke-linejoin:miter;stroke-width:0.39021;"/>
   </g>
   <g id="patch_138">
    <path clip-path="url(#p922f67cfcc)" d="M 337.478937 239.229375 
L 346.406937 239.229375 
L 346.406937 238.908434 
L 337.478937 238.908434 
z
" style="fill:#1f77b4;fill-opacity:0.75;stroke:#ffffff;stroke-linejoin:miter;stroke-width:0.39021;"/>
   </g>
   <g id="patch_139">
    <path clip-path="url(#p922f67cfcc)" d="M 346.406937 239.229375 
L 355.334937 239.229375 
L 355.334937 238.964968 
L 346.406937 238.964968 
z
" style="fill:#1f77b4;fill-opacity:0.75;stroke:#ffffff;stroke-linejoin:miter;stroke-width:0.39021;"/>
   </g>
   <g id="patch_140">
    <path clip-path="url(#p922f67cfcc)" d="M 355.334937 239.229375 
L 364.262937 239.229375 
L 364.262937 238.961489 
L 355.334937 238.961489 
z
" style="fill:#1f77b4;fill-opacity:0.75;stroke:#ffffff;stroke-linejoin:miter;stroke-width:0.39021;"/>
   </g>
   <g id="patch_141">
    <path clip-path="url(#p922f67cfcc)" d="M 364.262937 239.229375 
L 373.190937 239.229375 
L 373.190937 238.979754 
L 364.262937 238.979754 
z
" style="fill:#1f77b4;fill-opacity:0.75;stroke:#ffffff;stroke-linejoin:miter;stroke-width:0.39021;"/>
   </g>
   <g id="patch_142">
    <path clip-path="url(#p922f67cfcc)" d="M 373.190937 239.229375 
L 382.118937 239.229375 
L 382.118937 239.023242 
L 373.190937 239.023242 
z
" style="fill:#1f77b4;fill-opacity:0.75;stroke:#ffffff;stroke-linejoin:miter;stroke-width:0.39021;"/>
   </g>
   <g id="patch_143">
    <path clip-path="url(#p922f67cfcc)" d="M 382.118937 239.229375 
L 391.046937 239.229375 
L 391.046937 239.008456 
L 382.118937 239.008456 
z
" style="fill:#1f77b4;fill-opacity:0.75;stroke:#ffffff;stroke-linejoin:miter;stroke-width:0.39021;"/>
   </g>
   <g id="patch_144">
    <path clip-path="url(#p922f67cfcc)" d="M 391.046937 239.229375 
L 399.974937 239.229375 
L 399.974937 239.044116 
L 391.046937 239.044116 
z
" style="fill:#1f77b4;fill-opacity:0.75;stroke:#ffffff;stroke-linejoin:miter;stroke-width:0.39021;"/>
   </g>
   <g id="patch_145">
    <path clip-path="url(#p922f67cfcc)" d="M 399.974937 239.229375 
L 408.902937 239.229375 
L 408.902937 239.061511 
L 399.974937 239.061511 
z
" style="fill:#1f77b4;fill-opacity:0.75;stroke:#ffffff;stroke-linejoin:miter;stroke-width:0.39021;"/>
   </g>
   <g id="patch_146">
    <path clip-path="url(#p922f67cfcc)" d="M 408.902937 239.229375 
L 417.830937 239.229375 
L 417.830937 239.053683 
L 408.902937 239.053683 
z
" style="fill:#1f77b4;fill-opacity:0.75;stroke:#ffffff;stroke-linejoin:miter;stroke-width:0.39021;"/>
   </g>
   <g id="patch_147">
    <path clip-path="url(#p922f67cfcc)" d="M 417.830937 239.229375 
L 426.758937 239.229375 
L 426.758937 239.073688 
L 417.830937 239.073688 
z
" style="fill:#1f77b4;fill-opacity:0.75;stroke:#ffffff;stroke-linejoin:miter;stroke-width:0.39021;"/>
   </g>
   <g id="patch_148">
    <path clip-path="url(#p922f67cfcc)" d="M 426.758937 239.229375 
L 435.686937 239.229375 
L 435.686937 239.086734 
L 426.758937 239.086734 
z
" style="fill:#1f77b4;fill-opacity:0.75;stroke:#ffffff;stroke-linejoin:miter;stroke-width:0.39021;"/>
   </g>
   <g id="patch_149">
    <path clip-path="url(#p922f67cfcc)" d="M 435.686937 239.229375 
L 444.614937 239.229375 
L 444.614937 239.10152 
L 435.686937 239.10152 
z
" style="fill:#1f77b4;fill-opacity:0.75;stroke:#ffffff;stroke-linejoin:miter;stroke-width:0.39021;"/>
   </g>
   <g id="patch_150">
    <path clip-path="url(#p922f67cfcc)" d="M 444.614937 239.229375 
L 453.542937 239.229375 
L 453.542937 239.108478 
L 444.614937 239.108478 
z
" style="fill:#1f77b4;fill-opacity:0.75;stroke:#ffffff;stroke-linejoin:miter;stroke-width:0.39021;"/>
   </g>
   <g id="patch_151">
    <path clip-path="url(#p922f67cfcc)" d="M 453.542937 239.229375 
L 462.470937 239.229375 
L 462.470937 239.113697 
L 453.542937 239.113697 
z
" style="fill:#1f77b4;fill-opacity:0.75;stroke:#ffffff;stroke-linejoin:miter;stroke-width:0.39021;"/>
   </g>
   <g id="patch_152">
    <path clip-path="url(#p922f67cfcc)" d="M 462.470937 239.229375 
L 471.398937 239.229375 
L 471.398937 239.106739 
L 462.470937 239.106739 
z
" style="fill:#1f77b4;fill-opacity:0.75;stroke:#ffffff;stroke-linejoin:miter;stroke-width:0.39021;"/>
   </g>
   <g id="patch_153">
    <path clip-path="url(#p922f67cfcc)" d="M 471.398937 239.229375 
L 480.326937 239.229375 
L 480.326937 239.130222 
L 471.398937 239.130222 
z
" style="fill:#1f77b4;fill-opacity:0.75;stroke:#ffffff;stroke-linejoin:miter;stroke-width:0.39021;"/>
   </g>
   <g id="patch_154">
    <path clip-path="url(#p922f67cfcc)" d="M 480.326937 239.229375 
L 489.254937 239.229375 
L 489.254937 239.147618 
L 480.326937 239.147618 
z
" style="fill:#1f77b4;fill-opacity:0.75;stroke:#ffffff;stroke-linejoin:miter;stroke-width:0.39021;"/>
   </g>
   <g id="patch_155">
    <path clip-path="url(#p922f67cfcc)" d="M 489.254937 239.229375 
L 498.182937 239.229375 
L 498.182937 239.136311 
L 489.254937 239.136311 
z
" style="fill:#1f77b4;fill-opacity:0.75;stroke:#ffffff;stroke-linejoin:miter;stroke-width:0.39021;"/>
   </g>
   <g id="patch_156">
    <path clip-path="url(#p922f67cfcc)" d="M 498.182937 239.229375 
L 507.110937 239.229375 
L 507.110937 239.145008 
L 498.182937 239.145008 
z
" style="fill:#1f77b4;fill-opacity:0.75;stroke:#ffffff;stroke-linejoin:miter;stroke-width:0.39021;"/>
   </g>
   <g id="patch_157">
    <path clip-path="url(#p922f67cfcc)" d="M 507.110937 239.229375 
L 516.038937 239.229375 
L 516.038937 239.149357 
L 507.110937 239.149357 
z
" style="fill:#1f77b4;fill-opacity:0.75;stroke:#ffffff;stroke-linejoin:miter;stroke-width:0.39021;"/>
   </g>
   <g id="patch_158">
    <path clip-path="url(#p922f67cfcc)" d="M 516.038937 239.229375 
L 524.966937 239.229375 
L 524.966937 239.159794 
L 516.038937 239.159794 
z
" style="fill:#1f77b4;fill-opacity:0.75;stroke:#ffffff;stroke-linejoin:miter;stroke-width:0.39021;"/>
   </g>
   <g id="patch_159">
    <path clip-path="url(#p922f67cfcc)" d="M 524.966937 239.229375 
L 533.894937 239.229375 
L 533.894937 239.148487 
L 524.966937 239.148487 
z
" style="fill:#1f77b4;fill-opacity:0.75;stroke:#ffffff;stroke-linejoin:miter;stroke-width:0.39021;"/>
   </g>
   <g id="patch_160">
    <path clip-path="url(#p922f67cfcc)" d="M 533.894937 239.229375 
L 542.822937 239.229375 
L 542.822937 239.169362 
L 533.894937 239.169362 
z
" style="fill:#1f77b4;fill-opacity:0.75;stroke:#ffffff;stroke-linejoin:miter;stroke-width:0.39021;"/>
   </g>
   <g id="patch_161">
    <path clip-path="url(#p922f67cfcc)" d="M 542.822937 239.229375 
L 551.750937 239.229375 
L 551.750937 239.172841 
L 542.822937 239.172841 
z
" style="fill:#1f77b4;fill-opacity:0.75;stroke:#ffffff;stroke-linejoin:miter;stroke-width:0.39021;"/>
   </g>
   <g id="patch_162">
    <path clip-path="url(#p922f67cfcc)" d="M 551.750937 239.229375 
L 560.678937 239.229375 
L 560.678937 239.168492 
L 551.750937 239.168492 
z
" style="fill:#1f77b4;fill-opacity:0.75;stroke:#ffffff;stroke-linejoin:miter;stroke-width:0.39021;"/>
   </g>
   <g id="patch_163">
    <path clip-path="url(#p922f67cfcc)" d="M 560.678937 239.229375 
L 569.606937 239.229375 
L 569.606937 239.172841 
L 560.678937 239.172841 
z
" style="fill:#1f77b4;fill-opacity:0.75;stroke:#ffffff;stroke-linejoin:miter;stroke-width:0.39021;"/>
   </g>
   <g id="patch_164">
    <path clip-path="url(#p922f67cfcc)" d="M 569.606937 239.229375 
L 578.534937 239.229375 
L 578.534937 239.17371 
L 569.606937 239.17371 
z
" style="fill:#1f77b4;fill-opacity:0.75;stroke:#ffffff;stroke-linejoin:miter;stroke-width:0.39021;"/>
   </g>
   <g id="patch_165">
    <path clip-path="url(#p922f67cfcc)" d="M 578.534937 239.229375 
L 587.462937 239.229375 
L 587.462937 239.185887 
L 578.534937 239.185887 
z
" style="fill:#1f77b4;fill-opacity:0.75;stroke:#ffffff;stroke-linejoin:miter;stroke-width:0.39021;"/>
   </g>
   <g id="patch_166">
    <path clip-path="url(#p922f67cfcc)" d="M 587.462937 239.229375 
L 596.390937 239.229375 
L 596.390937 239.185017 
L 587.462937 239.185017 
z
" style="fill:#1f77b4;fill-opacity:0.75;stroke:#ffffff;stroke-linejoin:miter;stroke-width:0.39021;"/>
   </g>
   <g id="patch_167">
    <path clip-path="url(#p922f67cfcc)" d="M 596.390937 239.229375 
L 605.318937 239.229375 
L 605.318937 239.171971 
L 596.390937 239.171971 
z
" style="fill:#1f77b4;fill-opacity:0.75;stroke:#ffffff;stroke-linejoin:miter;stroke-width:0.39021;"/>
   </g>
   <g id="patch_168">
    <path clip-path="url(#p922f67cfcc)" d="M 605.318937 239.229375 
L 614.246937 239.229375 
L 614.246937 239.177189 
L 605.318937 239.177189 
z
" style="fill:#1f77b4;fill-opacity:0.75;stroke:#ffffff;stroke-linejoin:miter;stroke-width:0.39021;"/>
   </g>
   <g id="patch_169">
    <path clip-path="url(#p922f67cfcc)" d="M 614.246937 239.229375 
L 623.174937 239.229375 
L 623.174937 239.184147 
L 614.246937 239.184147 
z
" style="fill:#1f77b4;fill-opacity:0.75;stroke:#ffffff;stroke-linejoin:miter;stroke-width:0.39021;"/>
   </g>
   <g id="patch_170">
    <path clip-path="url(#p922f67cfcc)" d="M 623.174937 239.229375 
L 632.102937 239.229375 
L 632.102937 239.182408 
L 623.174937 239.182408 
z
" style="fill:#1f77b4;fill-opacity:0.75;stroke:#ffffff;stroke-linejoin:miter;stroke-width:0.39021;"/>
   </g>
   <g id="patch_171">
    <path clip-path="url(#p922f67cfcc)" d="M 632.102937 239.229375 
L 641.030937 239.229375 
L 641.030937 239.196324 
L 632.102937 239.196324 
z
" style="fill:#1f77b4;fill-opacity:0.75;stroke:#ffffff;stroke-linejoin:miter;stroke-width:0.39021;"/>
   </g>
   <g id="patch_172">
    <path clip-path="url(#p922f67cfcc)" d="M 641.030937 239.229375 
L 649.958937 239.229375 
L 649.958937 239.199803 
L 641.030937 239.199803 
z
" style="fill:#1f77b4;fill-opacity:0.75;stroke:#ffffff;stroke-linejoin:miter;stroke-width:0.39021;"/>
   </g>
   <g id="patch_173">
    <path clip-path="url(#p922f67cfcc)" d="M 649.958937 239.229375 
L 658.886937 239.229375 
L 658.886937 239.193715 
L 649.958937 239.193715 
z
" style="fill:#1f77b4;fill-opacity:0.75;stroke:#ffffff;stroke-linejoin:miter;stroke-width:0.39021;"/>
   </g>
   <g id="patch_174">
    <path clip-path="url(#p922f67cfcc)" d="M 658.886937 239.229375 
L 667.814937 239.229375 
L 667.814937 239.201543 
L 658.886937 239.201543 
z
" style="fill:#1f77b4;fill-opacity:0.75;stroke:#ffffff;stroke-linejoin:miter;stroke-width:0.39021;"/>
   </g>
   <g id="patch_175">
    <path clip-path="url(#p922f67cfcc)" d="M 667.814937 239.229375 
L 676.742937 239.229375 
L 676.742937 239.197194 
L 667.814937 239.197194 
z
" style="fill:#1f77b4;fill-opacity:0.75;stroke:#ffffff;stroke-linejoin:miter;stroke-width:0.39021;"/>
   </g>
   <g id="patch_176">
    <path clip-path="url(#p922f67cfcc)" d="M 676.742937 239.229375 
L 685.670937 239.229375 
L 685.670937 239.197194 
L 676.742937 239.197194 
z
" style="fill:#1f77b4;fill-opacity:0.75;stroke:#ffffff;stroke-linejoin:miter;stroke-width:0.39021;"/>
   </g>
   <g id="patch_177">
    <path clip-path="url(#p922f67cfcc)" d="M 685.670937 239.229375 
L 694.598937 239.229375 
L 694.598937 239.196324 
L 685.670937 239.196324 
z
" style="fill:#1f77b4;fill-opacity:0.75;stroke:#ffffff;stroke-linejoin:miter;stroke-width:0.39021;"/>
   </g>
   <g id="patch_178">
    <path clip-path="url(#p922f67cfcc)" d="M 694.598937 239.229375 
L 703.526937 239.229375 
L 703.526937 239.190236 
L 694.598937 239.190236 
z
" style="fill:#1f77b4;fill-opacity:0.75;stroke:#ffffff;stroke-linejoin:miter;stroke-width:0.39021;"/>
   </g>
   <g id="patch_179">
    <path clip-path="url(#p922f67cfcc)" d="M 703.526937 239.229375 
L 712.454937 239.229375 
L 712.454937 239.204152 
L 703.526937 239.204152 
z
" style="fill:#1f77b4;fill-opacity:0.75;stroke:#ffffff;stroke-linejoin:miter;stroke-width:0.39021;"/>
   </g>
   <g id="patch_180">
    <path clip-path="url(#p922f67cfcc)" d="M 712.454937 239.229375 
L 721.382937 239.229375 
L 721.382937 239.206761 
L 712.454937 239.206761 
z
" style="fill:#1f77b4;fill-opacity:0.75;stroke:#ffffff;stroke-linejoin:miter;stroke-width:0.39021;"/>
   </g>
   <g id="patch_181">
    <path clip-path="url(#p922f67cfcc)" d="M 721.382937 239.229375 
L 730.310937 239.229375 
L 730.310937 239.209371 
L 721.382937 239.209371 
z
" style="fill:#1f77b4;fill-opacity:0.75;stroke:#ffffff;stroke-linejoin:miter;stroke-width:0.39021;"/>
   </g>
   <g id="patch_182">
    <path clip-path="url(#p922f67cfcc)" d="M 730.310937 239.229375 
L 739.238937 239.229375 
L 739.238937 239.21198 
L 730.310937 239.21198 
z
" style="fill:#1f77b4;fill-opacity:0.75;stroke:#ffffff;stroke-linejoin:miter;stroke-width:0.39021;"/>
   </g>
   <g id="patch_183">
    <path clip-path="url(#p922f67cfcc)" d="M 739.238937 239.229375 
L 748.166937 239.229375 
L 748.166937 239.208501 
L 739.238937 239.208501 
z
" style="fill:#1f77b4;fill-opacity:0.75;stroke:#ffffff;stroke-linejoin:miter;stroke-width:0.39021;"/>
   </g>
   <g id="patch_184">
    <path clip-path="url(#p922f67cfcc)" d="M 748.166937 239.229375 
L 757.094937 239.229375 
L 757.094937 239.21024 
L 748.166937 239.21024 
z
" style="fill:#1f77b4;fill-opacity:0.75;stroke:#ffffff;stroke-linejoin:miter;stroke-width:0.39021;"/>
   </g>
   <g id="patch_185">
    <path clip-path="url(#p922f67cfcc)" d="M 757.094937 239.229375 
L 766.022937 239.229375 
L 766.022937 239.21198 
L 757.094937 239.21198 
z
" style="fill:#1f77b4;fill-opacity:0.75;stroke:#ffffff;stroke-linejoin:miter;stroke-width:0.39021;"/>
   </g>
   <g id="patch_186">
    <path clip-path="url(#p922f67cfcc)" d="M 766.022937 239.229375 
L 774.950937 239.229375 
L 774.950937 239.21198 
L 766.022937 239.21198 
z
" style="fill:#1f77b4;fill-opacity:0.75;stroke:#ffffff;stroke-linejoin:miter;stroke-width:0.39021;"/>
   </g>
   <g id="patch_187">
    <path clip-path="url(#p922f67cfcc)" d="M 774.950937 239.229375 
L 783.878937 239.229375 
L 783.878937 239.21111 
L 774.950937 239.21111 
z
" style="fill:#1f77b4;fill-opacity:0.75;stroke:#ffffff;stroke-linejoin:miter;stroke-width:0.39021;"/>
   </g>
   <g id="patch_188">
    <path clip-path="url(#p922f67cfcc)" d="M 783.878937 239.229375 
L 792.806937 239.229375 
L 792.806937 239.216329 
L 783.878937 239.216329 
z
" style="fill:#1f77b4;fill-opacity:0.75;stroke:#ffffff;stroke-linejoin:miter;stroke-width:0.39021;"/>
   </g>
   <g id="patch_189">
    <path clip-path="url(#p922f67cfcc)" d="M 792.806937 239.229375 
L 801.734937 239.229375 
L 801.734937 239.21198 
L 792.806937 239.21198 
z
" style="fill:#1f77b4;fill-opacity:0.75;stroke:#ffffff;stroke-linejoin:miter;stroke-width:0.39021;"/>
   </g>
   <g id="patch_190">
    <path clip-path="url(#p922f67cfcc)" d="M 801.734937 239.229375 
L 810.662937 239.229375 
L 810.662937 239.21198 
L 801.734937 239.21198 
z
" style="fill:#1f77b4;fill-opacity:0.75;stroke:#ffffff;stroke-linejoin:miter;stroke-width:0.39021;"/>
   </g>
   <g id="patch_191">
    <path clip-path="url(#p922f67cfcc)" d="M 810.662937 239.229375 
L 819.590937 239.229375 
L 819.590937 239.217198 
L 810.662937 239.217198 
z
" style="fill:#1f77b4;fill-opacity:0.75;stroke:#ffffff;stroke-linejoin:miter;stroke-width:0.39021;"/>
   </g>
   <g id="patch_192">
    <path clip-path="url(#p922f67cfcc)" d="M 819.590937 239.229375 
L 828.518937 239.229375 
L 828.518937 239.218938 
L 819.590937 239.218938 
z
" style="fill:#1f77b4;fill-opacity:0.75;stroke:#ffffff;stroke-linejoin:miter;stroke-width:0.39021;"/>
   </g>
   <g id="patch_193">
    <path clip-path="url(#p922f67cfcc)" d="M 828.518937 239.229375 
L 837.446937 239.229375 
L 837.446937 239.218068 
L 828.518937 239.218068 
z
" style="fill:#1f77b4;fill-opacity:0.75;stroke:#ffffff;stroke-linejoin:miter;stroke-width:0.39021;"/>
   </g>
   <g id="patch_194">
    <path clip-path="url(#p922f67cfcc)" d="M 837.446937 239.229375 
L 846.374937 239.229375 
L 846.374937 239.21198 
L 837.446937 239.21198 
z
" style="fill:#1f77b4;fill-opacity:0.75;stroke:#ffffff;stroke-linejoin:miter;stroke-width:0.39021;"/>
   </g>
   <g id="patch_195">
    <path clip-path="url(#p922f67cfcc)" d="M 846.374937 239.229375 
L 855.302937 239.229375 
L 855.302937 239.213719 
L 846.374937 239.213719 
z
" style="fill:#1f77b4;fill-opacity:0.75;stroke:#ffffff;stroke-linejoin:miter;stroke-width:0.39021;"/>
   </g>
   <g id="patch_196">
    <path clip-path="url(#p922f67cfcc)" d="M 855.302937 239.229375 
L 864.230937 239.229375 
L 864.230937 239.219808 
L 855.302937 239.219808 
z
" style="fill:#1f77b4;fill-opacity:0.75;stroke:#ffffff;stroke-linejoin:miter;stroke-width:0.39021;"/>
   </g>
   <g id="patch_197">
    <path clip-path="url(#p922f67cfcc)" d="M 864.230937 239.229375 
L 873.158937 239.229375 
L 873.158937 239.220677 
L 864.230937 239.220677 
z
" style="fill:#1f77b4;fill-opacity:0.75;stroke:#ffffff;stroke-linejoin:miter;stroke-width:0.39021;"/>
   </g>
   <g id="patch_198">
    <path clip-path="url(#p922f67cfcc)" d="M 873.158937 239.229375 
L 882.086937 239.229375 
L 882.086937 239.214589 
L 873.158937 239.214589 
z
" style="fill:#1f77b4;fill-opacity:0.75;stroke:#ffffff;stroke-linejoin:miter;stroke-width:0.39021;"/>
   </g>
   <g id="patch_199">
    <path clip-path="url(#p922f67cfcc)" d="M 882.086937 239.229375 
L 891.014937 239.229375 
L 891.014937 239.219808 
L 882.086937 239.219808 
z
" style="fill:#1f77b4;fill-opacity:0.75;stroke:#ffffff;stroke-linejoin:miter;stroke-width:0.39021;"/>
   </g>
   <g id="patch_200">
    <path clip-path="url(#p922f67cfcc)" d="M 891.014937 239.229375 
L 899.942937 239.229375 
L 899.942937 239.221547 
L 891.014937 239.221547 
z
" style="fill:#1f77b4;fill-opacity:0.75;stroke:#ffffff;stroke-linejoin:miter;stroke-width:0.39021;"/>
   </g>
   <g id="patch_201">
    <path clip-path="url(#p922f67cfcc)" d="M 899.942937 239.229375 
L 908.870937 239.229375 
L 908.870937 239.218068 
L 899.942937 239.218068 
z
" style="fill:#1f77b4;fill-opacity:0.75;stroke:#ffffff;stroke-linejoin:miter;stroke-width:0.39021;"/>
   </g>
   <g id="patch_202">
    <path clip-path="url(#p922f67cfcc)" d="M 908.870937 239.229375 
L 917.798937 239.229375 
L 917.798937 239.218068 
L 908.870937 239.218068 
z
" style="fill:#1f77b4;fill-opacity:0.75;stroke:#ffffff;stroke-linejoin:miter;stroke-width:0.39021;"/>
   </g>
   <g id="patch_203">
    <path clip-path="url(#p922f67cfcc)" d="M 917.798937 239.229375 
L 926.726937 239.229375 
L 926.726937 239.213719 
L 917.798937 239.213719 
z
" style="fill:#1f77b4;fill-opacity:0.75;stroke:#ffffff;stroke-linejoin:miter;stroke-width:0.39021;"/>
   </g>
   <g id="patch_204">
    <path clip-path="url(#p922f67cfcc)" d="M 926.726937 239.229375 
L 935.654937 239.229375 
L 935.654937 239.221547 
L 926.726937 239.221547 
z
" style="fill:#1f77b4;fill-opacity:0.75;stroke:#ffffff;stroke-linejoin:miter;stroke-width:0.39021;"/>
   </g>
   <g id="patch_205">
    <path clip-path="url(#p922f67cfcc)" d="M 935.654937 239.229375 
L 944.582937 239.229375 
L 944.582937 239.225896 
L 935.654937 239.225896 
z
" style="fill:#1f77b4;fill-opacity:0.75;stroke:#ffffff;stroke-linejoin:miter;stroke-width:0.39021;"/>
   </g>
   <g id="patch_206">
    <path clip-path="url(#p922f67cfcc)" d="M 944.582937 239.229375 
L 953.510937 239.229375 
L 953.510937 239.223287 
L 944.582937 239.223287 
z
" style="fill:#1f77b4;fill-opacity:0.75;stroke:#ffffff;stroke-linejoin:miter;stroke-width:0.39021;"/>
   </g>
   <g id="patch_207">
    <path clip-path="url(#p922f67cfcc)" d="M 953.510937 239.229375 
L 962.438937 239.229375 
L 962.438937 239.225896 
L 953.510937 239.225896 
z
" style="fill:#1f77b4;fill-opacity:0.75;stroke:#ffffff;stroke-linejoin:miter;stroke-width:0.39021;"/>
   </g>
   <g id="patch_208">
    <path clip-path="url(#p922f67cfcc)" d="M 962.438937 239.229375 
L 971.366937 239.229375 
L 971.366937 239.225896 
L 962.438937 239.225896 
z
" style="fill:#1f77b4;fill-opacity:0.75;stroke:#ffffff;stroke-linejoin:miter;stroke-width:0.39021;"/>
   </g>
   <g id="patch_209">
    <path clip-path="url(#p922f67cfcc)" d="M 971.366937 239.229375 
L 980.294937 239.229375 
L 980.294937 239.092823 
L 971.366937 239.092823 
z
" style="fill:#1f77b4;fill-opacity:0.75;stroke:#ffffff;stroke-linejoin:miter;stroke-width:0.39021;"/>
   </g>
   <g id="patch_210">
    <path clip-path="url(#p922f67cfcc)" d="M 980.294937 239.229375 
L 989.222937 239.229375 
L 989.222937 239.228505 
L 980.294937 239.228505 
z
" style="fill:#1f77b4;fill-opacity:0.75;stroke:#ffffff;stroke-linejoin:miter;stroke-width:0.39021;"/>
   </g>
   <g id="patch_211">
    <path d="M 60.710938 239.229375 
L 60.710938 21.789375 
" style="fill:none;stroke:#cccccc;stroke-linecap:square;stroke-linejoin:miter;stroke-width:0.8;"/>
   </g>
   <g id="patch_212">
    <path d="M 507.110937 239.229375 
L 507.110937 21.789375 
" style="fill:none;stroke:#cccccc;stroke-linecap:square;stroke-linejoin:miter;stroke-width:0.8;"/>
   </g>
   <g id="patch_213">
    <path d="M 60.710938 239.229375 
L 507.110937 239.229375 
" style="fill:none;stroke:#cccccc;stroke-linecap:square;stroke-linejoin:miter;stroke-width:0.8;"/>
   </g>
   <g id="patch_214">
    <path d="M 60.710938 21.789375 
L 507.110937 21.789375 
" style="fill:none;stroke:#cccccc;stroke-linecap:square;stroke-linejoin:miter;stroke-width:0.8;"/>
   </g>
   <g id="text_15">
    <!-- Histogram -->
    <g style="fill:#262626;" transform="translate(256.5725 15.789375)scale(0.12 -0.12)">
     <defs>
      <path d="M 513 0 
L 513 4581 
L 1119 4581 
L 1119 2700 
L 3500 2700 
L 3500 4581 
L 4106 4581 
L 4106 0 
L 3500 0 
L 3500 2159 
L 1119 2159 
L 1119 0 
L 513 0 
z
" id="ArialMT-48" transform="scale(0.015625)"/>
      <path d="M 425 3934 
L 425 4581 
L 988 4581 
L 988 3934 
L 425 3934 
z
M 425 0 
L 425 3319 
L 988 3319 
L 988 0 
L 425 0 
z
" id="ArialMT-69" transform="scale(0.015625)"/>
      <path d="M 197 991 
L 753 1078 
Q 800 744 1014 566 
Q 1228 388 1613 388 
Q 2000 388 2187 545 
Q 2375 703 2375 916 
Q 2375 1106 2209 1216 
Q 2094 1291 1634 1406 
Q 1016 1563 777 1677 
Q 538 1791 414 1992 
Q 291 2194 291 2438 
Q 291 2659 392 2848 
Q 494 3038 669 3163 
Q 800 3259 1026 3326 
Q 1253 3394 1513 3394 
Q 1903 3394 2198 3281 
Q 2494 3169 2634 2976 
Q 2775 2784 2828 2463 
L 2278 2388 
Q 2241 2644 2061 2787 
Q 1881 2931 1553 2931 
Q 1166 2931 1000 2803 
Q 834 2675 834 2503 
Q 834 2394 903 2306 
Q 972 2216 1119 2156 
Q 1203 2125 1616 2013 
Q 2213 1853 2448 1751 
Q 2684 1650 2818 1456 
Q 2953 1263 2953 975 
Q 2953 694 2789 445 
Q 2625 197 2315 61 
Q 2006 -75 1616 -75 
Q 969 -75 630 194 
Q 291 463 197 991 
z
" id="ArialMT-73" transform="scale(0.015625)"/>
      <path d="M 416 0 
L 416 3319 
L 922 3319 
L 922 2816 
Q 1116 3169 1280 3281 
Q 1444 3394 1641 3394 
Q 1925 3394 2219 3213 
L 2025 2691 
Q 1819 2813 1613 2813 
Q 1428 2813 1281 2702 
Q 1134 2591 1072 2394 
Q 978 2094 978 1738 
L 978 0 
L 416 0 
z
" id="ArialMT-72" transform="scale(0.015625)"/>
      <path d="M 2588 409 
Q 2275 144 1986 34 
Q 1697 -75 1366 -75 
Q 819 -75 525 192 
Q 231 459 231 875 
Q 231 1119 342 1320 
Q 453 1522 633 1644 
Q 813 1766 1038 1828 
Q 1203 1872 1538 1913 
Q 2219 1994 2541 2106 
Q 2544 2222 2544 2253 
Q 2544 2597 2384 2738 
Q 2169 2928 1744 2928 
Q 1347 2928 1158 2789 
Q 969 2650 878 2297 
L 328 2372 
Q 403 2725 575 2942 
Q 747 3159 1072 3276 
Q 1397 3394 1825 3394 
Q 2250 3394 2515 3294 
Q 2781 3194 2906 3042 
Q 3031 2891 3081 2659 
Q 3109 2516 3109 2141 
L 3109 1391 
Q 3109 606 3145 398 
Q 3181 191 3288 0 
L 2700 0 
Q 2613 175 2588 409 
z
M 2541 1666 
Q 2234 1541 1622 1453 
Q 1275 1403 1131 1340 
Q 988 1278 909 1158 
Q 831 1038 831 891 
Q 831 666 1001 516 
Q 1172 366 1500 366 
Q 1825 366 2078 508 
Q 2331 650 2450 897 
Q 2541 1088 2541 1459 
L 2541 1666 
z
" id="ArialMT-61" transform="scale(0.015625)"/>
      <path d="M 422 0 
L 422 3319 
L 925 3319 
L 925 2853 
Q 1081 3097 1340 3245 
Q 1600 3394 1931 3394 
Q 2300 3394 2536 3241 
Q 2772 3088 2869 2813 
Q 3263 3394 3894 3394 
Q 4388 3394 4653 3120 
Q 4919 2847 4919 2278 
L 4919 0 
L 4359 0 
L 4359 2091 
Q 4359 2428 4304 2576 
Q 4250 2725 4106 2815 
Q 3963 2906 3769 2906 
Q 3419 2906 3187 2673 
Q 2956 2441 2956 1928 
L 2956 0 
L 2394 0 
L 2394 2156 
Q 2394 2531 2256 2718 
Q 2119 2906 1806 2906 
Q 1569 2906 1367 2781 
Q 1166 2656 1075 2415 
Q 984 2175 984 1722 
L 984 0 
L 422 0 
z
" id="ArialMT-6d" transform="scale(0.015625)"/>
     </defs>
     <use xlink:href="#ArialMT-48"/>
     <use x="72.216797" xlink:href="#ArialMT-69"/>
     <use x="94.433594" xlink:href="#ArialMT-73"/>
     <use x="144.433594" xlink:href="#ArialMT-74"/>
     <use x="172.216797" xlink:href="#ArialMT-6f"/>
     <use x="227.832031" xlink:href="#ArialMT-67"/>
     <use x="283.447266" xlink:href="#ArialMT-72"/>
     <use x="316.748047" xlink:href="#ArialMT-61"/>
     <use x="372.363281" xlink:href="#ArialMT-6d"/>
    </g>
   </g>
   <g id="legend_1">
    <g id="patch_215">
     <path d="M 375.482812 58.08 
L 500.110937 58.08 
Q 502.110937 58.08 502.110937 56.08 
L 502.110937 28.789375 
Q 502.110937 26.789375 500.110937 26.789375 
L 375.482812 26.789375 
Q 373.482812 26.789375 373.482812 28.789375 
L 373.482812 56.08 
Q 373.482812 58.08 375.482812 58.08 
z
" style="fill:#ffffff;opacity:0.8;stroke:#cccccc;stroke-linejoin:miter;"/>
    </g>
    <g id="patch_216">
     <path d="M 377.482812 37.947188 
L 397.482812 37.947188 
L 397.482812 30.947188 
L 377.482812 30.947188 
z
" style="fill:#ff7f0e;fill-opacity:0.75;stroke:#ffffff;stroke-linejoin:miter;stroke-width:0.39021;"/>
    </g>
    <g id="text_16">
     <!-- Non-Description Text -->
     <g style="fill:#262626;" transform="translate(405.482812 37.947188)scale(0.1 -0.1)">
      <defs>
       <path d="M 488 0 
L 488 4581 
L 1109 4581 
L 3516 984 
L 3516 4581 
L 4097 4581 
L 4097 0 
L 3475 0 
L 1069 3600 
L 1069 0 
L 488 0 
z
" id="ArialMT-4e" transform="scale(0.015625)"/>
       <path d="M 203 1375 
L 203 1941 
L 1931 1941 
L 1931 1375 
L 203 1375 
z
" id="ArialMT-2d" transform="scale(0.015625)"/>
       <path d="M 494 0 
L 494 4581 
L 2072 4581 
Q 2606 4581 2888 4516 
Q 3281 4425 3559 4188 
Q 3922 3881 4101 3404 
Q 4281 2928 4281 2316 
Q 4281 1794 4159 1391 
Q 4038 988 3847 723 
Q 3656 459 3429 307 
Q 3203 156 2883 78 
Q 2563 0 2147 0 
L 494 0 
z
M 1100 541 
L 2078 541 
Q 2531 541 2789 625 
Q 3047 709 3200 863 
Q 3416 1078 3536 1442 
Q 3656 1806 3656 2325 
Q 3656 3044 3420 3430 
Q 3184 3816 2847 3947 
Q 2603 4041 2063 4041 
L 1100 4041 
L 1100 541 
z
" id="ArialMT-44" transform="scale(0.015625)"/>
       <path d="M 2588 1216 
L 3141 1144 
Q 3050 572 2676 248 
Q 2303 -75 1759 -75 
Q 1078 -75 664 370 
Q 250 816 250 1647 
Q 250 2184 428 2587 
Q 606 2991 970 3192 
Q 1334 3394 1763 3394 
Q 2303 3394 2647 3120 
Q 2991 2847 3088 2344 
L 2541 2259 
Q 2463 2594 2264 2762 
Q 2066 2931 1784 2931 
Q 1359 2931 1093 2626 
Q 828 2322 828 1663 
Q 828 994 1084 691 
Q 1341 388 1753 388 
Q 2084 388 2306 591 
Q 2528 794 2588 1216 
z
" id="ArialMT-63" transform="scale(0.015625)"/>
       <path d="M 422 -1272 
L 422 3319 
L 934 3319 
L 934 2888 
Q 1116 3141 1344 3267 
Q 1572 3394 1897 3394 
Q 2322 3394 2647 3175 
Q 2972 2956 3137 2557 
Q 3303 2159 3303 1684 
Q 3303 1175 3120 767 
Q 2938 359 2589 142 
Q 2241 -75 1856 -75 
Q 1575 -75 1351 44 
Q 1128 163 984 344 
L 984 -1272 
L 422 -1272 
z
M 931 1641 
Q 931 1000 1190 694 
Q 1450 388 1819 388 
Q 2194 388 2461 705 
Q 2728 1022 2728 1688 
Q 2728 2322 2467 2637 
Q 2206 2953 1844 2953 
Q 1484 2953 1207 2617 
Q 931 2281 931 1641 
z
" id="ArialMT-70" transform="scale(0.015625)"/>
      </defs>
      <use xlink:href="#ArialMT-4e"/>
      <use x="72.216797" xlink:href="#ArialMT-6f"/>
      <use x="127.832031" xlink:href="#ArialMT-6e"/>
      <use x="183.447266" xlink:href="#ArialMT-2d"/>
      <use x="216.748047" xlink:href="#ArialMT-44"/>
      <use x="288.964844" xlink:href="#ArialMT-65"/>
      <use x="344.580078" xlink:href="#ArialMT-73"/>
      <use x="394.580078" xlink:href="#ArialMT-63"/>
      <use x="444.580078" xlink:href="#ArialMT-72"/>
      <use x="477.880859" xlink:href="#ArialMT-69"/>
      <use x="500.097656" xlink:href="#ArialMT-70"/>
      <use x="555.712891" xlink:href="#ArialMT-74"/>
      <use x="583.496094" xlink:href="#ArialMT-69"/>
      <use x="605.712891" xlink:href="#ArialMT-6f"/>
      <use x="661.328125" xlink:href="#ArialMT-6e"/>
      <use x="716.943359" xlink:href="#ArialMT-20"/>
      <use x="742.976562" xlink:href="#ArialMT-54"/>
      <use x="792.935547" xlink:href="#ArialMT-65"/>
      <use x="848.550781" xlink:href="#ArialMT-78"/>
      <use x="898.550781" xlink:href="#ArialMT-74"/>
     </g>
    </g>
    <g id="patch_217">
     <path d="M 377.482812 52.0925 
L 397.482812 52.0925 
L 397.482812 45.0925 
L 377.482812 45.0925 
z
" style="fill:#1f77b4;fill-opacity:0.75;stroke:#ffffff;stroke-linejoin:miter;stroke-width:0.39021;"/>
    </g>
    <g id="text_17">
     <!-- Description Text -->
     <g style="fill:#262626;" transform="translate(405.482812 52.0925)scale(0.1 -0.1)">
      <use xlink:href="#ArialMT-44"/>
      <use x="72.216797" xlink:href="#ArialMT-65"/>
      <use x="127.832031" xlink:href="#ArialMT-73"/>
      <use x="177.832031" xlink:href="#ArialMT-63"/>
      <use x="227.832031" xlink:href="#ArialMT-72"/>
      <use x="261.132812" xlink:href="#ArialMT-69"/>
      <use x="283.349609" xlink:href="#ArialMT-70"/>
      <use x="338.964844" xlink:href="#ArialMT-74"/>
      <use x="366.748047" xlink:href="#ArialMT-69"/>
      <use x="388.964844" xlink:href="#ArialMT-6f"/>
      <use x="444.580078" xlink:href="#ArialMT-6e"/>
      <use x="500.195312" xlink:href="#ArialMT-20"/>
      <use x="526.228516" xlink:href="#ArialMT-54"/>
      <use x="576.1875" xlink:href="#ArialMT-65"/>
      <use x="631.802734" xlink:href="#ArialMT-78"/>
      <use x="681.802734" xlink:href="#ArialMT-74"/>
     </g>
    </g>
   </g>
  </g>
 </g>
 <defs>
  <clipPath id="p922f67cfcc">
   <rect height="217.44" width="446.4" x="60.710938" y="21.789375"/>
  </clipPath>
 </defs>
</svg>
