<?xml version="1.0" encoding="utf-8" standalone="no"?>
<!DOCTYPE svg PUBLIC "-//W3C//DTD SVG 1.1//EN"
  "http://www.w3.org/Graphics/SVG/1.1/DTD/svg11.dtd">
<svg height="331.674375pt" version="1.1" viewBox="0 0 335.197518 331.674375" width="335.197518pt" xmlns="http://www.w3.org/2000/svg" xmlns:xlink="http://www.w3.org/1999/xlink">
 <metadata>
  <rdf:RDF xmlns:cc="http://creativecommons.org/ns#" xmlns:dc="http://purl.org/dc/elements/1.1/" xmlns:rdf="http://www.w3.org/1999/02/22-rdf-syntax-ns#">
   <cc:Work>
    <dc:type rdf:resource="http://purl.org/dc/dcmitype/StillImage"/>
    <dc:date>2021-10-12T19:28:11.109698</dc:date>
    <dc:format>image/svg+xml</dc:format>
    <dc:creator>
     <cc:Agent>
      <dc:title>Matplotlib v3.4.2, https://matplotlib.org/</dc:title>
     </cc:Agent>
    </dc:creator>
   </cc:Work>
  </rdf:RDF>
 </metadata>
 <defs>
  <style type="text/css">*{stroke-linecap:butt;stroke-linejoin:round;}</style>
 </defs>
 <g id="figure_1">
  <g id="patch_1">
   <path d="M 0 331.674375 
L 335.197518 331.674375 
L 335.197518 0 
L 0 0 
z
" style="fill:none;"/>
  </g>
  <g id="axes_1">
   <g id="patch_2">
    <path d="M 43.78125 294.118125 
L 322.78125 294.118125 
L 322.78125 22.318125 
L 43.78125 22.318125 
z
" style="fill:#ffffff;"/>
   </g>
   <g id="matplotlib.axis_1">
    <g id="xtick_1">
     <g id="line2d_1">
      <defs>
       <path d="M 0 0 
L 0 3.5 
" id="ma18ba0d9cc" style="stroke:#000000;stroke-width:0.8;"/>
      </defs>
      <g>
       <use style="stroke:#000000;stroke-width:0.8;" x="46.516544" xlink:href="#ma18ba0d9cc" y="294.118125"/>
      </g>
     </g>
     <g id="text_1">
      <!-- 0.0 -->
      <g transform="translate(38.564982 308.716563)scale(0.1 -0.1)">
       <defs>
        <path d="M 2034 4250 
Q 1547 4250 1301 3770 
Q 1056 3291 1056 2328 
Q 1056 1369 1301 889 
Q 1547 409 2034 409 
Q 2525 409 2770 889 
Q 3016 1369 3016 2328 
Q 3016 3291 2770 3770 
Q 2525 4250 2034 4250 
z
M 2034 4750 
Q 2819 4750 3233 4129 
Q 3647 3509 3647 2328 
Q 3647 1150 3233 529 
Q 2819 -91 2034 -91 
Q 1250 -91 836 529 
Q 422 1150 422 2328 
Q 422 3509 836 4129 
Q 1250 4750 2034 4750 
z
" id="DejaVuSans-30" transform="scale(0.015625)"/>
        <path d="M 684 794 
L 1344 794 
L 1344 0 
L 684 0 
L 684 794 
z
" id="DejaVuSans-2e" transform="scale(0.015625)"/>
       </defs>
       <use xlink:href="#DejaVuSans-30"/>
       <use x="63.623047" xlink:href="#DejaVuSans-2e"/>
       <use x="95.410156" xlink:href="#DejaVuSans-30"/>
      </g>
     </g>
    </g>
    <g id="xtick_2">
     <g id="line2d_2">
      <g>
       <use style="stroke:#000000;stroke-width:0.8;" x="101.222426" xlink:href="#ma18ba0d9cc" y="294.118125"/>
      </g>
     </g>
     <g id="text_2">
      <!-- 0.2 -->
      <g transform="translate(93.270864 308.716563)scale(0.1 -0.1)">
       <defs>
        <path d="M 1228 531 
L 3431 531 
L 3431 0 
L 469 0 
L 469 531 
Q 828 903 1448 1529 
Q 2069 2156 2228 2338 
Q 2531 2678 2651 2914 
Q 2772 3150 2772 3378 
Q 2772 3750 2511 3984 
Q 2250 4219 1831 4219 
Q 1534 4219 1204 4116 
Q 875 4013 500 3803 
L 500 4441 
Q 881 4594 1212 4672 
Q 1544 4750 1819 4750 
Q 2544 4750 2975 4387 
Q 3406 4025 3406 3419 
Q 3406 3131 3298 2873 
Q 3191 2616 2906 2266 
Q 2828 2175 2409 1742 
Q 1991 1309 1228 531 
z
" id="DejaVuSans-32" transform="scale(0.015625)"/>
       </defs>
       <use xlink:href="#DejaVuSans-30"/>
       <use x="63.623047" xlink:href="#DejaVuSans-2e"/>
       <use x="95.410156" xlink:href="#DejaVuSans-32"/>
      </g>
     </g>
    </g>
    <g id="xtick_3">
     <g id="line2d_3">
      <g>
       <use style="stroke:#000000;stroke-width:0.8;" x="155.928309" xlink:href="#ma18ba0d9cc" y="294.118125"/>
      </g>
     </g>
     <g id="text_3">
      <!-- 0.4 -->
      <g transform="translate(147.976746 308.716563)scale(0.1 -0.1)">
       <defs>
        <path d="M 2419 4116 
L 825 1625 
L 2419 1625 
L 2419 4116 
z
M 2253 4666 
L 3047 4666 
L 3047 1625 
L 3713 1625 
L 3713 1100 
L 3047 1100 
L 3047 0 
L 2419 0 
L 2419 1100 
L 313 1100 
L 313 1709 
L 2253 4666 
z
" id="DejaVuSans-34" transform="scale(0.015625)"/>
       </defs>
       <use xlink:href="#DejaVuSans-30"/>
       <use x="63.623047" xlink:href="#DejaVuSans-2e"/>
       <use x="95.410156" xlink:href="#DejaVuSans-34"/>
      </g>
     </g>
    </g>
    <g id="xtick_4">
     <g id="line2d_4">
      <g>
       <use style="stroke:#000000;stroke-width:0.8;" x="210.634191" xlink:href="#ma18ba0d9cc" y="294.118125"/>
      </g>
     </g>
     <g id="text_4">
      <!-- 0.6 -->
      <g transform="translate(202.682629 308.716563)scale(0.1 -0.1)">
       <defs>
        <path d="M 2113 2584 
Q 1688 2584 1439 2293 
Q 1191 2003 1191 1497 
Q 1191 994 1439 701 
Q 1688 409 2113 409 
Q 2538 409 2786 701 
Q 3034 994 3034 1497 
Q 3034 2003 2786 2293 
Q 2538 2584 2113 2584 
z
M 3366 4563 
L 3366 3988 
Q 3128 4100 2886 4159 
Q 2644 4219 2406 4219 
Q 1781 4219 1451 3797 
Q 1122 3375 1075 2522 
Q 1259 2794 1537 2939 
Q 1816 3084 2150 3084 
Q 2853 3084 3261 2657 
Q 3669 2231 3669 1497 
Q 3669 778 3244 343 
Q 2819 -91 2113 -91 
Q 1303 -91 875 529 
Q 447 1150 447 2328 
Q 447 3434 972 4092 
Q 1497 4750 2381 4750 
Q 2619 4750 2861 4703 
Q 3103 4656 3366 4563 
z
" id="DejaVuSans-36" transform="scale(0.015625)"/>
       </defs>
       <use xlink:href="#DejaVuSans-30"/>
       <use x="63.623047" xlink:href="#DejaVuSans-2e"/>
       <use x="95.410156" xlink:href="#DejaVuSans-36"/>
      </g>
     </g>
    </g>
    <g id="xtick_5">
     <g id="line2d_5">
      <g>
       <use style="stroke:#000000;stroke-width:0.8;" x="265.340074" xlink:href="#ma18ba0d9cc" y="294.118125"/>
      </g>
     </g>
     <g id="text_5">
      <!-- 0.8 -->
      <g transform="translate(257.388511 308.716563)scale(0.1 -0.1)">
       <defs>
        <path d="M 2034 2216 
Q 1584 2216 1326 1975 
Q 1069 1734 1069 1313 
Q 1069 891 1326 650 
Q 1584 409 2034 409 
Q 2484 409 2743 651 
Q 3003 894 3003 1313 
Q 3003 1734 2745 1975 
Q 2488 2216 2034 2216 
z
M 1403 2484 
Q 997 2584 770 2862 
Q 544 3141 544 3541 
Q 544 4100 942 4425 
Q 1341 4750 2034 4750 
Q 2731 4750 3128 4425 
Q 3525 4100 3525 3541 
Q 3525 3141 3298 2862 
Q 3072 2584 2669 2484 
Q 3125 2378 3379 2068 
Q 3634 1759 3634 1313 
Q 3634 634 3220 271 
Q 2806 -91 2034 -91 
Q 1263 -91 848 271 
Q 434 634 434 1313 
Q 434 1759 690 2068 
Q 947 2378 1403 2484 
z
M 1172 3481 
Q 1172 3119 1398 2916 
Q 1625 2713 2034 2713 
Q 2441 2713 2670 2916 
Q 2900 3119 2900 3481 
Q 2900 3844 2670 4047 
Q 2441 4250 2034 4250 
Q 1625 4250 1398 4047 
Q 1172 3844 1172 3481 
z
" id="DejaVuSans-38" transform="scale(0.015625)"/>
       </defs>
       <use xlink:href="#DejaVuSans-30"/>
       <use x="63.623047" xlink:href="#DejaVuSans-2e"/>
       <use x="95.410156" xlink:href="#DejaVuSans-38"/>
      </g>
     </g>
    </g>
    <g id="xtick_6">
     <g id="line2d_6">
      <g>
       <use style="stroke:#000000;stroke-width:0.8;" x="320.045956" xlink:href="#ma18ba0d9cc" y="294.118125"/>
      </g>
     </g>
     <g id="text_6">
      <!-- 1.0 -->
      <g transform="translate(312.094393 308.716563)scale(0.1 -0.1)">
       <defs>
        <path d="M 794 531 
L 1825 531 
L 1825 4091 
L 703 3866 
L 703 4441 
L 1819 4666 
L 2450 4666 
L 2450 531 
L 3481 531 
L 3481 0 
L 794 0 
L 794 531 
z
" id="DejaVuSans-31" transform="scale(0.015625)"/>
       </defs>
       <use xlink:href="#DejaVuSans-31"/>
       <use x="63.623047" xlink:href="#DejaVuSans-2e"/>
       <use x="95.410156" xlink:href="#DejaVuSans-30"/>
      </g>
     </g>
    </g>
    <g id="text_7">
     <!-- Recall (Positive label: 1) -->
     <g transform="translate(123.464844 322.394687)scale(0.1 -0.1)">
      <defs>
       <path d="M 2841 2188 
Q 3044 2119 3236 1894 
Q 3428 1669 3622 1275 
L 4263 0 
L 3584 0 
L 2988 1197 
Q 2756 1666 2539 1819 
Q 2322 1972 1947 1972 
L 1259 1972 
L 1259 0 
L 628 0 
L 628 4666 
L 2053 4666 
Q 2853 4666 3247 4331 
Q 3641 3997 3641 3322 
Q 3641 2881 3436 2590 
Q 3231 2300 2841 2188 
z
M 1259 4147 
L 1259 2491 
L 2053 2491 
Q 2509 2491 2742 2702 
Q 2975 2913 2975 3322 
Q 2975 3731 2742 3939 
Q 2509 4147 2053 4147 
L 1259 4147 
z
" id="DejaVuSans-52" transform="scale(0.015625)"/>
       <path d="M 3597 1894 
L 3597 1613 
L 953 1613 
Q 991 1019 1311 708 
Q 1631 397 2203 397 
Q 2534 397 2845 478 
Q 3156 559 3463 722 
L 3463 178 
Q 3153 47 2828 -22 
Q 2503 -91 2169 -91 
Q 1331 -91 842 396 
Q 353 884 353 1716 
Q 353 2575 817 3079 
Q 1281 3584 2069 3584 
Q 2775 3584 3186 3129 
Q 3597 2675 3597 1894 
z
M 3022 2063 
Q 3016 2534 2758 2815 
Q 2500 3097 2075 3097 
Q 1594 3097 1305 2825 
Q 1016 2553 972 2059 
L 3022 2063 
z
" id="DejaVuSans-65" transform="scale(0.015625)"/>
       <path d="M 3122 3366 
L 3122 2828 
Q 2878 2963 2633 3030 
Q 2388 3097 2138 3097 
Q 1578 3097 1268 2742 
Q 959 2388 959 1747 
Q 959 1106 1268 751 
Q 1578 397 2138 397 
Q 2388 397 2633 464 
Q 2878 531 3122 666 
L 3122 134 
Q 2881 22 2623 -34 
Q 2366 -91 2075 -91 
Q 1284 -91 818 406 
Q 353 903 353 1747 
Q 353 2603 823 3093 
Q 1294 3584 2113 3584 
Q 2378 3584 2631 3529 
Q 2884 3475 3122 3366 
z
" id="DejaVuSans-63" transform="scale(0.015625)"/>
       <path d="M 2194 1759 
Q 1497 1759 1228 1600 
Q 959 1441 959 1056 
Q 959 750 1161 570 
Q 1363 391 1709 391 
Q 2188 391 2477 730 
Q 2766 1069 2766 1631 
L 2766 1759 
L 2194 1759 
z
M 3341 1997 
L 3341 0 
L 2766 0 
L 2766 531 
Q 2569 213 2275 61 
Q 1981 -91 1556 -91 
Q 1019 -91 701 211 
Q 384 513 384 1019 
Q 384 1609 779 1909 
Q 1175 2209 1959 2209 
L 2766 2209 
L 2766 2266 
Q 2766 2663 2505 2880 
Q 2244 3097 1772 3097 
Q 1472 3097 1187 3025 
Q 903 2953 641 2809 
L 641 3341 
Q 956 3463 1253 3523 
Q 1550 3584 1831 3584 
Q 2591 3584 2966 3190 
Q 3341 2797 3341 1997 
z
" id="DejaVuSans-61" transform="scale(0.015625)"/>
       <path d="M 603 4863 
L 1178 4863 
L 1178 0 
L 603 0 
L 603 4863 
z
" id="DejaVuSans-6c" transform="scale(0.015625)"/>
       <path id="DejaVuSans-20" transform="scale(0.015625)"/>
       <path d="M 1984 4856 
Q 1566 4138 1362 3434 
Q 1159 2731 1159 2009 
Q 1159 1288 1364 580 
Q 1569 -128 1984 -844 
L 1484 -844 
Q 1016 -109 783 600 
Q 550 1309 550 2009 
Q 550 2706 781 3412 
Q 1013 4119 1484 4856 
L 1984 4856 
z
" id="DejaVuSans-28" transform="scale(0.015625)"/>
       <path d="M 1259 4147 
L 1259 2394 
L 2053 2394 
Q 2494 2394 2734 2622 
Q 2975 2850 2975 3272 
Q 2975 3691 2734 3919 
Q 2494 4147 2053 4147 
L 1259 4147 
z
M 628 4666 
L 2053 4666 
Q 2838 4666 3239 4311 
Q 3641 3956 3641 3272 
Q 3641 2581 3239 2228 
Q 2838 1875 2053 1875 
L 1259 1875 
L 1259 0 
L 628 0 
L 628 4666 
z
" id="DejaVuSans-50" transform="scale(0.015625)"/>
       <path d="M 1959 3097 
Q 1497 3097 1228 2736 
Q 959 2375 959 1747 
Q 959 1119 1226 758 
Q 1494 397 1959 397 
Q 2419 397 2687 759 
Q 2956 1122 2956 1747 
Q 2956 2369 2687 2733 
Q 2419 3097 1959 3097 
z
M 1959 3584 
Q 2709 3584 3137 3096 
Q 3566 2609 3566 1747 
Q 3566 888 3137 398 
Q 2709 -91 1959 -91 
Q 1206 -91 779 398 
Q 353 888 353 1747 
Q 353 2609 779 3096 
Q 1206 3584 1959 3584 
z
" id="DejaVuSans-6f" transform="scale(0.015625)"/>
       <path d="M 2834 3397 
L 2834 2853 
Q 2591 2978 2328 3040 
Q 2066 3103 1784 3103 
Q 1356 3103 1142 2972 
Q 928 2841 928 2578 
Q 928 2378 1081 2264 
Q 1234 2150 1697 2047 
L 1894 2003 
Q 2506 1872 2764 1633 
Q 3022 1394 3022 966 
Q 3022 478 2636 193 
Q 2250 -91 1575 -91 
Q 1294 -91 989 -36 
Q 684 19 347 128 
L 347 722 
Q 666 556 975 473 
Q 1284 391 1588 391 
Q 1994 391 2212 530 
Q 2431 669 2431 922 
Q 2431 1156 2273 1281 
Q 2116 1406 1581 1522 
L 1381 1569 
Q 847 1681 609 1914 
Q 372 2147 372 2553 
Q 372 3047 722 3315 
Q 1072 3584 1716 3584 
Q 2034 3584 2315 3537 
Q 2597 3491 2834 3397 
z
" id="DejaVuSans-73" transform="scale(0.015625)"/>
       <path d="M 603 3500 
L 1178 3500 
L 1178 0 
L 603 0 
L 603 3500 
z
M 603 4863 
L 1178 4863 
L 1178 4134 
L 603 4134 
L 603 4863 
z
" id="DejaVuSans-69" transform="scale(0.015625)"/>
       <path d="M 1172 4494 
L 1172 3500 
L 2356 3500 
L 2356 3053 
L 1172 3053 
L 1172 1153 
Q 1172 725 1289 603 
Q 1406 481 1766 481 
L 2356 481 
L 2356 0 
L 1766 0 
Q 1100 0 847 248 
Q 594 497 594 1153 
L 594 3053 
L 172 3053 
L 172 3500 
L 594 3500 
L 594 4494 
L 1172 4494 
z
" id="DejaVuSans-74" transform="scale(0.015625)"/>
       <path d="M 191 3500 
L 800 3500 
L 1894 563 
L 2988 3500 
L 3597 3500 
L 2284 0 
L 1503 0 
L 191 3500 
z
" id="DejaVuSans-76" transform="scale(0.015625)"/>
       <path d="M 3116 1747 
Q 3116 2381 2855 2742 
Q 2594 3103 2138 3103 
Q 1681 3103 1420 2742 
Q 1159 2381 1159 1747 
Q 1159 1113 1420 752 
Q 1681 391 2138 391 
Q 2594 391 2855 752 
Q 3116 1113 3116 1747 
z
M 1159 2969 
Q 1341 3281 1617 3432 
Q 1894 3584 2278 3584 
Q 2916 3584 3314 3078 
Q 3713 2572 3713 1747 
Q 3713 922 3314 415 
Q 2916 -91 2278 -91 
Q 1894 -91 1617 61 
Q 1341 213 1159 525 
L 1159 0 
L 581 0 
L 581 4863 
L 1159 4863 
L 1159 2969 
z
" id="DejaVuSans-62" transform="scale(0.015625)"/>
       <path d="M 750 794 
L 1409 794 
L 1409 0 
L 750 0 
L 750 794 
z
M 750 3309 
L 1409 3309 
L 1409 2516 
L 750 2516 
L 750 3309 
z
" id="DejaVuSans-3a" transform="scale(0.015625)"/>
       <path d="M 513 4856 
L 1013 4856 
Q 1481 4119 1714 3412 
Q 1947 2706 1947 2009 
Q 1947 1309 1714 600 
Q 1481 -109 1013 -844 
L 513 -844 
Q 928 -128 1133 580 
Q 1338 1288 1338 2009 
Q 1338 2731 1133 3434 
Q 928 4138 513 4856 
z
" id="DejaVuSans-29" transform="scale(0.015625)"/>
      </defs>
      <use xlink:href="#DejaVuSans-52"/>
      <use x="64.982422" xlink:href="#DejaVuSans-65"/>
      <use x="126.505859" xlink:href="#DejaVuSans-63"/>
      <use x="181.486328" xlink:href="#DejaVuSans-61"/>
      <use x="242.765625" xlink:href="#DejaVuSans-6c"/>
      <use x="270.548828" xlink:href="#DejaVuSans-6c"/>
      <use x="298.332031" xlink:href="#DejaVuSans-20"/>
      <use x="330.119141" xlink:href="#DejaVuSans-28"/>
      <use x="369.132812" xlink:href="#DejaVuSans-50"/>
      <use x="425.810547" xlink:href="#DejaVuSans-6f"/>
      <use x="486.992188" xlink:href="#DejaVuSans-73"/>
      <use x="539.091797" xlink:href="#DejaVuSans-69"/>
      <use x="566.875" xlink:href="#DejaVuSans-74"/>
      <use x="606.083984" xlink:href="#DejaVuSans-69"/>
      <use x="633.867188" xlink:href="#DejaVuSans-76"/>
      <use x="693.046875" xlink:href="#DejaVuSans-65"/>
      <use x="754.570312" xlink:href="#DejaVuSans-20"/>
      <use x="786.357422" xlink:href="#DejaVuSans-6c"/>
      <use x="814.140625" xlink:href="#DejaVuSans-61"/>
      <use x="875.419922" xlink:href="#DejaVuSans-62"/>
      <use x="938.896484" xlink:href="#DejaVuSans-65"/>
      <use x="1000.419922" xlink:href="#DejaVuSans-6c"/>
      <use x="1028.203125" xlink:href="#DejaVuSans-3a"/>
      <use x="1061.894531" xlink:href="#DejaVuSans-20"/>
      <use x="1093.681641" xlink:href="#DejaVuSans-31"/>
      <use x="1157.304688" xlink:href="#DejaVuSans-29"/>
     </g>
    </g>
   </g>
   <g id="matplotlib.axis_2">
    <g id="ytick_1">
     <g id="line2d_7">
      <defs>
       <path d="M 0 0 
L -3.5 0 
" id="mec847820d8" style="stroke:#000000;stroke-width:0.8;"/>
      </defs>
      <g>
       <use style="stroke:#000000;stroke-width:0.8;" x="43.78125" xlink:href="#mec847820d8" y="291.453419"/>
      </g>
     </g>
     <g id="text_8">
      <!-- 0.0 -->
      <g transform="translate(20.878125 295.252638)scale(0.1 -0.1)">
       <use xlink:href="#DejaVuSans-30"/>
       <use x="63.623047" xlink:href="#DejaVuSans-2e"/>
       <use x="95.410156" xlink:href="#DejaVuSans-30"/>
      </g>
     </g>
    </g>
    <g id="ytick_2">
     <g id="line2d_8">
      <g>
       <use style="stroke:#000000;stroke-width:0.8;" x="43.78125" xlink:href="#mec847820d8" y="238.159301"/>
      </g>
     </g>
     <g id="text_9">
      <!-- 0.2 -->
      <g transform="translate(20.878125 241.95852)scale(0.1 -0.1)">
       <use xlink:href="#DejaVuSans-30"/>
       <use x="63.623047" xlink:href="#DejaVuSans-2e"/>
       <use x="95.410156" xlink:href="#DejaVuSans-32"/>
      </g>
     </g>
    </g>
    <g id="ytick_3">
     <g id="line2d_9">
      <g>
       <use style="stroke:#000000;stroke-width:0.8;" x="43.78125" xlink:href="#mec847820d8" y="184.865184"/>
      </g>
     </g>
     <g id="text_10">
      <!-- 0.4 -->
      <g transform="translate(20.878125 188.664403)scale(0.1 -0.1)">
       <use xlink:href="#DejaVuSans-30"/>
       <use x="63.623047" xlink:href="#DejaVuSans-2e"/>
       <use x="95.410156" xlink:href="#DejaVuSans-34"/>
      </g>
     </g>
    </g>
    <g id="ytick_4">
     <g id="line2d_10">
      <g>
       <use style="stroke:#000000;stroke-width:0.8;" x="43.78125" xlink:href="#mec847820d8" y="131.571066"/>
      </g>
     </g>
     <g id="text_11">
      <!-- 0.6 -->
      <g transform="translate(20.878125 135.370285)scale(0.1 -0.1)">
       <use xlink:href="#DejaVuSans-30"/>
       <use x="63.623047" xlink:href="#DejaVuSans-2e"/>
       <use x="95.410156" xlink:href="#DejaVuSans-36"/>
      </g>
     </g>
    </g>
    <g id="ytick_5">
     <g id="line2d_11">
      <g>
       <use style="stroke:#000000;stroke-width:0.8;" x="43.78125" xlink:href="#mec847820d8" y="78.276949"/>
      </g>
     </g>
     <g id="text_12">
      <!-- 0.8 -->
      <g transform="translate(20.878125 82.076167)scale(0.1 -0.1)">
       <use xlink:href="#DejaVuSans-30"/>
       <use x="63.623047" xlink:href="#DejaVuSans-2e"/>
       <use x="95.410156" xlink:href="#DejaVuSans-38"/>
      </g>
     </g>
    </g>
    <g id="ytick_6">
     <g id="line2d_12">
      <g>
       <use style="stroke:#000000;stroke-width:0.8;" x="43.78125" xlink:href="#mec847820d8" y="24.982831"/>
      </g>
     </g>
     <g id="text_13">
      <!-- 1.0 -->
      <g transform="translate(20.878125 28.78205)scale(0.1 -0.1)">
       <use xlink:href="#DejaVuSans-31"/>
       <use x="63.623047" xlink:href="#DejaVuSans-2e"/>
       <use x="95.410156" xlink:href="#DejaVuSans-30"/>
      </g>
     </g>
    </g>
    <g id="text_14">
     <!-- Precision (Positive label: 1) -->
     <g transform="translate(14.798438 225.424375)rotate(-90)scale(0.1 -0.1)">
      <defs>
       <path d="M 2631 2963 
Q 2534 3019 2420 3045 
Q 2306 3072 2169 3072 
Q 1681 3072 1420 2755 
Q 1159 2438 1159 1844 
L 1159 0 
L 581 0 
L 581 3500 
L 1159 3500 
L 1159 2956 
Q 1341 3275 1631 3429 
Q 1922 3584 2338 3584 
Q 2397 3584 2469 3576 
Q 2541 3569 2628 3553 
L 2631 2963 
z
" id="DejaVuSans-72" transform="scale(0.015625)"/>
       <path d="M 3513 2113 
L 3513 0 
L 2938 0 
L 2938 2094 
Q 2938 2591 2744 2837 
Q 2550 3084 2163 3084 
Q 1697 3084 1428 2787 
Q 1159 2491 1159 1978 
L 1159 0 
L 581 0 
L 581 3500 
L 1159 3500 
L 1159 2956 
Q 1366 3272 1645 3428 
Q 1925 3584 2291 3584 
Q 2894 3584 3203 3211 
Q 3513 2838 3513 2113 
z
" id="DejaVuSans-6e" transform="scale(0.015625)"/>
      </defs>
      <use xlink:href="#DejaVuSans-50"/>
      <use x="58.552734" xlink:href="#DejaVuSans-72"/>
      <use x="97.416016" xlink:href="#DejaVuSans-65"/>
      <use x="158.939453" xlink:href="#DejaVuSans-63"/>
      <use x="213.919922" xlink:href="#DejaVuSans-69"/>
      <use x="241.703125" xlink:href="#DejaVuSans-73"/>
      <use x="293.802734" xlink:href="#DejaVuSans-69"/>
      <use x="321.585938" xlink:href="#DejaVuSans-6f"/>
      <use x="382.767578" xlink:href="#DejaVuSans-6e"/>
      <use x="446.146484" xlink:href="#DejaVuSans-20"/>
      <use x="477.933594" xlink:href="#DejaVuSans-28"/>
      <use x="516.947266" xlink:href="#DejaVuSans-50"/>
      <use x="573.625" xlink:href="#DejaVuSans-6f"/>
      <use x="634.806641" xlink:href="#DejaVuSans-73"/>
      <use x="686.90625" xlink:href="#DejaVuSans-69"/>
      <use x="714.689453" xlink:href="#DejaVuSans-74"/>
      <use x="753.898438" xlink:href="#DejaVuSans-69"/>
      <use x="781.681641" xlink:href="#DejaVuSans-76"/>
      <use x="840.861328" xlink:href="#DejaVuSans-65"/>
      <use x="902.384766" xlink:href="#DejaVuSans-20"/>
      <use x="934.171875" xlink:href="#DejaVuSans-6c"/>
      <use x="961.955078" xlink:href="#DejaVuSans-61"/>
      <use x="1023.234375" xlink:href="#DejaVuSans-62"/>
      <use x="1086.710938" xlink:href="#DejaVuSans-65"/>
      <use x="1148.234375" xlink:href="#DejaVuSans-6c"/>
      <use x="1176.017578" xlink:href="#DejaVuSans-3a"/>
      <use x="1209.708984" xlink:href="#DejaVuSans-20"/>
      <use x="1241.496094" xlink:href="#DejaVuSans-31"/>
      <use x="1305.119141" xlink:href="#DejaVuSans-29"/>
     </g>
    </g>
   </g>
   <g id="line2d_13">
    <path clip-path="url(#pe240859af6)" d="M 46.516544 158.218125 
L 320.045956 158.218125 
" style="fill:none;stroke:#000080;stroke-dasharray:7.4,3.2;stroke-dashoffset:0;stroke-width:2;"/>
   </g>
   <g id="line2d_14">
    <path clip-path="url(#pe240859af6)" d="M 320.045956 154.548096 
L 319.952548 154.548096 
L 319.952548 154.442605 
L 319.85914 154.01465 
L 319.578916 154.01465 
L 319.578916 153.91313 
L 319.485509 152.59538 
L 319.454373 152.59538 
L 319.454373 152.487319 
L 319.423237 152.263031 
L 319.360965 152.269908 
L 319.329829 152.269908 
L 319.329829 152.169562 
L 319.267557 149.981761 
L 319.049605 149.89395 
L 319.049605 149.880305 
L 318.987333 149.697546 
L 318.738246 149.656821 
L 318.738246 149.594298 
L 318.644838 149.409449 
L 318.55143 149.32059 
L 318.55143 149.310826 
L 318.458022 148.486768 
L 318.426886 148.486768 
L 318.426886 148.380093 
L 318.333478 147.819915 
L 318.271206 147.8275 
L 318.271206 147.710818 
L 318.208934 147.342954 
L 318.177798 147.350538 
L 318.146662 147.350538 
L 318.146662 147.241917 
L 318.146662 146.964053 
L 318.053254 146.968838 
L 317.959847 146.876129 
L 317.959847 146.865718 
L 317.928711 146.539568 
L 317.804167 146.508057 
L 317.804167 146.434166 
L 317.710759 146.066372 
L 317.461671 145.991867 
L 317.461671 145.999457 
L 317.368263 145.481905 
L 317.274855 145.481905 
L 317.274855 145.375865 
L 317.181448 144.899653 
L 316.963496 144.796678 
L 316.963496 144.804269 
L 316.870088 143.948375 
L 316.838952 143.948375 
L 316.838952 143.852446 
L 316.77668 143.594012 
L 316.714408 143.594012 
L 316.714408 143.486196 
L 316.621 142.79539 
L 316.589864 142.79539 
L 316.589864 142.697731 
L 316.589864 142.496412 
L 316.403049 142.428612 
L 316.403049 142.388104 
L 316.309641 142.083019 
L 316.122825 142.082243 
L 316.122825 141.983391 
L 316.029417 140.913711 
L 315.967145 140.921278 
L 315.967145 140.820689 
L 315.873737 140.071947 
L 315.811465 140.029783 
L 315.811465 139.977631 
L 315.780329 139.545862 
L 315.62465 139.45581 
L 315.62465 139.443301 
L 315.562378 137.805191 
L 315.500106 137.805191 
L 315.500106 137.707382 
L 315.46897 137.323719 
L 315.344426 137.323719 
L 315.344426 137.219521 
L 315.251018 136.106736 
L 315.188746 136.106736 
L 315.188746 135.995728 
L 315.095338 135.00261 
L 315.033066 135.010098 
L 315.033066 134.90036 
L 315.00193 134.362021 
L 314.939658 134.376979 
L 314.877386 134.330738 
L 314.877386 134.273704 
L 314.815115 133.770611 
L 314.566027 133.671164 
L 314.566027 133.67864 
L 314.534891 133.17445 
L 314.379211 133.08755 
L 314.379211 133.080606 
L 314.348075 132.836022 
L 314.285803 132.839974 
L 314.254667 132.839974 
L 314.254667 132.748572 
L 314.161259 131.897751 
L 313.974444 131.890526 
L 313.974444 131.786681 
L 313.912172 131.455558 
L 313.818764 131.45926 
L 313.818764 131.354742 
L 313.725356 131.028965 
L 313.69422 131.028965 
L 313.69422 130.935054 
L 313.600812 130.119095 
L 313.569676 130.119095 
L 313.569676 130.126516 
L 313.476268 129.336139 
L 313.413996 129.336139 
L 313.413996 129.247349 
L 313.38286 128.630334 
L 313.351724 128.637724 
L 313.133773 128.531015 
L 313.133773 128.538408 
L 313.040365 128.035434 
L 312.915821 127.995972 
L 312.915821 127.924345 
L 312.822413 126.717392 
L 312.760141 126.724746 
L 312.760141 126.612936 
L 312.697869 126.388782 
L 312.604461 126.388782 
L 312.604461 126.27915 
L 312.604461 126.183251 
L 312.38651 126.183251 
L 312.38651 126.090603 
L 312.355374 125.652087 
L 312.261966 125.652087 
L 312.261966 125.541071 
L 312.168558 125.162675 
L 312.137422 125.162675 
L 312.137422 125.060461 
L 312.106286 124.358358 
L 312.012878 124.358358 
L 312.012878 124.257341 
L 311.950606 123.393808 
L 311.888334 123.393808 
L 311.888334 123.283939 
L 311.826062 122.924073 
L 311.76379 122.924073 
L 311.76379 122.825954 
L 311.670383 122.609407 
L 311.639247 122.609407 
L 311.639247 122.503526 
L 311.545839 121.104366 
L 311.452431 121.080413 
L 311.452431 121.010794 
L 311.421295 120.88979 
L 311.296751 120.84725 
L 311.296751 120.803078 
L 311.203343 119.985213 
L 311.172207 119.985213 
L 311.172207 119.875508 
L 311.078799 118.956041 
L 311.047663 118.956041 
L 311.047663 118.871157 
L 310.954255 118.258753 
L 310.798576 118.258753 
L 310.798576 118.148511 
L 310.736304 117.348906 
L 310.674032 117.348906 
L 310.674032 117.255818 
L 310.580624 116.223749 
L 310.487216 116.223749 
L 310.487216 116.136203 
L 310.393808 115.29599 
L 310.331536 115.234302 
L 310.331536 115.213836 
L 310.238128 115.000766 
L 310.175856 114.980209 
L 310.175856 114.890591 
L 310.14472 114.537676 
L 310.020177 114.517116 
L 310.020177 114.426919 
L 309.957905 114.399261 
L 309.926769 114.406284 
L 309.833361 114.322939 
L 309.833361 114.302113 
L 309.802225 113.80636 
L 309.708817 113.80636 
L 309.708817 113.715245 
L 309.646545 113.335651 
L 309.584273 113.335651 
L 309.584273 113.265053 
L 309.490865 112.506883 
L 309.335186 112.463548 
L 309.335186 112.399269 
L 309.241778 111.97714 
L 309.023826 111.87634 
L 308.961554 111.117764 
L 308.930418 111.12468 
L 308.83701 111.080574 
L 308.83701 111.02951 
L 308.743602 110.161288 
L 308.650194 110.160404 
L 308.650194 110.094011 
L 308.619058 109.71888 
L 308.463379 109.643208 
L 308.463379 109.635328 
L 308.369971 108.677329 
L 308.338835 108.677329 
L 308.338835 108.594665 
L 308.276563 107.330937 
L 308.152019 107.245241 
L 308.152019 107.221697 
L 308.152019 107.085173 
L 308.120883 107.091933 
L 308.027475 107.091933 
L 308.027475 107.036274 
L 307.996339 106.769091 
L 307.809523 106.680811 
L 307.809523 106.687561 
L 307.778388 106.373152 
L 307.591572 106.314865 
L 307.591572 106.275574 
L 307.498164 105.69523 
L 307.404756 105.593732 
L 307.404756 105.591681 
L 307.311348 105.317346 
L 307.249076 105.317346 
L 307.249076 105.206469 
L 307.155668 104.71208 
L 306.999988 104.676221 
L 306.999988 104.604627 
L 306.906581 103.901363 
L 306.844309 103.829046 
L 306.844309 103.804081 
L 306.750901 103.443865 
L 306.719765 103.443865 
L 306.719765 103.355209 
L 306.657493 103.034177 
L 306.626357 103.040783 
L 306.595221 103.040783 
L 306.595221 102.93569 
L 306.501813 102.891605 
L 306.470677 102.891605 
L 306.470677 102.786277 
L 306.408405 102.494962 
L 306.377269 102.501547 
L 306.190454 102.399358 
L 306.190454 102.396447 
L 306.128182 101.585724 
L 305.723414 101.495317 
L 305.723414 101.492155 
L 305.630006 101.251152 
L 305.567734 101.257694 
L 305.567734 101.182625 
L 305.505462 100.835742 
L 305.474326 100.842266 
L 305.412055 100.848791 
L 305.412055 100.756893 
L 305.380919 100.36868 
L 305.007287 100.308253 
L 305.007287 100.281727 
L 304.913879 98.263989 
L 304.664791 98.270391 
L 304.664791 98.180071 
L 304.571384 95.646323 
L 304.477976 95.646323 
L 304.477976 95.543505 
L 304.384568 95.039267 
L 304.322296 95.045503 
L 304.322296 94.964286 
L 304.260024 94.221344 
L 304.042072 94.217025 
L 304.042072 94.211766 
L 303.948664 93.681532 
L 303.855256 93.622821 
L 303.855256 93.575664 
L 303.761849 93.130745 
L 303.543897 93.024523 
L 303.543897 93.03066 
L 303.481625 92.845836 
L 303.325945 92.768364 
L 303.325945 92.750823 
L 303.325945 92.462979 
L 303.139129 92.367308 
L 303.139129 92.373417 
L 303.107993 92.235047 
L 302.796634 92.157037 
L 302.703226 92.079044 
L 302.640954 91.976301 
L 302.640954 91.982397 
L 302.547546 91.837163 
L 302.423002 91.764456 
L 302.423002 91.752337 
L 302.391866 91.576156 
L 302.111643 91.576156 
L 302.111643 91.466487 
L 302.080507 90.959278 
L 302.049371 90.965326 
L 301.924827 90.873118 
L 301.924827 90.879164 
L 301.831419 90.436048 
L 301.738011 90.331045 
L 301.644603 89.822613 
L 301.551195 89.791353 
L 301.551195 89.747423 
L 301.488924 89.179814 
L 301.115292 89.108885 
L 301.021884 87.718447 
L 300.74166 87.718447 
L 300.679389 86.902036 
L 300.585981 86.894443 
L 300.585981 86.842522 
L 300.492573 85.892554 
L 300.399165 85.806817 
L 300.399165 85.812573 
L 300.305757 85.732472 
L 300.056669 85.64424 
L 300.056669 85.622457 
L 300.056669 85.5834 
L 300.025533 85.58915 
L 299.90099 85.567325 
L 299.90099 85.514421 
L 299.807582 85.061128 
L 299.74531 85.047195 
L 299.74531 84.954582 
L 299.683038 84.788754 
L 299.58963 84.788754 
L 299.58963 84.687506 
L 299.496222 84.289174 
L 299.465086 84.289174 
L 299.465086 84.195683 
L 299.371678 83.45576 
L 299.309406 83.45576 
L 299.309406 83.36698 
L 299.247134 83.278081 
L 299.091455 83.174607 
L 299.091455 83.045261 
L 298.811231 83.045261 
L 298.748959 82.845163 
L 298.686687 82.845163 
L 298.686687 82.755489 
L 298.593279 82.043025 
L 298.468735 81.993097 
L 298.468735 81.963474 
L 298.468735 81.576059 
L 298.313056 81.576059 
L 298.313056 81.521841 
L 298.313056 81.235133 
L 298.032832 81.235133 
L 298.001696 80.528003 
L 297.846016 80.528003 
L 297.846016 80.431091 
L 297.752608 80.177879 
L 297.565793 80.121906 
L 297.565793 80.12733 
L 297.472385 79.098966 
L 297.223297 78.999634 
L 297.161025 78.794726 
L 297.036481 78.768553 
L 297.036481 78.689466 
L 297.036481 78.478118 
L 296.880801 78.478118 
L 296.880801 78.377643 
L 296.787393 78.223893 
L 296.756258 78.223893 
L 296.756258 78.122996 
L 296.693986 77.792988 
L 296.66285 77.798259 
L 296.569442 77.782204 
L 296.569442 77.771413 
L 296.476034 77.037675 
L 296.444898 77.037675 
L 296.444898 76.956888 
L 296.413762 76.358082 
L 296.133538 76.318986 
L 296.133538 76.252985 
L 296.071266 76.133148 
L 295.977859 76.133148 
L 295.977859 76.061737 
L 295.915587 75.985076 
L 295.853315 75.985076 
L 295.853315 75.908321 
L 295.759907 75.727584 
L 295.666499 75.628693 
L 295.666499 75.633819 
L 295.604227 74.766622 
L 295.355139 74.691826 
L 295.355139 74.696886 
L 295.324003 74.414741 
L 295.292867 74.41978 
L 295.168324 74.41978 
L 295.168324 74.329236 
L 295.074916 73.788965 
L 294.856964 73.68517 
L 294.856964 73.69016 
L 294.763556 73.45937 
L 294.389925 73.397177 
L 294.389925 73.384715 
L 294.296517 73.062797 
L 294.234245 73.062797 
L 294.234245 72.982685 
L 294.171973 72.902475 
L 294.140837 72.907416 
L 294.016293 72.809475 
L 294.016293 72.814411 
L 293.922885 72.625877 
L 293.58039 72.607244 
L 293.58039 72.521537 
L 293.518118 72.395266 
L 292.988806 72.298229 
L 292.95767 71.936901 
L 292.770855 71.847006 
L 292.770855 71.851889 
L 292.677447 71.706212 
L 292.615175 71.642295 
L 292.615175 71.601276 
L 292.552903 71.427234 
L 292.366087 71.326754 
L 292.303815 71.235787 
L 292.241543 71.235787 
L 292.241543 71.130121 
L 292.241543 70.760179 
L 292.085863 70.663503 
L 292.085863 70.668302 
L 291.992456 70.241024 
L 291.930184 70.24579 
L 291.930184 70.157331 
L 291.867912 69.769695 
L 291.774504 69.755743 
L 291.774504 69.666773 
L 291.743368 69.554249 
L 291.712232 69.558962 
L 291.587688 69.450991 
L 291.525416 69.23457 
L 291.49428 69.23926 
L 291.400872 69.154379 
L 291.400872 69.159064 
L 291.307464 67.987631 
L 291.151785 67.886701 
L 291.151785 67.891282 
L 291.120649 67.609007 
L 291.058377 67.618125 
L 290.964969 67.507464 
L 290.964969 67.512016 
L 290.871561 66.514065 
L 290.684745 66.463773 
L 290.684745 66.444013 
L 290.653609 66.303001 
L 290.622473 66.307454 
L 290.529065 66.267816 
L 290.529065 66.199401 
L 290.466794 65.452439 
L 290.435658 65.45682 
L 290.373386 65.412254 
L 290.373386 65.367659 
L 290.34225 65.274016 
L 290.217706 65.238067 
L 290.217706 65.168804 
L 290.155434 64.931708 
L 290.062026 64.915774 
L 290.062026 64.821589 
L 289.999754 64.632912 
L 289.594987 64.532064 
L 289.563851 64.222765 
L 289.283627 64.132814 
L 289.283627 64.137098 
L 289.221355 63.971409 
L 289.159083 63.971409 
L 289.159083 63.905173 
L 289.065675 63.693283 
L 288.87886 63.639502 
L 288.87886 63.618725 
L 288.785452 63.531286 
L 288.692044 63.439482 
L 288.692044 63.443712 
L 288.629772 63.1004 
L 288.318412 63.003849 
L 288.225004 62.675364 
L 288.162732 62.675364 
L 288.162732 62.607758 
L 288.069325 61.730247 
L 287.944781 61.661793 
L 287.944781 61.644394 
L 287.851373 61.503126 
L 287.820237 61.503126 
L 287.820237 61.507193 
L 287.820237 61.379103 
L 287.789101 61.383159 
L 287.664557 61.369685 
L 287.664557 61.322431 
L 287.602285 61.073588 
L 287.446605 61.073588 
L 287.446605 60.99076 
L 287.415469 60.762702 
L 287.384333 60.766706 
L 287.25979 60.69723 
L 287.197518 60.091221 
L 287.166382 60.095165 
L 287.041838 60.002968 
L 287.041838 60.006905 
L 286.94843 59.836368 
L 286.917294 59.836368 
L 286.917294 59.73595 
L 286.823886 59.224422 
L 286.574798 59.168896 
L 286.574798 59.150362 
L 286.481391 58.819887 
L 286.325711 58.748457 
L 286.263439 58.609169 
L 286.170031 58.53749 
L 286.170031 58.5413 
L 286.076623 58.075536 
L 285.858671 58.094381 
L 285.858671 57.995542 
L 285.827535 57.786227 
L 285.702992 57.786227 
L 285.702992 57.721168 
L 285.64072 57.514905 
L 285.48504 57.47627 
L 285.48504 57.426441 
L 285.391632 57.061955 
L 285.111408 57.049786 
L 285.111408 56.987451 
L 285.049136 56.725217 
L 285.018 56.728867 
L 284.955729 56.624489 
L 284.955729 56.62813 
L 284.862321 56.314243 
L 284.706641 56.240107 
L 284.706641 56.223786 
L 284.644369 55.904753 
L 284.519825 55.861 
L 284.519825 55.810062 
L 284.519825 55.619081 
L 284.364145 55.619081 
L 284.364145 55.527501 
L 284.364145 55.44544 
L 284.239601 55.44544 
L 284.239601 55.377422 
L 284.17733 55.055232 
L 284.146194 55.058728 
L 284.115058 55.058728 
L 284.115058 54.952249 
L 284.02165 54.078942 
L 283.86597 54.009314 
L 283.86597 54.012707 
L 283.772562 53.270911 
L 283.679154 53.165716 
L 283.679154 53.169025 
L 283.679154 53.113063 
L 283.430066 53.024121 
L 283.430066 53.027419 
L 283.336659 52.615887 
L 283.274387 52.619144 
L 283.274387 52.566087 
L 283.180979 52.124228 
L 283.025299 52.023844 
L 283.025299 52.027042 
L 282.994163 51.803435 
L 282.931891 51.809788 
L 282.745075 51.708867 
L 282.651667 50.925814 
L 282.2469 50.829716 
L 282.153492 50.400417 
L 282.09122 50.403456 
L 282.09122 50.406495 
L 281.997812 50.098083 
L 281.842133 50.081199 
L 281.842133 49.997394 
L 281.748725 49.134534 
L 281.624181 49.026497 
L 281.624181 49.029394 
L 281.593045 48.886149 
L 281.468501 48.836272 
L 281.468501 48.83915 
L 281.375093 48.642638 
L 281.281685 48.642638 
L 281.281685 48.592518 
L 281.250549 48.477879 
L 281.032598 48.477879 
L 280.93919 48.182283 
L 280.876918 48.185097 
L 280.876918 48.128887 
L 280.814646 47.927651 
L 280.78351 47.930438 
L 280.752374 47.930438 
L 280.752374 47.874047 
L 280.658966 47.704627 
L 280.254199 47.619028 
L 280.254199 47.621787 
L 280.191927 47.270053 
L 280.067383 47.21584 
L 280.005111 46.897925 
L 279.973975 46.900608 
L 279.693751 46.832178 
L 279.693751 46.834856 
L 279.600343 46.301788 
L 279.538071 46.304408 
L 279.538071 46.246745 
L 279.444664 46.013076 
L 279.382392 45.924964 
L 279.382392 45.927544 
L 279.382392 45.867032 
L 279.351256 45.869606 
L 279.257848 45.869606 
L 279.257848 45.816763 
L 279.226712 45.728413 
L 279.16444 45.733533 
L 279.133304 45.733533 
L 279.133304 45.645077 
L 279.039896 45.470434 
L 278.884216 45.478034 
L 278.884216 45.391801 
L 278.790808 44.788748 
L 278.697401 44.701787 
L 278.697401 44.704235 
L 278.635129 44.617157 
L 278.603993 44.619597 
L 278.541721 44.622038 
L 278.541721 44.532402 
L 278.510585 44.196588 
L 278.448313 44.201375 
L 278.261497 44.203769 
L 278.261497 44.123255 
L 278.261497 43.876264 
L 278.199225 43.880982 
L 278.043545 43.859495 
L 278.043545 43.861854 
L 278.043545 43.769007 
L 278.012409 43.771356 
L 277.70105 43.666132 
L 277.70105 43.670812 
L 277.607642 43.491445 
L 277.54537 43.491445 
L 277.54537 43.43388 
L 277.451962 43.285118 
L 277.38969 43.193886 
L 277.38969 43.196174 
L 277.296282 43.046929 
L 277.265146 43.046929 
L 277.265146 43.049202 
L 277.265146 42.861585 
L 277.171738 42.868339 
L 277.109467 42.870592 
L 277.109467 42.810207 
L 277.078331 42.592944 
L 276.891515 42.509807 
L 276.891515 42.51202 
L 276.891515 42.417688 
L 276.798107 42.424297 
L 276.735835 42.332054 
L 276.735835 42.334247 
L 276.704699 41.609785 
L 276.642427 41.614003 
L 276.549019 41.616113 
L 276.549019 41.525184 
L 276.549019 41.334666 
L 276.486747 41.338822 
L 276.299932 41.253774 
L 276.299932 41.255844 
L 276.23766 40.877329 
L 276.206524 40.879355 
L 275.9263 40.853481 
L 275.832892 40.390878 
L 275.708348 40.300369 
L 275.708348 40.302331 
L 275.61494 40.082831 
L 275.583804 40.082831 
L 275.583804 40.020289 
L 275.521533 39.636488 
L 275.490397 39.638371 
L 275.428125 39.575513 
L 275.428125 39.577389 
L 275.365853 39.386646 
L 275.334717 39.3885 
L 275.241309 39.359753 
L 275.241309 39.296657 
L 275.147901 39.172149 
L 275.085629 39.172149 
L 275.085629 39.078166 
L 274.992221 38.953267 
L 274.898813 38.858997 
L 274.898813 38.86079 
L 274.805405 38.735484 
L 274.649726 38.675404 
L 274.649726 38.67895 
L 274.556318 38.257961 
L 274.400638 38.162799 
L 274.338366 37.742906 
L 274.30723 37.744566 
L 274.213822 37.747889 
L 274.213822 37.650422 
L 274.213822 37.451932 
L 274.120414 37.456809 
L 273.964735 37.428554 
L 273.964735 37.398649 
L 273.902463 37.269158 
L 273.871327 37.270763 
L 273.684511 37.212326 
L 273.684511 37.213925 
L 273.591103 36.952371 
L 273.217472 36.957076 
L 273.217472 36.670444 
L 273.124064 36.675051 
L 273.092928 36.675051 
L 273.092928 36.576123 
L 273.030656 36.310812 
L 272.99952 36.312303 
L 272.84384 36.251051 
L 272.84384 36.252536 
L 272.84384 36.084308 
L 272.750432 36.088701 
L 272.719296 36.088701 
L 272.719296 35.989072 
L 272.719296 35.955356 
L 272.68816 35.956804 
L 272.563616 35.893659 
L 272.563616 35.861337 
L 272.470208 35.79807 
L 272.376801 35.800931 
L 272.376801 35.700886 
L 272.314529 35.568262 
L 272.283393 35.569664 
L 272.221121 35.469351 
L 272.221121 35.47074 
L 272.158849 35.235779 
L 272.127713 35.23714 
L 272.003169 35.173181 
L 272.003169 35.174535 
L 272.003169 34.970166 
L 271.972033 34.971493 
L 271.691809 34.971493 
L 271.598402 34.645543 
L 271.473858 34.612585 
L 271.473858 34.616439 
L 271.411586 34.481849 
L 271.38045 34.483118 
L 271.193634 34.419515 
L 271.193634 34.387675 
L 271.193634 34.353303 
L 271.100226 34.357064 
L 270.944546 34.359572 
L 270.944546 34.294496 
L 270.91341 34.054474 
L 270.882274 34.05569 
L 270.820003 34.05569 
L 270.820003 33.954544 
L 270.757731 33.54169 
L 270.633187 33.509316 
L 270.633187 33.476917 
L 270.633187 33.407503 
L 270.570915 33.40977 
L 270.477507 33.3773 
L 270.477507 33.308915 
L 270.415235 33.17198 
L 270.384099 33.173084 
L 270.228419 33.107811 
L 270.228419 33.108907 
L 270.166147 32.901719 
L 270.135011 32.902789 
L 270.041604 32.903859 
L 270.041604 32.871052 
L 270.010468 32.662202 
L 269.979332 32.663242 
L 269.854788 32.666361 
L 269.854788 32.632359 
L 269.76138 31.932349 
L 269.6057 31.865568 
L 269.6057 31.866503 
L 269.6057 31.654567 
L 269.512292 31.657292 
L 269.387748 31.660018 
L 269.387748 31.554731 
L 269.387748 31.342077 
L 269.356612 31.342944 
L 269.107525 31.276266 
L 269.014117 30.961104 
L 268.733893 30.86059 
L 268.733893 30.861396 
L 268.640485 30.613521 
L 268.266854 30.514458 
L 268.266854 30.515219 
L 268.173446 30.445698 
L 267.893222 30.343082 
L 267.893222 30.30857 
L 267.83095 30.310038 
L 267.612999 30.27841 
L 267.612999 30.279141 
L 267.612999 30.170949 
L 267.519591 30.173099 
L 267.395047 30.103015 
L 267.395047 30.103723 
L 267.332775 29.706963 
L 267.301639 29.707618 
L 266.928008 29.711548 
L 266.896872 29.534405 
L 266.865736 29.535037 
L 266.803464 29.535037 
L 266.803464 29.499909 
L 266.803464 29.281341 
L 266.772328 29.281939 
L 266.616648 29.281939 
L 266.554376 29.10351 
L 266.52324 29.104084 
L 266.336424 28.996054 
L 266.274152 28.77892 
L 266.243016 28.779451 
L 265.962793 28.67294 
L 265.962793 28.637199 
L 265.869385 28.638734 
L 265.807113 28.639246 
L 265.807113 28.529301 
L 265.744841 28.456585 
L 265.713705 28.457072 
L 265.464617 28.45756 
L 265.371209 28.166694 
L 265.277802 28.166694 
L 265.277802 28.093966 
L 265.246666 27.946116 
L 265.21553 27.946533 
L 264.997578 27.837202 
L 264.997578 27.838007 
L 264.90417 27.429587 
L 264.623946 27.357657 
L 264.623946 27.320623 
L 264.561675 26.984382 
L 264.530539 26.984665 
L 264.437131 26.984949 
L 264.437131 26.91049 
L 264.437131 26.797871 
L 264.343723 26.798644 
L 264.281451 26.76132 
L 264.281451 26.761572 
L 264.281451 26.686365 
L 264.188043 26.687091 
L 264.063499 26.687818 
L 264.063499 26.688061 
L 264.063499 26.575058 
L 263.970091 26.575738 
L 263.783276 26.538919 
L 263.783276 26.539362 
L 263.75214 26.237257 
L 263.689868 26.237615 
L 263.503052 26.162746 
L 263.503052 26.162915 
L 263.44078 25.669512 
L 263.409644 25.669611 
L 263.316236 25.669709 
L 263.316236 25.55564 
L 263.222828 25.555886 
L 262.786925 25.480549 
L 262.786925 25.48062 
L 262.693517 25.327801 
L 262.506701 25.289692 
L 262.506701 25.25145 
L 262.506701 25.136394 
L 262.475565 25.136416 
L 262.070798 25.059757 
L 262.070798 24.982831 
L 262.008526 24.982831 
L 46.516544 24.982831 
L 46.516544 24.982831 
" style="fill:none;stroke:#1f77b4;stroke-linecap:square;stroke-width:1.5;"/>
   </g>
   <g id="patch_3">
    <path d="M 43.78125 294.118125 
L 43.78125 22.318125 
" style="fill:none;stroke:#000000;stroke-linecap:square;stroke-linejoin:miter;stroke-width:0.8;"/>
   </g>
   <g id="patch_4">
    <path d="M 322.78125 294.118125 
L 322.78125 22.318125 
" style="fill:none;stroke:#000000;stroke-linecap:square;stroke-linejoin:miter;stroke-width:0.8;"/>
   </g>
   <g id="patch_5">
    <path d="M 43.78125 294.118125 
L 322.78125 294.118125 
" style="fill:none;stroke:#000000;stroke-linecap:square;stroke-linejoin:miter;stroke-width:0.8;"/>
   </g>
   <g id="patch_6">
    <path d="M 43.78125 22.318125 
L 322.78125 22.318125 
" style="fill:none;stroke:#000000;stroke-linecap:square;stroke-linejoin:miter;stroke-width:0.8;"/>
   </g>
   <g id="text_15">
    <!-- 2-class Precision-Recall Curve -->
    <g transform="translate(94.055625 16.318125)scale(0.12 -0.12)">
     <defs>
      <path d="M 313 2009 
L 1997 2009 
L 1997 1497 
L 313 1497 
L 313 2009 
z
" id="DejaVuSans-2d" transform="scale(0.015625)"/>
      <path d="M 4122 4306 
L 4122 3641 
Q 3803 3938 3442 4084 
Q 3081 4231 2675 4231 
Q 1875 4231 1450 3742 
Q 1025 3253 1025 2328 
Q 1025 1406 1450 917 
Q 1875 428 2675 428 
Q 3081 428 3442 575 
Q 3803 722 4122 1019 
L 4122 359 
Q 3791 134 3420 21 
Q 3050 -91 2638 -91 
Q 1578 -91 968 557 
Q 359 1206 359 2328 
Q 359 3453 968 4101 
Q 1578 4750 2638 4750 
Q 3056 4750 3426 4639 
Q 3797 4528 4122 4306 
z
" id="DejaVuSans-43" transform="scale(0.015625)"/>
      <path d="M 544 1381 
L 544 3500 
L 1119 3500 
L 1119 1403 
Q 1119 906 1312 657 
Q 1506 409 1894 409 
Q 2359 409 2629 706 
Q 2900 1003 2900 1516 
L 2900 3500 
L 3475 3500 
L 3475 0 
L 2900 0 
L 2900 538 
Q 2691 219 2414 64 
Q 2138 -91 1772 -91 
Q 1169 -91 856 284 
Q 544 659 544 1381 
z
M 1991 3584 
L 1991 3584 
z
" id="DejaVuSans-75" transform="scale(0.015625)"/>
     </defs>
     <use xlink:href="#DejaVuSans-32"/>
     <use x="63.623047" xlink:href="#DejaVuSans-2d"/>
     <use x="99.707031" xlink:href="#DejaVuSans-63"/>
     <use x="154.6875" xlink:href="#DejaVuSans-6c"/>
     <use x="182.470703" xlink:href="#DejaVuSans-61"/>
     <use x="243.75" xlink:href="#DejaVuSans-73"/>
     <use x="295.849609" xlink:href="#DejaVuSans-73"/>
     <use x="347.949219" xlink:href="#DejaVuSans-20"/>
     <use x="379.736328" xlink:href="#DejaVuSans-50"/>
     <use x="438.289062" xlink:href="#DejaVuSans-72"/>
     <use x="477.152344" xlink:href="#DejaVuSans-65"/>
     <use x="538.675781" xlink:href="#DejaVuSans-63"/>
     <use x="593.65625" xlink:href="#DejaVuSans-69"/>
     <use x="621.439453" xlink:href="#DejaVuSans-73"/>
     <use x="673.539062" xlink:href="#DejaVuSans-69"/>
     <use x="701.322266" xlink:href="#DejaVuSans-6f"/>
     <use x="762.503906" xlink:href="#DejaVuSans-6e"/>
     <use x="825.882812" xlink:href="#DejaVuSans-2d"/>
     <use x="861.966797" xlink:href="#DejaVuSans-52"/>
     <use x="926.949219" xlink:href="#DejaVuSans-65"/>
     <use x="988.472656" xlink:href="#DejaVuSans-63"/>
     <use x="1043.453125" xlink:href="#DejaVuSans-61"/>
     <use x="1104.732422" xlink:href="#DejaVuSans-6c"/>
     <use x="1132.515625" xlink:href="#DejaVuSans-6c"/>
     <use x="1160.298828" xlink:href="#DejaVuSans-20"/>
     <use x="1192.085938" xlink:href="#DejaVuSans-43"/>
     <use x="1261.910156" xlink:href="#DejaVuSans-75"/>
     <use x="1325.289062" xlink:href="#DejaVuSans-72"/>
     <use x="1366.402344" xlink:href="#DejaVuSans-76"/>
     <use x="1425.582031" xlink:href="#DejaVuSans-65"/>
    </g>
   </g>
   <g id="legend_1">
    <g id="patch_7">
     <path d="M 50.78125 289.118125 
L 272.817188 289.118125 
Q 274.817188 289.118125 274.817188 287.118125 
L 274.817188 273.44 
Q 274.817188 271.44 272.817188 271.44 
L 50.78125 271.44 
Q 48.78125 271.44 48.78125 273.44 
L 48.78125 287.118125 
Q 48.78125 289.118125 50.78125 289.118125 
z
" style="fill:#ffffff;opacity:0.8;stroke:#cccccc;stroke-linejoin:miter;"/>
    </g>
    <g id="line2d_15">
     <path d="M 52.78125 279.538437 
L 72.78125 279.538437 
" style="fill:none;stroke:#1f77b4;stroke-linecap:square;stroke-width:1.5;"/>
    </g>
    <g id="line2d_16"/>
    <g id="text_16">
     <!-- Description Text Classifier (AP = 0.96) -->
     <g transform="translate(80.78125 283.038437)scale(0.1 -0.1)">
      <defs>
       <path d="M 1259 4147 
L 1259 519 
L 2022 519 
Q 2988 519 3436 956 
Q 3884 1394 3884 2338 
Q 3884 3275 3436 3711 
Q 2988 4147 2022 4147 
L 1259 4147 
z
M 628 4666 
L 1925 4666 
Q 3281 4666 3915 4102 
Q 4550 3538 4550 2338 
Q 4550 1131 3912 565 
Q 3275 0 1925 0 
L 628 0 
L 628 4666 
z
" id="DejaVuSans-44" transform="scale(0.015625)"/>
       <path d="M 1159 525 
L 1159 -1331 
L 581 -1331 
L 581 3500 
L 1159 3500 
L 1159 2969 
Q 1341 3281 1617 3432 
Q 1894 3584 2278 3584 
Q 2916 3584 3314 3078 
Q 3713 2572 3713 1747 
Q 3713 922 3314 415 
Q 2916 -91 2278 -91 
Q 1894 -91 1617 61 
Q 1341 213 1159 525 
z
M 3116 1747 
Q 3116 2381 2855 2742 
Q 2594 3103 2138 3103 
Q 1681 3103 1420 2742 
Q 1159 2381 1159 1747 
Q 1159 1113 1420 752 
Q 1681 391 2138 391 
Q 2594 391 2855 752 
Q 3116 1113 3116 1747 
z
" id="DejaVuSans-70" transform="scale(0.015625)"/>
       <path d="M -19 4666 
L 3928 4666 
L 3928 4134 
L 2272 4134 
L 2272 0 
L 1638 0 
L 1638 4134 
L -19 4134 
L -19 4666 
z
" id="DejaVuSans-54" transform="scale(0.015625)"/>
       <path d="M 3513 3500 
L 2247 1797 
L 3578 0 
L 2900 0 
L 1881 1375 
L 863 0 
L 184 0 
L 1544 1831 
L 300 3500 
L 978 3500 
L 1906 2253 
L 2834 3500 
L 3513 3500 
z
" id="DejaVuSans-78" transform="scale(0.015625)"/>
       <path d="M 2375 4863 
L 2375 4384 
L 1825 4384 
Q 1516 4384 1395 4259 
Q 1275 4134 1275 3809 
L 1275 3500 
L 2222 3500 
L 2222 3053 
L 1275 3053 
L 1275 0 
L 697 0 
L 697 3053 
L 147 3053 
L 147 3500 
L 697 3500 
L 697 3744 
Q 697 4328 969 4595 
Q 1241 4863 1831 4863 
L 2375 4863 
z
" id="DejaVuSans-66" transform="scale(0.015625)"/>
       <path d="M 2188 4044 
L 1331 1722 
L 3047 1722 
L 2188 4044 
z
M 1831 4666 
L 2547 4666 
L 4325 0 
L 3669 0 
L 3244 1197 
L 1141 1197 
L 716 0 
L 50 0 
L 1831 4666 
z
" id="DejaVuSans-41" transform="scale(0.015625)"/>
       <path d="M 678 2906 
L 4684 2906 
L 4684 2381 
L 678 2381 
L 678 2906 
z
M 678 1631 
L 4684 1631 
L 4684 1100 
L 678 1100 
L 678 1631 
z
" id="DejaVuSans-3d" transform="scale(0.015625)"/>
       <path d="M 703 97 
L 703 672 
Q 941 559 1184 500 
Q 1428 441 1663 441 
Q 2288 441 2617 861 
Q 2947 1281 2994 2138 
Q 2813 1869 2534 1725 
Q 2256 1581 1919 1581 
Q 1219 1581 811 2004 
Q 403 2428 403 3163 
Q 403 3881 828 4315 
Q 1253 4750 1959 4750 
Q 2769 4750 3195 4129 
Q 3622 3509 3622 2328 
Q 3622 1225 3098 567 
Q 2575 -91 1691 -91 
Q 1453 -91 1209 -44 
Q 966 3 703 97 
z
M 1959 2075 
Q 2384 2075 2632 2365 
Q 2881 2656 2881 3163 
Q 2881 3666 2632 3958 
Q 2384 4250 1959 4250 
Q 1534 4250 1286 3958 
Q 1038 3666 1038 3163 
Q 1038 2656 1286 2365 
Q 1534 2075 1959 2075 
z
" id="DejaVuSans-39" transform="scale(0.015625)"/>
      </defs>
      <use xlink:href="#DejaVuSans-44"/>
      <use x="77.001953" xlink:href="#DejaVuSans-65"/>
      <use x="138.525391" xlink:href="#DejaVuSans-73"/>
      <use x="190.625" xlink:href="#DejaVuSans-63"/>
      <use x="245.605469" xlink:href="#DejaVuSans-72"/>
      <use x="286.71875" xlink:href="#DejaVuSans-69"/>
      <use x="314.501953" xlink:href="#DejaVuSans-70"/>
      <use x="377.978516" xlink:href="#DejaVuSans-74"/>
      <use x="417.1875" xlink:href="#DejaVuSans-69"/>
      <use x="444.970703" xlink:href="#DejaVuSans-6f"/>
      <use x="506.152344" xlink:href="#DejaVuSans-6e"/>
      <use x="569.53125" xlink:href="#DejaVuSans-20"/>
      <use x="601.318359" xlink:href="#DejaVuSans-54"/>
      <use x="645.402344" xlink:href="#DejaVuSans-65"/>
      <use x="705.175781" xlink:href="#DejaVuSans-78"/>
      <use x="764.355469" xlink:href="#DejaVuSans-74"/>
      <use x="803.564453" xlink:href="#DejaVuSans-20"/>
      <use x="835.351562" xlink:href="#DejaVuSans-43"/>
      <use x="905.175781" xlink:href="#DejaVuSans-6c"/>
      <use x="932.958984" xlink:href="#DejaVuSans-61"/>
      <use x="994.238281" xlink:href="#DejaVuSans-73"/>
      <use x="1046.337891" xlink:href="#DejaVuSans-73"/>
      <use x="1098.4375" xlink:href="#DejaVuSans-69"/>
      <use x="1126.220703" xlink:href="#DejaVuSans-66"/>
      <use x="1161.425781" xlink:href="#DejaVuSans-69"/>
      <use x="1189.208984" xlink:href="#DejaVuSans-65"/>
      <use x="1250.732422" xlink:href="#DejaVuSans-72"/>
      <use x="1291.845703" xlink:href="#DejaVuSans-20"/>
      <use x="1323.632812" xlink:href="#DejaVuSans-28"/>
      <use x="1362.646484" xlink:href="#DejaVuSans-41"/>
      <use x="1431.054688" xlink:href="#DejaVuSans-50"/>
      <use x="1491.357422" xlink:href="#DejaVuSans-20"/>
      <use x="1523.144531" xlink:href="#DejaVuSans-3d"/>
      <use x="1606.933594" xlink:href="#DejaVuSans-20"/>
      <use x="1638.720703" xlink:href="#DejaVuSans-30"/>
      <use x="1702.34375" xlink:href="#DejaVuSans-2e"/>
      <use x="1734.130859" xlink:href="#DejaVuSans-39"/>
      <use x="1797.753906" xlink:href="#DejaVuSans-36"/>
      <use x="1861.376953" xlink:href="#DejaVuSans-29"/>
     </g>
    </g>
   </g>
  </g>
 </g>
 <defs>
  <clipPath id="pe240859af6">
   <rect height="271.8" width="279" x="43.78125" y="22.318125"/>
  </clipPath>
 </defs>
</svg>
