<?xml version="1.0" encoding="utf-8" standalone="no"?>
<!DOCTYPE svg PUBLIC "-//W3C//DTD SVG 1.1//EN"
  "http://www.w3.org/Graphics/SVG/1.1/DTD/svg11.dtd">
<!-- Created with matplotlib (https://matplotlib.org/) -->
<svg height="331.674375pt" version="1.1" viewBox="0 0 335.197518 331.674375" width="335.197518pt" xmlns="http://www.w3.org/2000/svg" xmlns:xlink="http://www.w3.org/1999/xlink">
 <defs>
  <style type="text/css">
*{stroke-linecap:butt;stroke-linejoin:round;}
  </style>
 </defs>
 <g id="figure_1">
  <g id="patch_1">
   <path d="M 0 331.674375 
L 335.197518 331.674375 
L 335.197518 0 
L 0 0 
z
" style="fill:#ffffff;"/>
  </g>
  <g id="axes_1">
   <g id="patch_2">
    <path d="M 43.78125 294.118125 
L 322.78125 294.118125 
L 322.78125 22.318125 
L 43.78125 22.318125 
z
" style="fill:#ffffff;"/>
   </g>
   <g id="matplotlib.axis_1">
    <g id="xtick_1">
     <g id="line2d_1">
      <defs>
       <path d="M 0 0 
L 0 3.5 
" id="m75f7fcd7c7" style="stroke:#000000;stroke-width:0.8;"/>
      </defs>
      <g>
       <use style="stroke:#000000;stroke-width:0.8;" x="46.516544" xlink:href="#m75f7fcd7c7" y="294.118125"/>
      </g>
     </g>
     <g id="text_1">
      <!-- 0.0 -->
      <defs>
       <path d="M 31.78125 66.40625 
Q 24.171875 66.40625 20.328125 58.90625 
Q 16.5 51.421875 16.5 36.375 
Q 16.5 21.390625 20.328125 13.890625 
Q 24.171875 6.390625 31.78125 6.390625 
Q 39.453125 6.390625 43.28125 13.890625 
Q 47.125 21.390625 47.125 36.375 
Q 47.125 51.421875 43.28125 58.90625 
Q 39.453125 66.40625 31.78125 66.40625 
z
M 31.78125 74.21875 
Q 44.046875 74.21875 50.515625 64.515625 
Q 56.984375 54.828125 56.984375 36.375 
Q 56.984375 17.96875 50.515625 8.265625 
Q 44.046875 -1.421875 31.78125 -1.421875 
Q 19.53125 -1.421875 13.0625 8.265625 
Q 6.59375 17.96875 6.59375 36.375 
Q 6.59375 54.828125 13.0625 64.515625 
Q 19.53125 74.21875 31.78125 74.21875 
z
" id="DejaVuSans-48"/>
       <path d="M 10.6875 12.40625 
L 21 12.40625 
L 21 0 
L 10.6875 0 
z
" id="DejaVuSans-46"/>
      </defs>
      <g transform="translate(38.564982 308.716563)scale(0.1 -0.1)">
       <use xlink:href="#DejaVuSans-48"/>
       <use x="63.623047" xlink:href="#DejaVuSans-46"/>
       <use x="95.410156" xlink:href="#DejaVuSans-48"/>
      </g>
     </g>
    </g>
    <g id="xtick_2">
     <g id="line2d_2">
      <g>
       <use style="stroke:#000000;stroke-width:0.8;" x="101.222426" xlink:href="#m75f7fcd7c7" y="294.118125"/>
      </g>
     </g>
     <g id="text_2">
      <!-- 0.2 -->
      <defs>
       <path d="M 19.1875 8.296875 
L 53.609375 8.296875 
L 53.609375 0 
L 7.328125 0 
L 7.328125 8.296875 
Q 12.9375 14.109375 22.625 23.890625 
Q 32.328125 33.6875 34.8125 36.53125 
Q 39.546875 41.84375 41.421875 45.53125 
Q 43.3125 49.21875 43.3125 52.78125 
Q 43.3125 58.59375 39.234375 62.25 
Q 35.15625 65.921875 28.609375 65.921875 
Q 23.96875 65.921875 18.8125 64.3125 
Q 13.671875 62.703125 7.8125 59.421875 
L 7.8125 69.390625 
Q 13.765625 71.78125 18.9375 73 
Q 24.125 74.21875 28.421875 74.21875 
Q 39.75 74.21875 46.484375 68.546875 
Q 53.21875 62.890625 53.21875 53.421875 
Q 53.21875 48.921875 51.53125 44.890625 
Q 49.859375 40.875 45.40625 35.40625 
Q 44.1875 33.984375 37.640625 27.21875 
Q 31.109375 20.453125 19.1875 8.296875 
z
" id="DejaVuSans-50"/>
      </defs>
      <g transform="translate(93.270864 308.716563)scale(0.1 -0.1)">
       <use xlink:href="#DejaVuSans-48"/>
       <use x="63.623047" xlink:href="#DejaVuSans-46"/>
       <use x="95.410156" xlink:href="#DejaVuSans-50"/>
      </g>
     </g>
    </g>
    <g id="xtick_3">
     <g id="line2d_3">
      <g>
       <use style="stroke:#000000;stroke-width:0.8;" x="155.928309" xlink:href="#m75f7fcd7c7" y="294.118125"/>
      </g>
     </g>
     <g id="text_3">
      <!-- 0.4 -->
      <defs>
       <path d="M 37.796875 64.3125 
L 12.890625 25.390625 
L 37.796875 25.390625 
z
M 35.203125 72.90625 
L 47.609375 72.90625 
L 47.609375 25.390625 
L 58.015625 25.390625 
L 58.015625 17.1875 
L 47.609375 17.1875 
L 47.609375 0 
L 37.796875 0 
L 37.796875 17.1875 
L 4.890625 17.1875 
L 4.890625 26.703125 
z
" id="DejaVuSans-52"/>
      </defs>
      <g transform="translate(147.976746 308.716563)scale(0.1 -0.1)">
       <use xlink:href="#DejaVuSans-48"/>
       <use x="63.623047" xlink:href="#DejaVuSans-46"/>
       <use x="95.410156" xlink:href="#DejaVuSans-52"/>
      </g>
     </g>
    </g>
    <g id="xtick_4">
     <g id="line2d_4">
      <g>
       <use style="stroke:#000000;stroke-width:0.8;" x="210.634191" xlink:href="#m75f7fcd7c7" y="294.118125"/>
      </g>
     </g>
     <g id="text_4">
      <!-- 0.6 -->
      <defs>
       <path d="M 33.015625 40.375 
Q 26.375 40.375 22.484375 35.828125 
Q 18.609375 31.296875 18.609375 23.390625 
Q 18.609375 15.53125 22.484375 10.953125 
Q 26.375 6.390625 33.015625 6.390625 
Q 39.65625 6.390625 43.53125 10.953125 
Q 47.40625 15.53125 47.40625 23.390625 
Q 47.40625 31.296875 43.53125 35.828125 
Q 39.65625 40.375 33.015625 40.375 
z
M 52.59375 71.296875 
L 52.59375 62.3125 
Q 48.875 64.0625 45.09375 64.984375 
Q 41.3125 65.921875 37.59375 65.921875 
Q 27.828125 65.921875 22.671875 59.328125 
Q 17.53125 52.734375 16.796875 39.40625 
Q 19.671875 43.65625 24.015625 45.921875 
Q 28.375 48.1875 33.59375 48.1875 
Q 44.578125 48.1875 50.953125 41.515625 
Q 57.328125 34.859375 57.328125 23.390625 
Q 57.328125 12.15625 50.6875 5.359375 
Q 44.046875 -1.421875 33.015625 -1.421875 
Q 20.359375 -1.421875 13.671875 8.265625 
Q 6.984375 17.96875 6.984375 36.375 
Q 6.984375 53.65625 15.1875 63.9375 
Q 23.390625 74.21875 37.203125 74.21875 
Q 40.921875 74.21875 44.703125 73.484375 
Q 48.484375 72.75 52.59375 71.296875 
z
" id="DejaVuSans-54"/>
      </defs>
      <g transform="translate(202.682629 308.716563)scale(0.1 -0.1)">
       <use xlink:href="#DejaVuSans-48"/>
       <use x="63.623047" xlink:href="#DejaVuSans-46"/>
       <use x="95.410156" xlink:href="#DejaVuSans-54"/>
      </g>
     </g>
    </g>
    <g id="xtick_5">
     <g id="line2d_5">
      <g>
       <use style="stroke:#000000;stroke-width:0.8;" x="265.340074" xlink:href="#m75f7fcd7c7" y="294.118125"/>
      </g>
     </g>
     <g id="text_5">
      <!-- 0.8 -->
      <defs>
       <path d="M 31.78125 34.625 
Q 24.75 34.625 20.71875 30.859375 
Q 16.703125 27.09375 16.703125 20.515625 
Q 16.703125 13.921875 20.71875 10.15625 
Q 24.75 6.390625 31.78125 6.390625 
Q 38.8125 6.390625 42.859375 10.171875 
Q 46.921875 13.96875 46.921875 20.515625 
Q 46.921875 27.09375 42.890625 30.859375 
Q 38.875 34.625 31.78125 34.625 
z
M 21.921875 38.8125 
Q 15.578125 40.375 12.03125 44.71875 
Q 8.5 49.078125 8.5 55.328125 
Q 8.5 64.0625 14.71875 69.140625 
Q 20.953125 74.21875 31.78125 74.21875 
Q 42.671875 74.21875 48.875 69.140625 
Q 55.078125 64.0625 55.078125 55.328125 
Q 55.078125 49.078125 51.53125 44.71875 
Q 48 40.375 41.703125 38.8125 
Q 48.828125 37.15625 52.796875 32.3125 
Q 56.78125 27.484375 56.78125 20.515625 
Q 56.78125 9.90625 50.3125 4.234375 
Q 43.84375 -1.421875 31.78125 -1.421875 
Q 19.734375 -1.421875 13.25 4.234375 
Q 6.78125 9.90625 6.78125 20.515625 
Q 6.78125 27.484375 10.78125 32.3125 
Q 14.796875 37.15625 21.921875 38.8125 
z
M 18.3125 54.390625 
Q 18.3125 48.734375 21.84375 45.5625 
Q 25.390625 42.390625 31.78125 42.390625 
Q 38.140625 42.390625 41.71875 45.5625 
Q 45.3125 48.734375 45.3125 54.390625 
Q 45.3125 60.0625 41.71875 63.234375 
Q 38.140625 66.40625 31.78125 66.40625 
Q 25.390625 66.40625 21.84375 63.234375 
Q 18.3125 60.0625 18.3125 54.390625 
z
" id="DejaVuSans-56"/>
      </defs>
      <g transform="translate(257.388511 308.716563)scale(0.1 -0.1)">
       <use xlink:href="#DejaVuSans-48"/>
       <use x="63.623047" xlink:href="#DejaVuSans-46"/>
       <use x="95.410156" xlink:href="#DejaVuSans-56"/>
      </g>
     </g>
    </g>
    <g id="xtick_6">
     <g id="line2d_6">
      <g>
       <use style="stroke:#000000;stroke-width:0.8;" x="320.045956" xlink:href="#m75f7fcd7c7" y="294.118125"/>
      </g>
     </g>
     <g id="text_6">
      <!-- 1.0 -->
      <defs>
       <path d="M 12.40625 8.296875 
L 28.515625 8.296875 
L 28.515625 63.921875 
L 10.984375 60.40625 
L 10.984375 69.390625 
L 28.421875 72.90625 
L 38.28125 72.90625 
L 38.28125 8.296875 
L 54.390625 8.296875 
L 54.390625 0 
L 12.40625 0 
z
" id="DejaVuSans-49"/>
      </defs>
      <g transform="translate(312.094393 308.716563)scale(0.1 -0.1)">
       <use xlink:href="#DejaVuSans-49"/>
       <use x="63.623047" xlink:href="#DejaVuSans-46"/>
       <use x="95.410156" xlink:href="#DejaVuSans-48"/>
      </g>
     </g>
    </g>
    <g id="text_7">
     <!-- Recall (Positive label: 1) -->
     <defs>
      <path d="M 44.390625 34.1875 
Q 47.5625 33.109375 50.5625 29.59375 
Q 53.5625 26.078125 56.59375 19.921875 
L 66.609375 0 
L 56 0 
L 46.6875 18.703125 
Q 43.0625 26.03125 39.671875 28.421875 
Q 36.28125 30.8125 30.421875 30.8125 
L 19.671875 30.8125 
L 19.671875 0 
L 9.8125 0 
L 9.8125 72.90625 
L 32.078125 72.90625 
Q 44.578125 72.90625 50.734375 67.671875 
Q 56.890625 62.453125 56.890625 51.90625 
Q 56.890625 45.015625 53.6875 40.46875 
Q 50.484375 35.9375 44.390625 34.1875 
z
M 19.671875 64.796875 
L 19.671875 38.921875 
L 32.078125 38.921875 
Q 39.203125 38.921875 42.84375 42.21875 
Q 46.484375 45.515625 46.484375 51.90625 
Q 46.484375 58.296875 42.84375 61.546875 
Q 39.203125 64.796875 32.078125 64.796875 
z
" id="DejaVuSans-82"/>
      <path d="M 56.203125 29.59375 
L 56.203125 25.203125 
L 14.890625 25.203125 
Q 15.484375 15.921875 20.484375 11.0625 
Q 25.484375 6.203125 34.421875 6.203125 
Q 39.59375 6.203125 44.453125 7.46875 
Q 49.3125 8.734375 54.109375 11.28125 
L 54.109375 2.78125 
Q 49.265625 0.734375 44.1875 -0.34375 
Q 39.109375 -1.421875 33.890625 -1.421875 
Q 20.796875 -1.421875 13.15625 6.1875 
Q 5.515625 13.8125 5.515625 26.8125 
Q 5.515625 40.234375 12.765625 48.109375 
Q 20.015625 56 32.328125 56 
Q 43.359375 56 49.78125 48.890625 
Q 56.203125 41.796875 56.203125 29.59375 
z
M 47.21875 32.234375 
Q 47.125 39.59375 43.09375 43.984375 
Q 39.0625 48.390625 32.421875 48.390625 
Q 24.90625 48.390625 20.390625 44.140625 
Q 15.875 39.890625 15.1875 32.171875 
z
" id="DejaVuSans-101"/>
      <path d="M 48.78125 52.59375 
L 48.78125 44.1875 
Q 44.96875 46.296875 41.140625 47.34375 
Q 37.3125 48.390625 33.40625 48.390625 
Q 24.65625 48.390625 19.8125 42.84375 
Q 14.984375 37.3125 14.984375 27.296875 
Q 14.984375 17.28125 19.8125 11.734375 
Q 24.65625 6.203125 33.40625 6.203125 
Q 37.3125 6.203125 41.140625 7.25 
Q 44.96875 8.296875 48.78125 10.40625 
L 48.78125 2.09375 
Q 45.015625 0.34375 40.984375 -0.53125 
Q 36.96875 -1.421875 32.421875 -1.421875 
Q 20.0625 -1.421875 12.78125 6.34375 
Q 5.515625 14.109375 5.515625 27.296875 
Q 5.515625 40.671875 12.859375 48.328125 
Q 20.21875 56 33.015625 56 
Q 37.15625 56 41.109375 55.140625 
Q 45.0625 54.296875 48.78125 52.59375 
z
" id="DejaVuSans-99"/>
      <path d="M 34.28125 27.484375 
Q 23.390625 27.484375 19.1875 25 
Q 14.984375 22.515625 14.984375 16.5 
Q 14.984375 11.71875 18.140625 8.90625 
Q 21.296875 6.109375 26.703125 6.109375 
Q 34.1875 6.109375 38.703125 11.40625 
Q 43.21875 16.703125 43.21875 25.484375 
L 43.21875 27.484375 
z
M 52.203125 31.203125 
L 52.203125 0 
L 43.21875 0 
L 43.21875 8.296875 
Q 40.140625 3.328125 35.546875 0.953125 
Q 30.953125 -1.421875 24.3125 -1.421875 
Q 15.921875 -1.421875 10.953125 3.296875 
Q 6 8.015625 6 15.921875 
Q 6 25.140625 12.171875 29.828125 
Q 18.359375 34.515625 30.609375 34.515625 
L 43.21875 34.515625 
L 43.21875 35.40625 
Q 43.21875 41.609375 39.140625 45 
Q 35.0625 48.390625 27.6875 48.390625 
Q 23 48.390625 18.546875 47.265625 
Q 14.109375 46.140625 10.015625 43.890625 
L 10.015625 52.203125 
Q 14.9375 54.109375 19.578125 55.046875 
Q 24.21875 56 28.609375 56 
Q 40.484375 56 46.34375 49.84375 
Q 52.203125 43.703125 52.203125 31.203125 
z
" id="DejaVuSans-97"/>
      <path d="M 9.421875 75.984375 
L 18.40625 75.984375 
L 18.40625 0 
L 9.421875 0 
z
" id="DejaVuSans-108"/>
      <path id="DejaVuSans-32"/>
      <path d="M 31 75.875 
Q 24.46875 64.65625 21.28125 53.65625 
Q 18.109375 42.671875 18.109375 31.390625 
Q 18.109375 20.125 21.3125 9.0625 
Q 24.515625 -2 31 -13.1875 
L 23.1875 -13.1875 
Q 15.875 -1.703125 12.234375 9.375 
Q 8.59375 20.453125 8.59375 31.390625 
Q 8.59375 42.28125 12.203125 53.3125 
Q 15.828125 64.359375 23.1875 75.875 
z
" id="DejaVuSans-40"/>
      <path d="M 19.671875 64.796875 
L 19.671875 37.40625 
L 32.078125 37.40625 
Q 38.96875 37.40625 42.71875 40.96875 
Q 46.484375 44.53125 46.484375 51.125 
Q 46.484375 57.671875 42.71875 61.234375 
Q 38.96875 64.796875 32.078125 64.796875 
z
M 9.8125 72.90625 
L 32.078125 72.90625 
Q 44.34375 72.90625 50.609375 67.359375 
Q 56.890625 61.8125 56.890625 51.125 
Q 56.890625 40.328125 50.609375 34.8125 
Q 44.34375 29.296875 32.078125 29.296875 
L 19.671875 29.296875 
L 19.671875 0 
L 9.8125 0 
z
" id="DejaVuSans-80"/>
      <path d="M 30.609375 48.390625 
Q 23.390625 48.390625 19.1875 42.75 
Q 14.984375 37.109375 14.984375 27.296875 
Q 14.984375 17.484375 19.15625 11.84375 
Q 23.34375 6.203125 30.609375 6.203125 
Q 37.796875 6.203125 41.984375 11.859375 
Q 46.1875 17.53125 46.1875 27.296875 
Q 46.1875 37.015625 41.984375 42.703125 
Q 37.796875 48.390625 30.609375 48.390625 
z
M 30.609375 56 
Q 42.328125 56 49.015625 48.375 
Q 55.71875 40.765625 55.71875 27.296875 
Q 55.71875 13.875 49.015625 6.21875 
Q 42.328125 -1.421875 30.609375 -1.421875 
Q 18.84375 -1.421875 12.171875 6.21875 
Q 5.515625 13.875 5.515625 27.296875 
Q 5.515625 40.765625 12.171875 48.375 
Q 18.84375 56 30.609375 56 
z
" id="DejaVuSans-111"/>
      <path d="M 44.28125 53.078125 
L 44.28125 44.578125 
Q 40.484375 46.53125 36.375 47.5 
Q 32.28125 48.484375 27.875 48.484375 
Q 21.1875 48.484375 17.84375 46.4375 
Q 14.5 44.390625 14.5 40.28125 
Q 14.5 37.15625 16.890625 35.375 
Q 19.28125 33.59375 26.515625 31.984375 
L 29.59375 31.296875 
Q 39.15625 29.25 43.1875 25.515625 
Q 47.21875 21.78125 47.21875 15.09375 
Q 47.21875 7.46875 41.1875 3.015625 
Q 35.15625 -1.421875 24.609375 -1.421875 
Q 20.21875 -1.421875 15.453125 -0.5625 
Q 10.6875 0.296875 5.421875 2 
L 5.421875 11.28125 
Q 10.40625 8.6875 15.234375 7.390625 
Q 20.0625 6.109375 24.8125 6.109375 
Q 31.15625 6.109375 34.5625 8.28125 
Q 37.984375 10.453125 37.984375 14.40625 
Q 37.984375 18.0625 35.515625 20.015625 
Q 33.0625 21.96875 24.703125 23.78125 
L 21.578125 24.515625 
Q 13.234375 26.265625 9.515625 29.90625 
Q 5.8125 33.546875 5.8125 39.890625 
Q 5.8125 47.609375 11.28125 51.796875 
Q 16.75 56 26.8125 56 
Q 31.78125 56 36.171875 55.265625 
Q 40.578125 54.546875 44.28125 53.078125 
z
" id="DejaVuSans-115"/>
      <path d="M 9.421875 54.6875 
L 18.40625 54.6875 
L 18.40625 0 
L 9.421875 0 
z
M 9.421875 75.984375 
L 18.40625 75.984375 
L 18.40625 64.59375 
L 9.421875 64.59375 
z
" id="DejaVuSans-105"/>
      <path d="M 18.3125 70.21875 
L 18.3125 54.6875 
L 36.8125 54.6875 
L 36.8125 47.703125 
L 18.3125 47.703125 
L 18.3125 18.015625 
Q 18.3125 11.328125 20.140625 9.421875 
Q 21.96875 7.515625 27.59375 7.515625 
L 36.8125 7.515625 
L 36.8125 0 
L 27.59375 0 
Q 17.1875 0 13.234375 3.875 
Q 9.28125 7.765625 9.28125 18.015625 
L 9.28125 47.703125 
L 2.6875 47.703125 
L 2.6875 54.6875 
L 9.28125 54.6875 
L 9.28125 70.21875 
z
" id="DejaVuSans-116"/>
      <path d="M 2.984375 54.6875 
L 12.5 54.6875 
L 29.59375 8.796875 
L 46.6875 54.6875 
L 56.203125 54.6875 
L 35.6875 0 
L 23.484375 0 
z
" id="DejaVuSans-118"/>
      <path d="M 48.6875 27.296875 
Q 48.6875 37.203125 44.609375 42.84375 
Q 40.53125 48.484375 33.40625 48.484375 
Q 26.265625 48.484375 22.1875 42.84375 
Q 18.109375 37.203125 18.109375 27.296875 
Q 18.109375 17.390625 22.1875 11.75 
Q 26.265625 6.109375 33.40625 6.109375 
Q 40.53125 6.109375 44.609375 11.75 
Q 48.6875 17.390625 48.6875 27.296875 
z
M 18.109375 46.390625 
Q 20.953125 51.265625 25.265625 53.625 
Q 29.59375 56 35.59375 56 
Q 45.5625 56 51.78125 48.09375 
Q 58.015625 40.1875 58.015625 27.296875 
Q 58.015625 14.40625 51.78125 6.484375 
Q 45.5625 -1.421875 35.59375 -1.421875 
Q 29.59375 -1.421875 25.265625 0.953125 
Q 20.953125 3.328125 18.109375 8.203125 
L 18.109375 0 
L 9.078125 0 
L 9.078125 75.984375 
L 18.109375 75.984375 
z
" id="DejaVuSans-98"/>
      <path d="M 11.71875 12.40625 
L 22.015625 12.40625 
L 22.015625 0 
L 11.71875 0 
z
M 11.71875 51.703125 
L 22.015625 51.703125 
L 22.015625 39.3125 
L 11.71875 39.3125 
z
" id="DejaVuSans-58"/>
      <path d="M 8.015625 75.875 
L 15.828125 75.875 
Q 23.140625 64.359375 26.78125 53.3125 
Q 30.421875 42.28125 30.421875 31.390625 
Q 30.421875 20.453125 26.78125 9.375 
Q 23.140625 -1.703125 15.828125 -13.1875 
L 8.015625 -13.1875 
Q 14.5 -2 17.703125 9.0625 
Q 20.90625 20.125 20.90625 31.390625 
Q 20.90625 42.671875 17.703125 53.65625 
Q 14.5 64.65625 8.015625 75.875 
z
" id="DejaVuSans-41"/>
     </defs>
     <g transform="translate(123.464844 322.394687)scale(0.1 -0.1)">
      <use xlink:href="#DejaVuSans-82"/>
      <use x="64.982422" xlink:href="#DejaVuSans-101"/>
      <use x="126.505859" xlink:href="#DejaVuSans-99"/>
      <use x="181.486328" xlink:href="#DejaVuSans-97"/>
      <use x="242.765625" xlink:href="#DejaVuSans-108"/>
      <use x="270.548828" xlink:href="#DejaVuSans-108"/>
      <use x="298.332031" xlink:href="#DejaVuSans-32"/>
      <use x="330.119141" xlink:href="#DejaVuSans-40"/>
      <use x="369.132812" xlink:href="#DejaVuSans-80"/>
      <use x="425.810547" xlink:href="#DejaVuSans-111"/>
      <use x="486.992188" xlink:href="#DejaVuSans-115"/>
      <use x="539.091797" xlink:href="#DejaVuSans-105"/>
      <use x="566.875" xlink:href="#DejaVuSans-116"/>
      <use x="606.083984" xlink:href="#DejaVuSans-105"/>
      <use x="633.867188" xlink:href="#DejaVuSans-118"/>
      <use x="693.046875" xlink:href="#DejaVuSans-101"/>
      <use x="754.570312" xlink:href="#DejaVuSans-32"/>
      <use x="786.357422" xlink:href="#DejaVuSans-108"/>
      <use x="814.140625" xlink:href="#DejaVuSans-97"/>
      <use x="875.419922" xlink:href="#DejaVuSans-98"/>
      <use x="938.896484" xlink:href="#DejaVuSans-101"/>
      <use x="1000.419922" xlink:href="#DejaVuSans-108"/>
      <use x="1028.203125" xlink:href="#DejaVuSans-58"/>
      <use x="1061.894531" xlink:href="#DejaVuSans-32"/>
      <use x="1093.681641" xlink:href="#DejaVuSans-49"/>
      <use x="1157.304688" xlink:href="#DejaVuSans-41"/>
     </g>
    </g>
   </g>
   <g id="matplotlib.axis_2">
    <g id="ytick_1">
     <g id="line2d_7">
      <defs>
       <path d="M 0 0 
L -3.5 0 
" id="m77915f760c" style="stroke:#000000;stroke-width:0.8;"/>
      </defs>
      <g>
       <use style="stroke:#000000;stroke-width:0.8;" x="43.78125" xlink:href="#m77915f760c" y="291.453419"/>
      </g>
     </g>
     <g id="text_8">
      <!-- 0.0 -->
      <g transform="translate(20.878125 295.252638)scale(0.1 -0.1)">
       <use xlink:href="#DejaVuSans-48"/>
       <use x="63.623047" xlink:href="#DejaVuSans-46"/>
       <use x="95.410156" xlink:href="#DejaVuSans-48"/>
      </g>
     </g>
    </g>
    <g id="ytick_2">
     <g id="line2d_8">
      <g>
       <use style="stroke:#000000;stroke-width:0.8;" x="43.78125" xlink:href="#m77915f760c" y="238.159301"/>
      </g>
     </g>
     <g id="text_9">
      <!-- 0.2 -->
      <g transform="translate(20.878125 241.95852)scale(0.1 -0.1)">
       <use xlink:href="#DejaVuSans-48"/>
       <use x="63.623047" xlink:href="#DejaVuSans-46"/>
       <use x="95.410156" xlink:href="#DejaVuSans-50"/>
      </g>
     </g>
    </g>
    <g id="ytick_3">
     <g id="line2d_9">
      <g>
       <use style="stroke:#000000;stroke-width:0.8;" x="43.78125" xlink:href="#m77915f760c" y="184.865184"/>
      </g>
     </g>
     <g id="text_10">
      <!-- 0.4 -->
      <g transform="translate(20.878125 188.664403)scale(0.1 -0.1)">
       <use xlink:href="#DejaVuSans-48"/>
       <use x="63.623047" xlink:href="#DejaVuSans-46"/>
       <use x="95.410156" xlink:href="#DejaVuSans-52"/>
      </g>
     </g>
    </g>
    <g id="ytick_4">
     <g id="line2d_10">
      <g>
       <use style="stroke:#000000;stroke-width:0.8;" x="43.78125" xlink:href="#m77915f760c" y="131.571066"/>
      </g>
     </g>
     <g id="text_11">
      <!-- 0.6 -->
      <g transform="translate(20.878125 135.370285)scale(0.1 -0.1)">
       <use xlink:href="#DejaVuSans-48"/>
       <use x="63.623047" xlink:href="#DejaVuSans-46"/>
       <use x="95.410156" xlink:href="#DejaVuSans-54"/>
      </g>
     </g>
    </g>
    <g id="ytick_5">
     <g id="line2d_11">
      <g>
       <use style="stroke:#000000;stroke-width:0.8;" x="43.78125" xlink:href="#m77915f760c" y="78.276949"/>
      </g>
     </g>
     <g id="text_12">
      <!-- 0.8 -->
      <g transform="translate(20.878125 82.076167)scale(0.1 -0.1)">
       <use xlink:href="#DejaVuSans-48"/>
       <use x="63.623047" xlink:href="#DejaVuSans-46"/>
       <use x="95.410156" xlink:href="#DejaVuSans-56"/>
      </g>
     </g>
    </g>
    <g id="ytick_6">
     <g id="line2d_12">
      <g>
       <use style="stroke:#000000;stroke-width:0.8;" x="43.78125" xlink:href="#m77915f760c" y="24.982831"/>
      </g>
     </g>
     <g id="text_13">
      <!-- 1.0 -->
      <g transform="translate(20.878125 28.78205)scale(0.1 -0.1)">
       <use xlink:href="#DejaVuSans-49"/>
       <use x="63.623047" xlink:href="#DejaVuSans-46"/>
       <use x="95.410156" xlink:href="#DejaVuSans-48"/>
      </g>
     </g>
    </g>
    <g id="text_14">
     <!-- Precision (Positive label: 1) -->
     <defs>
      <path d="M 41.109375 46.296875 
Q 39.59375 47.171875 37.8125 47.578125 
Q 36.03125 48 33.890625 48 
Q 26.265625 48 22.1875 43.046875 
Q 18.109375 38.09375 18.109375 28.8125 
L 18.109375 0 
L 9.078125 0 
L 9.078125 54.6875 
L 18.109375 54.6875 
L 18.109375 46.1875 
Q 20.953125 51.171875 25.484375 53.578125 
Q 30.03125 56 36.53125 56 
Q 37.453125 56 38.578125 55.875 
Q 39.703125 55.765625 41.0625 55.515625 
z
" id="DejaVuSans-114"/>
      <path d="M 54.890625 33.015625 
L 54.890625 0 
L 45.90625 0 
L 45.90625 32.71875 
Q 45.90625 40.484375 42.875 44.328125 
Q 39.84375 48.1875 33.796875 48.1875 
Q 26.515625 48.1875 22.3125 43.546875 
Q 18.109375 38.921875 18.109375 30.90625 
L 18.109375 0 
L 9.078125 0 
L 9.078125 54.6875 
L 18.109375 54.6875 
L 18.109375 46.1875 
Q 21.34375 51.125 25.703125 53.5625 
Q 30.078125 56 35.796875 56 
Q 45.21875 56 50.046875 50.171875 
Q 54.890625 44.34375 54.890625 33.015625 
z
" id="DejaVuSans-110"/>
     </defs>
     <g transform="translate(14.798438 225.424375)rotate(-90)scale(0.1 -0.1)">
      <use xlink:href="#DejaVuSans-80"/>
      <use x="58.552734" xlink:href="#DejaVuSans-114"/>
      <use x="97.416016" xlink:href="#DejaVuSans-101"/>
      <use x="158.939453" xlink:href="#DejaVuSans-99"/>
      <use x="213.919922" xlink:href="#DejaVuSans-105"/>
      <use x="241.703125" xlink:href="#DejaVuSans-115"/>
      <use x="293.802734" xlink:href="#DejaVuSans-105"/>
      <use x="321.585938" xlink:href="#DejaVuSans-111"/>
      <use x="382.767578" xlink:href="#DejaVuSans-110"/>
      <use x="446.146484" xlink:href="#DejaVuSans-32"/>
      <use x="477.933594" xlink:href="#DejaVuSans-40"/>
      <use x="516.947266" xlink:href="#DejaVuSans-80"/>
      <use x="573.625" xlink:href="#DejaVuSans-111"/>
      <use x="634.806641" xlink:href="#DejaVuSans-115"/>
      <use x="686.90625" xlink:href="#DejaVuSans-105"/>
      <use x="714.689453" xlink:href="#DejaVuSans-116"/>
      <use x="753.898438" xlink:href="#DejaVuSans-105"/>
      <use x="781.681641" xlink:href="#DejaVuSans-118"/>
      <use x="840.861328" xlink:href="#DejaVuSans-101"/>
      <use x="902.384766" xlink:href="#DejaVuSans-32"/>
      <use x="934.171875" xlink:href="#DejaVuSans-108"/>
      <use x="961.955078" xlink:href="#DejaVuSans-97"/>
      <use x="1023.234375" xlink:href="#DejaVuSans-98"/>
      <use x="1086.710938" xlink:href="#DejaVuSans-101"/>
      <use x="1148.234375" xlink:href="#DejaVuSans-108"/>
      <use x="1176.017578" xlink:href="#DejaVuSans-58"/>
      <use x="1209.708984" xlink:href="#DejaVuSans-32"/>
      <use x="1241.496094" xlink:href="#DejaVuSans-49"/>
      <use x="1305.119141" xlink:href="#DejaVuSans-41"/>
     </g>
    </g>
   </g>
   <g id="line2d_13">
    <path clip-path="url(#p8ccb620161)" d="M 320.045956 222.015423 
L 320.041229 222.015423 
L 320.041229 221.904496 
L 319.932505 207.104024 
L 319.923051 207.032947 
L 319.923051 206.993233 
L 319.814328 197.20062 
L 319.8096 197.20062 
L 319.8096 197.089674 
L 319.700877 190.736599 
L 319.69615 190.736599 
L 319.69615 190.625578 
L 319.587426 182.622899 
L 319.582699 182.622899 
L 319.582699 182.512331 
L 319.473976 175.692609 
L 319.469249 175.692609 
L 319.469249 175.582158 
L 319.360525 171.845239 
L 319.346344 171.760957 
L 319.346344 171.734148 
L 319.23762 167.216188 
L 319.228166 167.190224 
L 319.228166 167.105938 
L 319.119443 164.282494 
L 319.105261 164.215302 
L 319.105261 164.172189 
L 318.996538 160.23729 
L 318.991811 160.23729 
L 318.991811 160.126255 
L 318.987084 160.126287 
L 318.883087 156.335032 
L 318.87836 156.335032 
L 318.87836 156.224319 
L 318.769637 152.886596 
L 318.755455 152.79501 
L 318.755455 152.776117 
L 318.646732 146.570733 
L 318.642005 146.570733 
L 318.642005 146.460958 
L 318.533281 143.476778 
L 318.5191 143.451927 
L 318.5191 143.365877 
L 318.410376 139.666308 
L 318.405649 139.666308 
L 318.405649 139.556125 
L 318.301653 135.623538 
L 318.296926 135.624663 
L 318.292199 135.624663 
L 318.292199 135.51476 
L 318.183475 132.019932 
L 318.174021 132.002786 
L 318.174021 131.909211 
L 318.065297 130.156471 
L 318.06057 130.156471 
L 318.06057 130.047028 
L 317.951847 127.316501 
L 317.942393 127.20836 
L 317.942393 127.205932 
L 317.833669 123.237651 
L 317.819488 123.210204 
L 317.819488 123.127957 
L 317.710764 118.641988 
L 317.706037 118.641988 
L 317.706037 118.531625 
L 317.597314 115.722629 
L 317.583132 115.619565 
L 317.583132 115.612514 
L 317.474409 113.502117 
L 317.469682 113.502117 
L 317.469682 113.391123 
L 317.360958 110.511493 
L 317.351504 110.422396 
L 317.351504 110.401941 
L 317.24278 107.802344 
L 317.214418 107.694542 
L 317.214418 107.693325 
L 317.105694 104.932479 
L 317.086786 104.823583 
L 317.086786 104.822276 
L 316.978062 102.34494 
L 316.963881 102.297587 
L 316.963881 102.235158 
L 316.855158 100.052039 
L 316.845703 100.048174 
L 316.845703 99.943277 
L 316.73698 96.925296 
L 316.718071 96.826143 
L 316.718071 96.814625 
L 316.609348 94.142108 
L 316.595167 94.087629 
L 316.595167 94.03222 
L 316.486443 91.880909 
L 316.481716 91.880909 
L 316.481716 91.771803 
L 316.372993 89.268267 
L 316.358811 89.162426 
L 316.358811 89.157899 
L 316.250088 86.629842 
L 316.245361 86.629842 
L 316.245361 86.520247 
L 316.136637 84.353036 
L 316.127183 84.322798 
L 316.127183 84.244535 
L 316.018459 82.179634 
L 316.013732 82.179634 
L 316.013732 82.070817 
L 315.909736 79.938957 
L 315.905009 79.939722 
L 315.8861 79.874235 
L 315.8861 79.830769 
L 315.777377 77.425511 
L 315.767923 77.380971 
L 315.767923 77.315265 
L 315.659199 75.608073 
L 315.645018 75.498906 
L 315.645018 75.499625 
L 315.536294 73.899103 
L 315.531567 73.899103 
L 315.531567 73.790512 
L 315.422844 71.893079 
L 315.413389 71.814224 
L 315.413389 71.783072 
L 315.304666 70.133483 
L 315.299939 70.133483 
L 315.299939 70.024172 
L 315.191215 67.908544 
L 315.172307 67.841131 
L 315.172307 67.798834 
L 315.063583 65.988075 
L 315.049402 65.881786 
L 315.049402 65.879034 
L 314.940679 64.048951 
L 314.926497 64.029618 
L 314.926497 63.937871 
L 314.817774 62.833698 
L 314.813047 62.833698 
L 314.813047 62.723629 
L 314.704323 61.253149 
L 314.699596 61.253149 
L 314.699596 61.144986 
L 314.590873 59.738088 
L 314.548329 59.642813 
L 314.548329 59.629118 
L 314.439605 58.367735 
L 314.420697 58.290112 
L 314.420697 58.258223 
L 314.311973 57.293444 
L 314.307246 57.293444 
L 314.307246 57.184927 
L 314.198523 56.206705 
L 314.184341 56.182002 
L 314.184341 56.098083 
L 314.075618 55.309662 
L 314.051982 55.270882 
L 314.051982 55.201059 
L 313.943259 54.159576 
L 313.933804 54.055402 
L 313.933804 54.052121 
L 313.825081 53.24831 
L 313.806173 53.189382 
L 313.806173 53.140838 
L 313.697449 52.387005 
L 313.687995 52.31152 
L 313.687995 52.277774 
L 313.579271 51.617154 
L 313.555636 51.519462 
L 313.555636 51.508411 
L 313.446912 50.453657 
L 313.428004 50.342885 
L 313.428004 50.343291 
L 313.31928 49.261653 
L 313.300372 49.200406 
L 313.300372 49.153959 
L 313.191648 48.64242 
L 313.158559 48.538765 
L 313.158559 48.53522 
L 313.049835 47.890308 
L 313.016745 47.817487 
L 313.016745 47.782292 
L 312.908022 47.140663 
L 312.889113 47.070174 
L 312.889113 47.030753 
L 312.78039 46.208348 
L 312.770936 46.128525 
L 312.770936 46.100798 
L 312.666939 45.190209 
L 312.662212 45.190541 
L 312.638577 45.102901 
L 312.638577 45.083002 
L 312.529853 44.603931 
L 312.510945 44.49513 
L 312.510945 44.495451 
L 312.402221 43.997275 
L 312.38804 43.985646 
L 312.38804 43.887854 
L 312.279316 43.427808 
L 312.260408 43.342459 
L 312.260408 43.318105 
L 312.151685 42.715076 
L 312.109141 42.622352 
L 312.109141 42.606102 
L 312.000417 42.098717 
L 311.957873 41.988756 
L 311.957873 41.98904 
L 311.84915 41.440981 
L 311.825514 41.371013 
L 311.825514 41.333645 
L 311.716791 40.861989 
L 311.693155 40.753785 
L 311.693155 40.75405 
L 311.584431 40.338824 
L 311.546615 40.235069 
L 311.546615 40.231102 
L 311.437891 39.834892 
L 311.385893 39.752563 
L 311.385893 39.727351 
L 311.286624 39.281758 
L 311.277169 39.282241 
L 311.253534 39.180902 
L 311.253534 39.172613 
L 311.14481 38.819246 
L 311.088085 38.71908 
L 311.088085 38.710747 
L 310.979362 38.282603 
L 310.96518 38.179823 
L 310.96518 38.175744 
L 310.856457 37.952538 
L 310.804459 37.842549 
L 310.804459 37.842768 
L 310.695735 37.501827 
L 310.657918 37.403667 
L 310.657918 37.390875 
L 310.549195 37.083124 
L 310.492469 36.97665 
L 310.492469 36.972504 
L 310.388473 36.750428 
L 310.383746 36.750629 
L 310.350656 36.647111 
L 310.350656 36.642945 
L 310.24666 36.490024 
L 310.241933 36.490222 
L 310.166299 36.392546 
L 310.166299 36.37961 
L 310.057575 36.094742 
L 309.986669 35.987611 
L 309.986669 35.9878 
L 309.877945 35.732536 
L 309.802312 35.629529 
L 309.802312 35.625303 
L 309.693588 35.315927 
L 309.64159 35.211516 
L 309.64159 35.207266 
L 309.532866 34.923148 
L 309.485595 34.818111 
L 309.485595 34.813838 
L 309.376872 34.608677 
L 309.320146 34.499142 
L 309.320146 34.499307 
L 309.21615 34.266424 
L 309.211423 34.266585 
L 309.126335 34.16205 
L 309.126335 34.157737 
L 309.017612 33.915117 
L 308.951432 33.809495 
L 308.951432 33.805162 
L 308.842709 33.611031 
L 308.776529 33.500517 
L 308.776529 33.500665 
L 308.667805 33.287779 
L 308.563809 33.182499 
L 308.563809 33.178127 
L 308.459813 33.068295 
L 308.455086 33.068436 
L 308.369998 32.957723 
L 308.369998 32.957863 
L 308.270728 32.838471 
L 308.261274 32.838746 
L 308.162005 32.728091 
L 308.162005 32.728226 
L 308.062736 32.60844 
L 308.053281 32.608708 
L 308.010737 32.52794 
L 308.010737 32.500781 
L 307.906741 32.389867 
L 307.902014 32.389997 
L 307.760201 32.279797 
L 307.760201 32.279926 
L 307.651477 32.136782 
L 307.590025 32.037735 
L 307.590025 32.028714 
L 307.481301 31.930886 
L 307.391486 31.82313 
L 307.391486 31.823251 
L 307.282763 31.670026 
L 307.188221 31.562002 
L 307.188221 31.562119 
L 307.079497 31.403752 
L 306.961319 31.3005 
L 306.961319 31.296002 
L 306.852596 31.16938 
L 306.734418 31.061127 
L 306.734418 31.061234 
L 306.625695 30.966572 
L 306.422429 30.859848 
L 306.422429 30.859952 
L 306.318433 30.788042 
L 306.313705 30.788146 
L 306.14353 30.680299 
L 306.14353 30.680401 
L 306.039533 30.603591 
L 306.034806 30.603691 
L 305.803178 30.496737 
L 305.803178 30.496836 
L 305.703908 30.414982 
L 305.694454 30.415176 
L 305.566822 30.319676 
L 305.566822 30.305762 
L 305.462826 30.261129 
L 305.458099 30.261223 
L 305.283196 30.157017 
L 305.283196 30.152429 
L 305.179199 30.070153 
L 305.174472 30.070244 
L 305.051567 29.974045 
L 305.051567 29.960059 
L 304.961752 29.881944 
L 304.942844 29.882295 
L 304.739578 29.773141 
L 304.739578 29.773227 
L 304.630855 29.714014 
L 304.460679 29.613305 
L 304.460679 29.603958 
L 304.351955 29.563409 
L 304.120327 29.453975 
L 304.120327 29.454056 
L 304.044693 29.417514 
L 304.011604 29.418074 
L 303.72325 29.309184 
L 303.72325 29.309262 
L 303.614526 29.244663 
L 303.406534 29.138741 
L 303.406534 29.134065 
L 303.29781 29.088249 
L 303.023638 28.978197 
L 303.023638 28.978269 
L 302.914914 28.946568 
L 302.607652 28.836574 
L 302.607652 28.836644 
L 302.517837 28.785396 
L 302.498929 28.785673 
L 302.314572 28.68779 
L 302.314572 28.678281 
L 302.220029 28.626923 
L 302.205848 28.627122 
L 301.856042 28.521559 
L 301.856042 28.51682 
L 301.780408 28.493828 
L 301.747319 28.494278 
L 301.440056 28.387676 
L 301.440056 28.387738 
L 301.331333 28.360263 
L 300.934256 28.254359 
L 300.934256 28.249588 
L 300.825532 28.207469 
L 300.485181 28.100306 
L 300.485181 28.100363 
L 300.376457 28.019267 
L 299.988834 27.912051 
L 299.988834 27.912105 
L 299.899019 27.87909 
L 299.880111 27.879304 
L 299.568121 27.770726 
L 299.568121 27.770778 
L 299.473579 27.737673 
L 299.459398 27.737826 
L 299.019777 27.630102 
L 299.019777 27.630151 
L 299.000868 27.620567 
L 298.911053 27.621496 
L 298.239804 27.510639 
L 298.239804 27.510686 
L 298.225623 27.501007 
L 298.13108 27.501944 
L 297.341653 27.391447 
L 297.341653 27.391492 
L 297.332199 27.381718 
L 297.23293 27.382659 
L 296.62786 27.274568 
L 296.62786 27.274611 
L 296.519136 27.260742 
L 295.691892 27.153865 
L 295.691892 27.153906 
L 295.587896 27.129926 
L 295.583169 27.129967 
L 294.429754 27.019806 
L 294.429754 27.019844 
L 294.339939 27.00556 
L 294.321031 27.005713 
L 293.167616 26.899338 
L 293.167616 26.899375 
L 293.058893 26.890142 
L 292.217468 26.780315 
L 292.217468 26.780349 
L 292.203286 26.770335 
L 292.108744 26.771019 
L 290.756791 26.663742 
L 290.756791 26.663775 
L 290.752064 26.653621 
L 290.648068 26.654329 
L 288.68159 26.544465 
L 288.68159 26.544495 
L 288.672136 26.529132 
L 288.572867 26.529762 
L 287.480905 26.422988 
L 287.480905 26.423016 
L 287.480905 26.417844 
L 287.372181 26.418489 
L 285.268618 26.310958 
L 285.268618 26.310984 
L 285.268618 26.305761 
L 285.159894 26.30636 
L 282.961789 26.197219 
L 282.961789 26.197243 
L 282.857793 26.18193 
L 282.853065 26.181954 
L 280.205885 26.072547 
L 280.205885 26.072569 
L 280.205885 26.067223 
L 280.097161 26.067726 
L 276.230386 25.960755 
L 276.230386 25.960775 
L 276.211478 25.949967 
L 276.121663 25.950344 
L 272.897775 25.842485 
L 272.897775 25.842503 
L 272.897775 25.836974 
L 272.789051 25.837383 
L 268.147031 25.73093 
L 268.147031 25.730946 
L 268.147031 25.725294 
L 268.038307 25.725657 
L 263.415195 25.620112 
L 263.415195 25.620126 
L 263.372651 25.608689 
L 263.306471 25.608879 
L 254.797676 25.501914 
L 254.797676 25.501926 
L 254.797676 25.495901 
L 254.688952 25.496169 
L 239.968736 25.385914 
L 239.968736 25.385924 
L 239.964009 25.379432 
L 239.860013 25.379655 
L 216.115746 25.272166 
L 216.115746 25.272174 
L 216.115746 25.264763 
L 216.007023 25.264944 
L 188.027267 25.160733 
L 188.027267 25.160739 
L 188.027267 25.151849 
L 187.918544 25.151979 
L 155.206952 25.052345 
L 155.206952 25.052348 
L 155.206952 25.040764 
L 155.098229 25.040822 
L 46.516544 24.982831 
L 46.516544 24.982831 
" style="fill:none;stroke:#1f77b4;stroke-linecap:square;stroke-width:1.5;"/>
   </g>
   <g id="patch_3">
    <path d="M 43.78125 294.118125 
L 43.78125 22.318125 
" style="fill:none;stroke:#000000;stroke-linecap:square;stroke-linejoin:miter;stroke-width:0.8;"/>
   </g>
   <g id="patch_4">
    <path d="M 322.78125 294.118125 
L 322.78125 22.318125 
" style="fill:none;stroke:#000000;stroke-linecap:square;stroke-linejoin:miter;stroke-width:0.8;"/>
   </g>
   <g id="patch_5">
    <path d="M 43.78125 294.118125 
L 322.78125 294.118125 
" style="fill:none;stroke:#000000;stroke-linecap:square;stroke-linejoin:miter;stroke-width:0.8;"/>
   </g>
   <g id="patch_6">
    <path d="M 43.78125 22.318125 
L 322.78125 22.318125 
" style="fill:none;stroke:#000000;stroke-linecap:square;stroke-linejoin:miter;stroke-width:0.8;"/>
   </g>
   <g id="text_15">
    <!-- 2-class Precision-Recall Curve -->
    <defs>
     <path d="M 4.890625 31.390625 
L 31.203125 31.390625 
L 31.203125 23.390625 
L 4.890625 23.390625 
z
" id="DejaVuSans-45"/>
     <path d="M 64.40625 67.28125 
L 64.40625 56.890625 
Q 59.421875 61.53125 53.78125 63.8125 
Q 48.140625 66.109375 41.796875 66.109375 
Q 29.296875 66.109375 22.65625 58.46875 
Q 16.015625 50.828125 16.015625 36.375 
Q 16.015625 21.96875 22.65625 14.328125 
Q 29.296875 6.6875 41.796875 6.6875 
Q 48.140625 6.6875 53.78125 8.984375 
Q 59.421875 11.28125 64.40625 15.921875 
L 64.40625 5.609375 
Q 59.234375 2.09375 53.4375 0.328125 
Q 47.65625 -1.421875 41.21875 -1.421875 
Q 24.65625 -1.421875 15.125 8.703125 
Q 5.609375 18.84375 5.609375 36.375 
Q 5.609375 53.953125 15.125 64.078125 
Q 24.65625 74.21875 41.21875 74.21875 
Q 47.75 74.21875 53.53125 72.484375 
Q 59.328125 70.75 64.40625 67.28125 
z
" id="DejaVuSans-67"/>
     <path d="M 8.5 21.578125 
L 8.5 54.6875 
L 17.484375 54.6875 
L 17.484375 21.921875 
Q 17.484375 14.15625 20.5 10.265625 
Q 23.53125 6.390625 29.59375 6.390625 
Q 36.859375 6.390625 41.078125 11.03125 
Q 45.3125 15.671875 45.3125 23.6875 
L 45.3125 54.6875 
L 54.296875 54.6875 
L 54.296875 0 
L 45.3125 0 
L 45.3125 8.40625 
Q 42.046875 3.421875 37.71875 1 
Q 33.40625 -1.421875 27.6875 -1.421875 
Q 18.265625 -1.421875 13.375 4.4375 
Q 8.5 10.296875 8.5 21.578125 
z
M 31.109375 56 
z
" id="DejaVuSans-117"/>
    </defs>
    <g transform="translate(94.055625 16.318125)scale(0.12 -0.12)">
     <use xlink:href="#DejaVuSans-50"/>
     <use x="63.623047" xlink:href="#DejaVuSans-45"/>
     <use x="99.707031" xlink:href="#DejaVuSans-99"/>
     <use x="154.6875" xlink:href="#DejaVuSans-108"/>
     <use x="182.470703" xlink:href="#DejaVuSans-97"/>
     <use x="243.75" xlink:href="#DejaVuSans-115"/>
     <use x="295.849609" xlink:href="#DejaVuSans-115"/>
     <use x="347.949219" xlink:href="#DejaVuSans-32"/>
     <use x="379.736328" xlink:href="#DejaVuSans-80"/>
     <use x="438.289062" xlink:href="#DejaVuSans-114"/>
     <use x="477.152344" xlink:href="#DejaVuSans-101"/>
     <use x="538.675781" xlink:href="#DejaVuSans-99"/>
     <use x="593.65625" xlink:href="#DejaVuSans-105"/>
     <use x="621.439453" xlink:href="#DejaVuSans-115"/>
     <use x="673.539062" xlink:href="#DejaVuSans-105"/>
     <use x="701.322266" xlink:href="#DejaVuSans-111"/>
     <use x="762.503906" xlink:href="#DejaVuSans-110"/>
     <use x="825.882812" xlink:href="#DejaVuSans-45"/>
     <use x="861.966797" xlink:href="#DejaVuSans-82"/>
     <use x="926.949219" xlink:href="#DejaVuSans-101"/>
     <use x="988.472656" xlink:href="#DejaVuSans-99"/>
     <use x="1043.453125" xlink:href="#DejaVuSans-97"/>
     <use x="1104.732422" xlink:href="#DejaVuSans-108"/>
     <use x="1132.515625" xlink:href="#DejaVuSans-108"/>
     <use x="1160.298828" xlink:href="#DejaVuSans-32"/>
     <use x="1192.085938" xlink:href="#DejaVuSans-67"/>
     <use x="1261.910156" xlink:href="#DejaVuSans-117"/>
     <use x="1325.289062" xlink:href="#DejaVuSans-114"/>
     <use x="1366.402344" xlink:href="#DejaVuSans-118"/>
     <use x="1425.582031" xlink:href="#DejaVuSans-101"/>
    </g>
   </g>
   <g id="legend_1">
    <g id="patch_7">
     <path d="M 50.78125 289.118125 
L 272.817188 289.118125 
Q 274.817188 289.118125 274.817188 287.118125 
L 274.817188 273.44 
Q 274.817188 271.44 272.817188 271.44 
L 50.78125 271.44 
Q 48.78125 271.44 48.78125 273.44 
L 48.78125 287.118125 
Q 48.78125 289.118125 50.78125 289.118125 
z
" style="fill:#ffffff;opacity:0.8;stroke:#cccccc;stroke-linejoin:miter;"/>
    </g>
    <g id="line2d_14">
     <path d="M 52.78125 279.538437 
L 72.78125 279.538437 
" style="fill:none;stroke:#1f77b4;stroke-linecap:square;stroke-width:1.5;"/>
    </g>
    <g id="line2d_15"/>
    <g id="text_16">
     <!-- Description Text Classifier (AP = 0.99) -->
     <defs>
      <path d="M 19.671875 64.796875 
L 19.671875 8.109375 
L 31.59375 8.109375 
Q 46.6875 8.109375 53.6875 14.9375 
Q 60.6875 21.78125 60.6875 36.53125 
Q 60.6875 51.171875 53.6875 57.984375 
Q 46.6875 64.796875 31.59375 64.796875 
z
M 9.8125 72.90625 
L 30.078125 72.90625 
Q 51.265625 72.90625 61.171875 64.09375 
Q 71.09375 55.28125 71.09375 36.53125 
Q 71.09375 17.671875 61.125 8.828125 
Q 51.171875 0 30.078125 0 
L 9.8125 0 
z
" id="DejaVuSans-68"/>
      <path d="M 18.109375 8.203125 
L 18.109375 -20.796875 
L 9.078125 -20.796875 
L 9.078125 54.6875 
L 18.109375 54.6875 
L 18.109375 46.390625 
Q 20.953125 51.265625 25.265625 53.625 
Q 29.59375 56 35.59375 56 
Q 45.5625 56 51.78125 48.09375 
Q 58.015625 40.1875 58.015625 27.296875 
Q 58.015625 14.40625 51.78125 6.484375 
Q 45.5625 -1.421875 35.59375 -1.421875 
Q 29.59375 -1.421875 25.265625 0.953125 
Q 20.953125 3.328125 18.109375 8.203125 
z
M 48.6875 27.296875 
Q 48.6875 37.203125 44.609375 42.84375 
Q 40.53125 48.484375 33.40625 48.484375 
Q 26.265625 48.484375 22.1875 42.84375 
Q 18.109375 37.203125 18.109375 27.296875 
Q 18.109375 17.390625 22.1875 11.75 
Q 26.265625 6.109375 33.40625 6.109375 
Q 40.53125 6.109375 44.609375 11.75 
Q 48.6875 17.390625 48.6875 27.296875 
z
" id="DejaVuSans-112"/>
      <path d="M -0.296875 72.90625 
L 61.375 72.90625 
L 61.375 64.59375 
L 35.5 64.59375 
L 35.5 0 
L 25.59375 0 
L 25.59375 64.59375 
L -0.296875 64.59375 
z
" id="DejaVuSans-84"/>
      <path d="M 54.890625 54.6875 
L 35.109375 28.078125 
L 55.90625 0 
L 45.3125 0 
L 29.390625 21.484375 
L 13.484375 0 
L 2.875 0 
L 24.125 28.609375 
L 4.6875 54.6875 
L 15.28125 54.6875 
L 29.78125 35.203125 
L 44.28125 54.6875 
z
" id="DejaVuSans-120"/>
      <path d="M 37.109375 75.984375 
L 37.109375 68.5 
L 28.515625 68.5 
Q 23.6875 68.5 21.796875 66.546875 
Q 19.921875 64.59375 19.921875 59.515625 
L 19.921875 54.6875 
L 34.71875 54.6875 
L 34.71875 47.703125 
L 19.921875 47.703125 
L 19.921875 0 
L 10.890625 0 
L 10.890625 47.703125 
L 2.296875 47.703125 
L 2.296875 54.6875 
L 10.890625 54.6875 
L 10.890625 58.5 
Q 10.890625 67.625 15.140625 71.796875 
Q 19.390625 75.984375 28.609375 75.984375 
z
" id="DejaVuSans-102"/>
      <path d="M 34.1875 63.1875 
L 20.796875 26.90625 
L 47.609375 26.90625 
z
M 28.609375 72.90625 
L 39.796875 72.90625 
L 67.578125 0 
L 57.328125 0 
L 50.6875 18.703125 
L 17.828125 18.703125 
L 11.1875 0 
L 0.78125 0 
z
" id="DejaVuSans-65"/>
      <path d="M 10.59375 45.40625 
L 73.1875 45.40625 
L 73.1875 37.203125 
L 10.59375 37.203125 
z
M 10.59375 25.484375 
L 73.1875 25.484375 
L 73.1875 17.1875 
L 10.59375 17.1875 
z
" id="DejaVuSans-61"/>
      <path d="M 10.984375 1.515625 
L 10.984375 10.5 
Q 14.703125 8.734375 18.5 7.8125 
Q 22.3125 6.890625 25.984375 6.890625 
Q 35.75 6.890625 40.890625 13.453125 
Q 46.046875 20.015625 46.78125 33.40625 
Q 43.953125 29.203125 39.59375 26.953125 
Q 35.25 24.703125 29.984375 24.703125 
Q 19.046875 24.703125 12.671875 31.3125 
Q 6.296875 37.9375 6.296875 49.421875 
Q 6.296875 60.640625 12.9375 67.421875 
Q 19.578125 74.21875 30.609375 74.21875 
Q 43.265625 74.21875 49.921875 64.515625 
Q 56.59375 54.828125 56.59375 36.375 
Q 56.59375 19.140625 48.40625 8.859375 
Q 40.234375 -1.421875 26.421875 -1.421875 
Q 22.703125 -1.421875 18.890625 -0.6875 
Q 15.09375 0.046875 10.984375 1.515625 
z
M 30.609375 32.421875 
Q 37.25 32.421875 41.125 36.953125 
Q 45.015625 41.5 45.015625 49.421875 
Q 45.015625 57.28125 41.125 61.84375 
Q 37.25 66.40625 30.609375 66.40625 
Q 23.96875 66.40625 20.09375 61.84375 
Q 16.21875 57.28125 16.21875 49.421875 
Q 16.21875 41.5 20.09375 36.953125 
Q 23.96875 32.421875 30.609375 32.421875 
z
" id="DejaVuSans-57"/>
     </defs>
     <g transform="translate(80.78125 283.038437)scale(0.1 -0.1)">
      <use xlink:href="#DejaVuSans-68"/>
      <use x="77.001953" xlink:href="#DejaVuSans-101"/>
      <use x="138.525391" xlink:href="#DejaVuSans-115"/>
      <use x="190.625" xlink:href="#DejaVuSans-99"/>
      <use x="245.605469" xlink:href="#DejaVuSans-114"/>
      <use x="286.71875" xlink:href="#DejaVuSans-105"/>
      <use x="314.501953" xlink:href="#DejaVuSans-112"/>
      <use x="377.978516" xlink:href="#DejaVuSans-116"/>
      <use x="417.1875" xlink:href="#DejaVuSans-105"/>
      <use x="444.970703" xlink:href="#DejaVuSans-111"/>
      <use x="506.152344" xlink:href="#DejaVuSans-110"/>
      <use x="569.53125" xlink:href="#DejaVuSans-32"/>
      <use x="601.318359" xlink:href="#DejaVuSans-84"/>
      <use x="645.402344" xlink:href="#DejaVuSans-101"/>
      <use x="705.175781" xlink:href="#DejaVuSans-120"/>
      <use x="764.355469" xlink:href="#DejaVuSans-116"/>
      <use x="803.564453" xlink:href="#DejaVuSans-32"/>
      <use x="835.351562" xlink:href="#DejaVuSans-67"/>
      <use x="905.175781" xlink:href="#DejaVuSans-108"/>
      <use x="932.958984" xlink:href="#DejaVuSans-97"/>
      <use x="994.238281" xlink:href="#DejaVuSans-115"/>
      <use x="1046.337891" xlink:href="#DejaVuSans-115"/>
      <use x="1098.4375" xlink:href="#DejaVuSans-105"/>
      <use x="1126.220703" xlink:href="#DejaVuSans-102"/>
      <use x="1161.425781" xlink:href="#DejaVuSans-105"/>
      <use x="1189.208984" xlink:href="#DejaVuSans-101"/>
      <use x="1250.732422" xlink:href="#DejaVuSans-114"/>
      <use x="1291.845703" xlink:href="#DejaVuSans-32"/>
      <use x="1323.632812" xlink:href="#DejaVuSans-40"/>
      <use x="1362.646484" xlink:href="#DejaVuSans-65"/>
      <use x="1431.054688" xlink:href="#DejaVuSans-80"/>
      <use x="1491.357422" xlink:href="#DejaVuSans-32"/>
      <use x="1523.144531" xlink:href="#DejaVuSans-61"/>
      <use x="1606.933594" xlink:href="#DejaVuSans-32"/>
      <use x="1638.720703" xlink:href="#DejaVuSans-48"/>
      <use x="1702.34375" xlink:href="#DejaVuSans-46"/>
      <use x="1734.130859" xlink:href="#DejaVuSans-57"/>
      <use x="1797.753906" xlink:href="#DejaVuSans-57"/>
      <use x="1861.376953" xlink:href="#DejaVuSans-41"/>
     </g>
    </g>
   </g>
  </g>
 </g>
 <defs>
  <clipPath id="p8ccb620161">
   <rect height="271.8" width="279" x="43.78125" y="22.318125"/>
  </clipPath>
 </defs>
</svg>
