<?xml version="1.0" encoding="utf-8" standalone="no"?>
<!DOCTYPE svg PUBLIC "-//W3C//DTD SVG 1.1//EN"
  "http://www.w3.org/Graphics/SVG/1.1/DTD/svg11.dtd">
<!-- Created with matplotlib (https://matplotlib.org/) -->
<svg height="331.674375pt" version="1.1" viewBox="0 0 335.197518 331.674375" width="335.197518pt" xmlns="http://www.w3.org/2000/svg" xmlns:xlink="http://www.w3.org/1999/xlink">
 <defs>
  <style type="text/css">
*{stroke-linecap:butt;stroke-linejoin:round;}
  </style>
 </defs>
 <g id="figure_1">
  <g id="patch_1">
   <path d="M 0 331.674375 
L 335.197518 331.674375 
L 335.197518 0 
L 0 0 
z
" style="fill:#ffffff;"/>
  </g>
  <g id="axes_1">
   <g id="patch_2">
    <path d="M 43.78125 294.118125 
L 322.78125 294.118125 
L 322.78125 22.318125 
L 43.78125 22.318125 
z
" style="fill:#ffffff;"/>
   </g>
   <g id="matplotlib.axis_1">
    <g id="xtick_1">
     <g id="line2d_1">
      <defs>
       <path d="M 0 0 
L 0 3.5 
" id="m4941888451" style="stroke:#000000;stroke-width:0.8;"/>
      </defs>
      <g>
       <use style="stroke:#000000;stroke-width:0.8;" x="46.516544" xlink:href="#m4941888451" y="294.118125"/>
      </g>
     </g>
     <g id="text_1">
      <!-- 0.0 -->
      <defs>
       <path d="M 31.78125 66.40625 
Q 24.171875 66.40625 20.328125 58.90625 
Q 16.5 51.421875 16.5 36.375 
Q 16.5 21.390625 20.328125 13.890625 
Q 24.171875 6.390625 31.78125 6.390625 
Q 39.453125 6.390625 43.28125 13.890625 
Q 47.125 21.390625 47.125 36.375 
Q 47.125 51.421875 43.28125 58.90625 
Q 39.453125 66.40625 31.78125 66.40625 
z
M 31.78125 74.21875 
Q 44.046875 74.21875 50.515625 64.515625 
Q 56.984375 54.828125 56.984375 36.375 
Q 56.984375 17.96875 50.515625 8.265625 
Q 44.046875 -1.421875 31.78125 -1.421875 
Q 19.53125 -1.421875 13.0625 8.265625 
Q 6.59375 17.96875 6.59375 36.375 
Q 6.59375 54.828125 13.0625 64.515625 
Q 19.53125 74.21875 31.78125 74.21875 
z
" id="DejaVuSans-48"/>
       <path d="M 10.6875 12.40625 
L 21 12.40625 
L 21 0 
L 10.6875 0 
z
" id="DejaVuSans-46"/>
      </defs>
      <g transform="translate(38.564982 308.716563)scale(0.1 -0.1)">
       <use xlink:href="#DejaVuSans-48"/>
       <use x="63.623047" xlink:href="#DejaVuSans-46"/>
       <use x="95.410156" xlink:href="#DejaVuSans-48"/>
      </g>
     </g>
    </g>
    <g id="xtick_2">
     <g id="line2d_2">
      <g>
       <use style="stroke:#000000;stroke-width:0.8;" x="101.222426" xlink:href="#m4941888451" y="294.118125"/>
      </g>
     </g>
     <g id="text_2">
      <!-- 0.2 -->
      <defs>
       <path d="M 19.1875 8.296875 
L 53.609375 8.296875 
L 53.609375 0 
L 7.328125 0 
L 7.328125 8.296875 
Q 12.9375 14.109375 22.625 23.890625 
Q 32.328125 33.6875 34.8125 36.53125 
Q 39.546875 41.84375 41.421875 45.53125 
Q 43.3125 49.21875 43.3125 52.78125 
Q 43.3125 58.59375 39.234375 62.25 
Q 35.15625 65.921875 28.609375 65.921875 
Q 23.96875 65.921875 18.8125 64.3125 
Q 13.671875 62.703125 7.8125 59.421875 
L 7.8125 69.390625 
Q 13.765625 71.78125 18.9375 73 
Q 24.125 74.21875 28.421875 74.21875 
Q 39.75 74.21875 46.484375 68.546875 
Q 53.21875 62.890625 53.21875 53.421875 
Q 53.21875 48.921875 51.53125 44.890625 
Q 49.859375 40.875 45.40625 35.40625 
Q 44.1875 33.984375 37.640625 27.21875 
Q 31.109375 20.453125 19.1875 8.296875 
z
" id="DejaVuSans-50"/>
      </defs>
      <g transform="translate(93.270864 308.716563)scale(0.1 -0.1)">
       <use xlink:href="#DejaVuSans-48"/>
       <use x="63.623047" xlink:href="#DejaVuSans-46"/>
       <use x="95.410156" xlink:href="#DejaVuSans-50"/>
      </g>
     </g>
    </g>
    <g id="xtick_3">
     <g id="line2d_3">
      <g>
       <use style="stroke:#000000;stroke-width:0.8;" x="155.928309" xlink:href="#m4941888451" y="294.118125"/>
      </g>
     </g>
     <g id="text_3">
      <!-- 0.4 -->
      <defs>
       <path d="M 37.796875 64.3125 
L 12.890625 25.390625 
L 37.796875 25.390625 
z
M 35.203125 72.90625 
L 47.609375 72.90625 
L 47.609375 25.390625 
L 58.015625 25.390625 
L 58.015625 17.1875 
L 47.609375 17.1875 
L 47.609375 0 
L 37.796875 0 
L 37.796875 17.1875 
L 4.890625 17.1875 
L 4.890625 26.703125 
z
" id="DejaVuSans-52"/>
      </defs>
      <g transform="translate(147.976746 308.716563)scale(0.1 -0.1)">
       <use xlink:href="#DejaVuSans-48"/>
       <use x="63.623047" xlink:href="#DejaVuSans-46"/>
       <use x="95.410156" xlink:href="#DejaVuSans-52"/>
      </g>
     </g>
    </g>
    <g id="xtick_4">
     <g id="line2d_4">
      <g>
       <use style="stroke:#000000;stroke-width:0.8;" x="210.634191" xlink:href="#m4941888451" y="294.118125"/>
      </g>
     </g>
     <g id="text_4">
      <!-- 0.6 -->
      <defs>
       <path d="M 33.015625 40.375 
Q 26.375 40.375 22.484375 35.828125 
Q 18.609375 31.296875 18.609375 23.390625 
Q 18.609375 15.53125 22.484375 10.953125 
Q 26.375 6.390625 33.015625 6.390625 
Q 39.65625 6.390625 43.53125 10.953125 
Q 47.40625 15.53125 47.40625 23.390625 
Q 47.40625 31.296875 43.53125 35.828125 
Q 39.65625 40.375 33.015625 40.375 
z
M 52.59375 71.296875 
L 52.59375 62.3125 
Q 48.875 64.0625 45.09375 64.984375 
Q 41.3125 65.921875 37.59375 65.921875 
Q 27.828125 65.921875 22.671875 59.328125 
Q 17.53125 52.734375 16.796875 39.40625 
Q 19.671875 43.65625 24.015625 45.921875 
Q 28.375 48.1875 33.59375 48.1875 
Q 44.578125 48.1875 50.953125 41.515625 
Q 57.328125 34.859375 57.328125 23.390625 
Q 57.328125 12.15625 50.6875 5.359375 
Q 44.046875 -1.421875 33.015625 -1.421875 
Q 20.359375 -1.421875 13.671875 8.265625 
Q 6.984375 17.96875 6.984375 36.375 
Q 6.984375 53.65625 15.1875 63.9375 
Q 23.390625 74.21875 37.203125 74.21875 
Q 40.921875 74.21875 44.703125 73.484375 
Q 48.484375 72.75 52.59375 71.296875 
z
" id="DejaVuSans-54"/>
      </defs>
      <g transform="translate(202.682629 308.716563)scale(0.1 -0.1)">
       <use xlink:href="#DejaVuSans-48"/>
       <use x="63.623047" xlink:href="#DejaVuSans-46"/>
       <use x="95.410156" xlink:href="#DejaVuSans-54"/>
      </g>
     </g>
    </g>
    <g id="xtick_5">
     <g id="line2d_5">
      <g>
       <use style="stroke:#000000;stroke-width:0.8;" x="265.340074" xlink:href="#m4941888451" y="294.118125"/>
      </g>
     </g>
     <g id="text_5">
      <!-- 0.8 -->
      <defs>
       <path d="M 31.78125 34.625 
Q 24.75 34.625 20.71875 30.859375 
Q 16.703125 27.09375 16.703125 20.515625 
Q 16.703125 13.921875 20.71875 10.15625 
Q 24.75 6.390625 31.78125 6.390625 
Q 38.8125 6.390625 42.859375 10.171875 
Q 46.921875 13.96875 46.921875 20.515625 
Q 46.921875 27.09375 42.890625 30.859375 
Q 38.875 34.625 31.78125 34.625 
z
M 21.921875 38.8125 
Q 15.578125 40.375 12.03125 44.71875 
Q 8.5 49.078125 8.5 55.328125 
Q 8.5 64.0625 14.71875 69.140625 
Q 20.953125 74.21875 31.78125 74.21875 
Q 42.671875 74.21875 48.875 69.140625 
Q 55.078125 64.0625 55.078125 55.328125 
Q 55.078125 49.078125 51.53125 44.71875 
Q 48 40.375 41.703125 38.8125 
Q 48.828125 37.15625 52.796875 32.3125 
Q 56.78125 27.484375 56.78125 20.515625 
Q 56.78125 9.90625 50.3125 4.234375 
Q 43.84375 -1.421875 31.78125 -1.421875 
Q 19.734375 -1.421875 13.25 4.234375 
Q 6.78125 9.90625 6.78125 20.515625 
Q 6.78125 27.484375 10.78125 32.3125 
Q 14.796875 37.15625 21.921875 38.8125 
z
M 18.3125 54.390625 
Q 18.3125 48.734375 21.84375 45.5625 
Q 25.390625 42.390625 31.78125 42.390625 
Q 38.140625 42.390625 41.71875 45.5625 
Q 45.3125 48.734375 45.3125 54.390625 
Q 45.3125 60.0625 41.71875 63.234375 
Q 38.140625 66.40625 31.78125 66.40625 
Q 25.390625 66.40625 21.84375 63.234375 
Q 18.3125 60.0625 18.3125 54.390625 
z
" id="DejaVuSans-56"/>
      </defs>
      <g transform="translate(257.388511 308.716563)scale(0.1 -0.1)">
       <use xlink:href="#DejaVuSans-48"/>
       <use x="63.623047" xlink:href="#DejaVuSans-46"/>
       <use x="95.410156" xlink:href="#DejaVuSans-56"/>
      </g>
     </g>
    </g>
    <g id="xtick_6">
     <g id="line2d_6">
      <g>
       <use style="stroke:#000000;stroke-width:0.8;" x="320.045956" xlink:href="#m4941888451" y="294.118125"/>
      </g>
     </g>
     <g id="text_6">
      <!-- 1.0 -->
      <defs>
       <path d="M 12.40625 8.296875 
L 28.515625 8.296875 
L 28.515625 63.921875 
L 10.984375 60.40625 
L 10.984375 69.390625 
L 28.421875 72.90625 
L 38.28125 72.90625 
L 38.28125 8.296875 
L 54.390625 8.296875 
L 54.390625 0 
L 12.40625 0 
z
" id="DejaVuSans-49"/>
      </defs>
      <g transform="translate(312.094393 308.716563)scale(0.1 -0.1)">
       <use xlink:href="#DejaVuSans-49"/>
       <use x="63.623047" xlink:href="#DejaVuSans-46"/>
       <use x="95.410156" xlink:href="#DejaVuSans-48"/>
      </g>
     </g>
    </g>
    <g id="text_7">
     <!-- Recall (Positive label: 1) -->
     <defs>
      <path d="M 44.390625 34.1875 
Q 47.5625 33.109375 50.5625 29.59375 
Q 53.5625 26.078125 56.59375 19.921875 
L 66.609375 0 
L 56 0 
L 46.6875 18.703125 
Q 43.0625 26.03125 39.671875 28.421875 
Q 36.28125 30.8125 30.421875 30.8125 
L 19.671875 30.8125 
L 19.671875 0 
L 9.8125 0 
L 9.8125 72.90625 
L 32.078125 72.90625 
Q 44.578125 72.90625 50.734375 67.671875 
Q 56.890625 62.453125 56.890625 51.90625 
Q 56.890625 45.015625 53.6875 40.46875 
Q 50.484375 35.9375 44.390625 34.1875 
z
M 19.671875 64.796875 
L 19.671875 38.921875 
L 32.078125 38.921875 
Q 39.203125 38.921875 42.84375 42.21875 
Q 46.484375 45.515625 46.484375 51.90625 
Q 46.484375 58.296875 42.84375 61.546875 
Q 39.203125 64.796875 32.078125 64.796875 
z
" id="DejaVuSans-82"/>
      <path d="M 56.203125 29.59375 
L 56.203125 25.203125 
L 14.890625 25.203125 
Q 15.484375 15.921875 20.484375 11.0625 
Q 25.484375 6.203125 34.421875 6.203125 
Q 39.59375 6.203125 44.453125 7.46875 
Q 49.3125 8.734375 54.109375 11.28125 
L 54.109375 2.78125 
Q 49.265625 0.734375 44.1875 -0.34375 
Q 39.109375 -1.421875 33.890625 -1.421875 
Q 20.796875 -1.421875 13.15625 6.1875 
Q 5.515625 13.8125 5.515625 26.8125 
Q 5.515625 40.234375 12.765625 48.109375 
Q 20.015625 56 32.328125 56 
Q 43.359375 56 49.78125 48.890625 
Q 56.203125 41.796875 56.203125 29.59375 
z
M 47.21875 32.234375 
Q 47.125 39.59375 43.09375 43.984375 
Q 39.0625 48.390625 32.421875 48.390625 
Q 24.90625 48.390625 20.390625 44.140625 
Q 15.875 39.890625 15.1875 32.171875 
z
" id="DejaVuSans-101"/>
      <path d="M 48.78125 52.59375 
L 48.78125 44.1875 
Q 44.96875 46.296875 41.140625 47.34375 
Q 37.3125 48.390625 33.40625 48.390625 
Q 24.65625 48.390625 19.8125 42.84375 
Q 14.984375 37.3125 14.984375 27.296875 
Q 14.984375 17.28125 19.8125 11.734375 
Q 24.65625 6.203125 33.40625 6.203125 
Q 37.3125 6.203125 41.140625 7.25 
Q 44.96875 8.296875 48.78125 10.40625 
L 48.78125 2.09375 
Q 45.015625 0.34375 40.984375 -0.53125 
Q 36.96875 -1.421875 32.421875 -1.421875 
Q 20.0625 -1.421875 12.78125 6.34375 
Q 5.515625 14.109375 5.515625 27.296875 
Q 5.515625 40.671875 12.859375 48.328125 
Q 20.21875 56 33.015625 56 
Q 37.15625 56 41.109375 55.140625 
Q 45.0625 54.296875 48.78125 52.59375 
z
" id="DejaVuSans-99"/>
      <path d="M 34.28125 27.484375 
Q 23.390625 27.484375 19.1875 25 
Q 14.984375 22.515625 14.984375 16.5 
Q 14.984375 11.71875 18.140625 8.90625 
Q 21.296875 6.109375 26.703125 6.109375 
Q 34.1875 6.109375 38.703125 11.40625 
Q 43.21875 16.703125 43.21875 25.484375 
L 43.21875 27.484375 
z
M 52.203125 31.203125 
L 52.203125 0 
L 43.21875 0 
L 43.21875 8.296875 
Q 40.140625 3.328125 35.546875 0.953125 
Q 30.953125 -1.421875 24.3125 -1.421875 
Q 15.921875 -1.421875 10.953125 3.296875 
Q 6 8.015625 6 15.921875 
Q 6 25.140625 12.171875 29.828125 
Q 18.359375 34.515625 30.609375 34.515625 
L 43.21875 34.515625 
L 43.21875 35.40625 
Q 43.21875 41.609375 39.140625 45 
Q 35.0625 48.390625 27.6875 48.390625 
Q 23 48.390625 18.546875 47.265625 
Q 14.109375 46.140625 10.015625 43.890625 
L 10.015625 52.203125 
Q 14.9375 54.109375 19.578125 55.046875 
Q 24.21875 56 28.609375 56 
Q 40.484375 56 46.34375 49.84375 
Q 52.203125 43.703125 52.203125 31.203125 
z
" id="DejaVuSans-97"/>
      <path d="M 9.421875 75.984375 
L 18.40625 75.984375 
L 18.40625 0 
L 9.421875 0 
z
" id="DejaVuSans-108"/>
      <path id="DejaVuSans-32"/>
      <path d="M 31 75.875 
Q 24.46875 64.65625 21.28125 53.65625 
Q 18.109375 42.671875 18.109375 31.390625 
Q 18.109375 20.125 21.3125 9.0625 
Q 24.515625 -2 31 -13.1875 
L 23.1875 -13.1875 
Q 15.875 -1.703125 12.234375 9.375 
Q 8.59375 20.453125 8.59375 31.390625 
Q 8.59375 42.28125 12.203125 53.3125 
Q 15.828125 64.359375 23.1875 75.875 
z
" id="DejaVuSans-40"/>
      <path d="M 19.671875 64.796875 
L 19.671875 37.40625 
L 32.078125 37.40625 
Q 38.96875 37.40625 42.71875 40.96875 
Q 46.484375 44.53125 46.484375 51.125 
Q 46.484375 57.671875 42.71875 61.234375 
Q 38.96875 64.796875 32.078125 64.796875 
z
M 9.8125 72.90625 
L 32.078125 72.90625 
Q 44.34375 72.90625 50.609375 67.359375 
Q 56.890625 61.8125 56.890625 51.125 
Q 56.890625 40.328125 50.609375 34.8125 
Q 44.34375 29.296875 32.078125 29.296875 
L 19.671875 29.296875 
L 19.671875 0 
L 9.8125 0 
z
" id="DejaVuSans-80"/>
      <path d="M 30.609375 48.390625 
Q 23.390625 48.390625 19.1875 42.75 
Q 14.984375 37.109375 14.984375 27.296875 
Q 14.984375 17.484375 19.15625 11.84375 
Q 23.34375 6.203125 30.609375 6.203125 
Q 37.796875 6.203125 41.984375 11.859375 
Q 46.1875 17.53125 46.1875 27.296875 
Q 46.1875 37.015625 41.984375 42.703125 
Q 37.796875 48.390625 30.609375 48.390625 
z
M 30.609375 56 
Q 42.328125 56 49.015625 48.375 
Q 55.71875 40.765625 55.71875 27.296875 
Q 55.71875 13.875 49.015625 6.21875 
Q 42.328125 -1.421875 30.609375 -1.421875 
Q 18.84375 -1.421875 12.171875 6.21875 
Q 5.515625 13.875 5.515625 27.296875 
Q 5.515625 40.765625 12.171875 48.375 
Q 18.84375 56 30.609375 56 
z
" id="DejaVuSans-111"/>
      <path d="M 44.28125 53.078125 
L 44.28125 44.578125 
Q 40.484375 46.53125 36.375 47.5 
Q 32.28125 48.484375 27.875 48.484375 
Q 21.1875 48.484375 17.84375 46.4375 
Q 14.5 44.390625 14.5 40.28125 
Q 14.5 37.15625 16.890625 35.375 
Q 19.28125 33.59375 26.515625 31.984375 
L 29.59375 31.296875 
Q 39.15625 29.25 43.1875 25.515625 
Q 47.21875 21.78125 47.21875 15.09375 
Q 47.21875 7.46875 41.1875 3.015625 
Q 35.15625 -1.421875 24.609375 -1.421875 
Q 20.21875 -1.421875 15.453125 -0.5625 
Q 10.6875 0.296875 5.421875 2 
L 5.421875 11.28125 
Q 10.40625 8.6875 15.234375 7.390625 
Q 20.0625 6.109375 24.8125 6.109375 
Q 31.15625 6.109375 34.5625 8.28125 
Q 37.984375 10.453125 37.984375 14.40625 
Q 37.984375 18.0625 35.515625 20.015625 
Q 33.0625 21.96875 24.703125 23.78125 
L 21.578125 24.515625 
Q 13.234375 26.265625 9.515625 29.90625 
Q 5.8125 33.546875 5.8125 39.890625 
Q 5.8125 47.609375 11.28125 51.796875 
Q 16.75 56 26.8125 56 
Q 31.78125 56 36.171875 55.265625 
Q 40.578125 54.546875 44.28125 53.078125 
z
" id="DejaVuSans-115"/>
      <path d="M 9.421875 54.6875 
L 18.40625 54.6875 
L 18.40625 0 
L 9.421875 0 
z
M 9.421875 75.984375 
L 18.40625 75.984375 
L 18.40625 64.59375 
L 9.421875 64.59375 
z
" id="DejaVuSans-105"/>
      <path d="M 18.3125 70.21875 
L 18.3125 54.6875 
L 36.8125 54.6875 
L 36.8125 47.703125 
L 18.3125 47.703125 
L 18.3125 18.015625 
Q 18.3125 11.328125 20.140625 9.421875 
Q 21.96875 7.515625 27.59375 7.515625 
L 36.8125 7.515625 
L 36.8125 0 
L 27.59375 0 
Q 17.1875 0 13.234375 3.875 
Q 9.28125 7.765625 9.28125 18.015625 
L 9.28125 47.703125 
L 2.6875 47.703125 
L 2.6875 54.6875 
L 9.28125 54.6875 
L 9.28125 70.21875 
z
" id="DejaVuSans-116"/>
      <path d="M 2.984375 54.6875 
L 12.5 54.6875 
L 29.59375 8.796875 
L 46.6875 54.6875 
L 56.203125 54.6875 
L 35.6875 0 
L 23.484375 0 
z
" id="DejaVuSans-118"/>
      <path d="M 48.6875 27.296875 
Q 48.6875 37.203125 44.609375 42.84375 
Q 40.53125 48.484375 33.40625 48.484375 
Q 26.265625 48.484375 22.1875 42.84375 
Q 18.109375 37.203125 18.109375 27.296875 
Q 18.109375 17.390625 22.1875 11.75 
Q 26.265625 6.109375 33.40625 6.109375 
Q 40.53125 6.109375 44.609375 11.75 
Q 48.6875 17.390625 48.6875 27.296875 
z
M 18.109375 46.390625 
Q 20.953125 51.265625 25.265625 53.625 
Q 29.59375 56 35.59375 56 
Q 45.5625 56 51.78125 48.09375 
Q 58.015625 40.1875 58.015625 27.296875 
Q 58.015625 14.40625 51.78125 6.484375 
Q 45.5625 -1.421875 35.59375 -1.421875 
Q 29.59375 -1.421875 25.265625 0.953125 
Q 20.953125 3.328125 18.109375 8.203125 
L 18.109375 0 
L 9.078125 0 
L 9.078125 75.984375 
L 18.109375 75.984375 
z
" id="DejaVuSans-98"/>
      <path d="M 11.71875 12.40625 
L 22.015625 12.40625 
L 22.015625 0 
L 11.71875 0 
z
M 11.71875 51.703125 
L 22.015625 51.703125 
L 22.015625 39.3125 
L 11.71875 39.3125 
z
" id="DejaVuSans-58"/>
      <path d="M 8.015625 75.875 
L 15.828125 75.875 
Q 23.140625 64.359375 26.78125 53.3125 
Q 30.421875 42.28125 30.421875 31.390625 
Q 30.421875 20.453125 26.78125 9.375 
Q 23.140625 -1.703125 15.828125 -13.1875 
L 8.015625 -13.1875 
Q 14.5 -2 17.703125 9.0625 
Q 20.90625 20.125 20.90625 31.390625 
Q 20.90625 42.671875 17.703125 53.65625 
Q 14.5 64.65625 8.015625 75.875 
z
" id="DejaVuSans-41"/>
     </defs>
     <g transform="translate(123.464844 322.394687)scale(0.1 -0.1)">
      <use xlink:href="#DejaVuSans-82"/>
      <use x="64.982422" xlink:href="#DejaVuSans-101"/>
      <use x="126.505859" xlink:href="#DejaVuSans-99"/>
      <use x="181.486328" xlink:href="#DejaVuSans-97"/>
      <use x="242.765625" xlink:href="#DejaVuSans-108"/>
      <use x="270.548828" xlink:href="#DejaVuSans-108"/>
      <use x="298.332031" xlink:href="#DejaVuSans-32"/>
      <use x="330.119141" xlink:href="#DejaVuSans-40"/>
      <use x="369.132812" xlink:href="#DejaVuSans-80"/>
      <use x="425.810547" xlink:href="#DejaVuSans-111"/>
      <use x="486.992188" xlink:href="#DejaVuSans-115"/>
      <use x="539.091797" xlink:href="#DejaVuSans-105"/>
      <use x="566.875" xlink:href="#DejaVuSans-116"/>
      <use x="606.083984" xlink:href="#DejaVuSans-105"/>
      <use x="633.867188" xlink:href="#DejaVuSans-118"/>
      <use x="693.046875" xlink:href="#DejaVuSans-101"/>
      <use x="754.570312" xlink:href="#DejaVuSans-32"/>
      <use x="786.357422" xlink:href="#DejaVuSans-108"/>
      <use x="814.140625" xlink:href="#DejaVuSans-97"/>
      <use x="875.419922" xlink:href="#DejaVuSans-98"/>
      <use x="938.896484" xlink:href="#DejaVuSans-101"/>
      <use x="1000.419922" xlink:href="#DejaVuSans-108"/>
      <use x="1028.203125" xlink:href="#DejaVuSans-58"/>
      <use x="1061.894531" xlink:href="#DejaVuSans-32"/>
      <use x="1093.681641" xlink:href="#DejaVuSans-49"/>
      <use x="1157.304688" xlink:href="#DejaVuSans-41"/>
     </g>
    </g>
   </g>
   <g id="matplotlib.axis_2">
    <g id="ytick_1">
     <g id="line2d_7">
      <defs>
       <path d="M 0 0 
L -3.5 0 
" id="ma9beeaf0e0" style="stroke:#000000;stroke-width:0.8;"/>
      </defs>
      <g>
       <use style="stroke:#000000;stroke-width:0.8;" x="43.78125" xlink:href="#ma9beeaf0e0" y="291.453419"/>
      </g>
     </g>
     <g id="text_8">
      <!-- 0.0 -->
      <g transform="translate(20.878125 295.252638)scale(0.1 -0.1)">
       <use xlink:href="#DejaVuSans-48"/>
       <use x="63.623047" xlink:href="#DejaVuSans-46"/>
       <use x="95.410156" xlink:href="#DejaVuSans-48"/>
      </g>
     </g>
    </g>
    <g id="ytick_2">
     <g id="line2d_8">
      <g>
       <use style="stroke:#000000;stroke-width:0.8;" x="43.78125" xlink:href="#ma9beeaf0e0" y="238.159301"/>
      </g>
     </g>
     <g id="text_9">
      <!-- 0.2 -->
      <g transform="translate(20.878125 241.95852)scale(0.1 -0.1)">
       <use xlink:href="#DejaVuSans-48"/>
       <use x="63.623047" xlink:href="#DejaVuSans-46"/>
       <use x="95.410156" xlink:href="#DejaVuSans-50"/>
      </g>
     </g>
    </g>
    <g id="ytick_3">
     <g id="line2d_9">
      <g>
       <use style="stroke:#000000;stroke-width:0.8;" x="43.78125" xlink:href="#ma9beeaf0e0" y="184.865184"/>
      </g>
     </g>
     <g id="text_10">
      <!-- 0.4 -->
      <g transform="translate(20.878125 188.664403)scale(0.1 -0.1)">
       <use xlink:href="#DejaVuSans-48"/>
       <use x="63.623047" xlink:href="#DejaVuSans-46"/>
       <use x="95.410156" xlink:href="#DejaVuSans-52"/>
      </g>
     </g>
    </g>
    <g id="ytick_4">
     <g id="line2d_10">
      <g>
       <use style="stroke:#000000;stroke-width:0.8;" x="43.78125" xlink:href="#ma9beeaf0e0" y="131.571066"/>
      </g>
     </g>
     <g id="text_11">
      <!-- 0.6 -->
      <g transform="translate(20.878125 135.370285)scale(0.1 -0.1)">
       <use xlink:href="#DejaVuSans-48"/>
       <use x="63.623047" xlink:href="#DejaVuSans-46"/>
       <use x="95.410156" xlink:href="#DejaVuSans-54"/>
      </g>
     </g>
    </g>
    <g id="ytick_5">
     <g id="line2d_11">
      <g>
       <use style="stroke:#000000;stroke-width:0.8;" x="43.78125" xlink:href="#ma9beeaf0e0" y="78.276949"/>
      </g>
     </g>
     <g id="text_12">
      <!-- 0.8 -->
      <g transform="translate(20.878125 82.076167)scale(0.1 -0.1)">
       <use xlink:href="#DejaVuSans-48"/>
       <use x="63.623047" xlink:href="#DejaVuSans-46"/>
       <use x="95.410156" xlink:href="#DejaVuSans-56"/>
      </g>
     </g>
    </g>
    <g id="ytick_6">
     <g id="line2d_12">
      <g>
       <use style="stroke:#000000;stroke-width:0.8;" x="43.78125" xlink:href="#ma9beeaf0e0" y="24.982831"/>
      </g>
     </g>
     <g id="text_13">
      <!-- 1.0 -->
      <g transform="translate(20.878125 28.78205)scale(0.1 -0.1)">
       <use xlink:href="#DejaVuSans-49"/>
       <use x="63.623047" xlink:href="#DejaVuSans-46"/>
       <use x="95.410156" xlink:href="#DejaVuSans-48"/>
      </g>
     </g>
    </g>
    <g id="text_14">
     <!-- Precision (Positive label: 1) -->
     <defs>
      <path d="M 41.109375 46.296875 
Q 39.59375 47.171875 37.8125 47.578125 
Q 36.03125 48 33.890625 48 
Q 26.265625 48 22.1875 43.046875 
Q 18.109375 38.09375 18.109375 28.8125 
L 18.109375 0 
L 9.078125 0 
L 9.078125 54.6875 
L 18.109375 54.6875 
L 18.109375 46.1875 
Q 20.953125 51.171875 25.484375 53.578125 
Q 30.03125 56 36.53125 56 
Q 37.453125 56 38.578125 55.875 
Q 39.703125 55.765625 41.0625 55.515625 
z
" id="DejaVuSans-114"/>
      <path d="M 54.890625 33.015625 
L 54.890625 0 
L 45.90625 0 
L 45.90625 32.71875 
Q 45.90625 40.484375 42.875 44.328125 
Q 39.84375 48.1875 33.796875 48.1875 
Q 26.515625 48.1875 22.3125 43.546875 
Q 18.109375 38.921875 18.109375 30.90625 
L 18.109375 0 
L 9.078125 0 
L 9.078125 54.6875 
L 18.109375 54.6875 
L 18.109375 46.1875 
Q 21.34375 51.125 25.703125 53.5625 
Q 30.078125 56 35.796875 56 
Q 45.21875 56 50.046875 50.171875 
Q 54.890625 44.34375 54.890625 33.015625 
z
" id="DejaVuSans-110"/>
     </defs>
     <g transform="translate(14.798438 225.424375)rotate(-90)scale(0.1 -0.1)">
      <use xlink:href="#DejaVuSans-80"/>
      <use x="58.552734" xlink:href="#DejaVuSans-114"/>
      <use x="97.416016" xlink:href="#DejaVuSans-101"/>
      <use x="158.939453" xlink:href="#DejaVuSans-99"/>
      <use x="213.919922" xlink:href="#DejaVuSans-105"/>
      <use x="241.703125" xlink:href="#DejaVuSans-115"/>
      <use x="293.802734" xlink:href="#DejaVuSans-105"/>
      <use x="321.585938" xlink:href="#DejaVuSans-111"/>
      <use x="382.767578" xlink:href="#DejaVuSans-110"/>
      <use x="446.146484" xlink:href="#DejaVuSans-32"/>
      <use x="477.933594" xlink:href="#DejaVuSans-40"/>
      <use x="516.947266" xlink:href="#DejaVuSans-80"/>
      <use x="573.625" xlink:href="#DejaVuSans-111"/>
      <use x="634.806641" xlink:href="#DejaVuSans-115"/>
      <use x="686.90625" xlink:href="#DejaVuSans-105"/>
      <use x="714.689453" xlink:href="#DejaVuSans-116"/>
      <use x="753.898438" xlink:href="#DejaVuSans-105"/>
      <use x="781.681641" xlink:href="#DejaVuSans-118"/>
      <use x="840.861328" xlink:href="#DejaVuSans-101"/>
      <use x="902.384766" xlink:href="#DejaVuSans-32"/>
      <use x="934.171875" xlink:href="#DejaVuSans-108"/>
      <use x="961.955078" xlink:href="#DejaVuSans-97"/>
      <use x="1023.234375" xlink:href="#DejaVuSans-98"/>
      <use x="1086.710938" xlink:href="#DejaVuSans-101"/>
      <use x="1148.234375" xlink:href="#DejaVuSans-108"/>
      <use x="1176.017578" xlink:href="#DejaVuSans-58"/>
      <use x="1209.708984" xlink:href="#DejaVuSans-32"/>
      <use x="1241.496094" xlink:href="#DejaVuSans-49"/>
      <use x="1305.119141" xlink:href="#DejaVuSans-41"/>
     </g>
    </g>
   </g>
   <g id="line2d_13">
    <path clip-path="url(#p4dc5057981)" d="M 320.045956 219.786222 
L 320.041229 219.786222 
L 320.041229 219.675364 
L 319.932505 202.32375 
L 319.927778 202.32375 
L 319.927778 202.212788 
L 319.819055 192.773757 
L 319.814328 192.773757 
L 319.814328 192.662831 
L 319.705604 184.555173 
L 319.700877 184.555173 
L 319.700877 184.444116 
L 319.592153 178.554177 
L 319.587426 178.554177 
L 319.587426 178.443409 
L 319.478703 174.032458 
L 319.473976 174.032458 
L 319.473976 173.921481 
L 319.365252 168.916733 
L 319.360525 168.916733 
L 319.360525 168.806487 
L 319.251802 163.154742 
L 319.23762 163.091705 
L 319.23762 163.044612 
L 319.128897 158.093252 
L 319.119443 158.085148 
L 319.119443 157.983207 
L 319.010719 152.451392 
L 319.005992 152.451392 
L 319.005992 152.340505 
L 318.897268 148.228336 
L 318.892541 148.228336 
L 318.892541 148.118512 
L 318.783818 145.1268 
L 318.779091 145.1268 
L 318.779091 145.016254 
L 318.670367 140.650219 
L 318.660913 140.549003 
L 318.660913 140.539749 
L 318.55219 134.797928 
L 318.547462 134.797928 
L 318.547462 134.686945 
L 318.438739 131.795327 
L 318.429285 131.703259 
L 318.429285 131.684389 
L 318.320561 129.233936 
L 318.311107 129.176624 
L 318.311107 129.124429 
L 318.202384 124.856039 
L 318.197656 124.856039 
L 318.197656 124.746505 
L 318.088933 121.267485 
L 318.079479 121.162541 
L 318.079479 121.157927 
L 317.970755 118.767174 
L 317.966028 118.767174 
L 317.966028 118.657079 
L 317.857305 115.254197 
L 317.852577 115.254197 
L 317.852577 115.143531 
L 317.743854 112.396843 
L 317.739127 112.396843 
L 317.739127 112.286657 
L 317.630403 110.004624 
L 317.606768 109.898724 
L 317.606768 109.895419 
L 317.498044 107.429874 
L 317.493317 107.429874 
L 317.493317 107.319952 
L 317.384594 104.493321 
L 317.365685 104.400044 
L 317.365685 104.382682 
L 317.256962 101.274772 
L 317.238053 101.201757 
L 317.238053 101.164751 
L 317.12933 97.999165 
L 317.110421 97.889022 
L 317.110421 97.889947 
L 317.001698 96.203623 
L 316.987517 96.117898 
L 316.987517 96.09378 
L 316.878793 93.881259 
L 316.864612 93.772849 
L 316.864612 93.771177 
L 316.755888 91.077351 
L 316.751161 91.077351 
L 316.751161 90.96746 
L 316.642438 88.591847 
L 316.628256 88.528658 
L 316.628256 88.480814 
L 316.519533 86.253858 
L 316.500624 86.176074 
L 316.500624 86.143669 
L 316.391901 84.00149 
L 316.387174 84.00149 
L 316.387174 83.891907 
L 316.27845 81.361308 
L 316.273723 81.361308 
L 316.273723 81.25173 
L 316.165 80.200493 
L 316.155546 80.095511 
L 316.155546 80.0904 
L 316.046822 78.254514 
L 316.027914 78.149 
L 316.027914 78.143756 
L 315.91919 76.302533 
L 315.905009 76.20335 
L 315.905009 76.191871 
L 315.796285 73.869894 
L 315.782104 73.790173 
L 315.782104 73.759656 
L 315.67338 72.171294 
L 315.663926 72.143449 
L 315.663926 72.061678 
L 315.555203 70.784584 
L 315.531567 70.726225 
L 315.531567 70.675474 
L 315.422844 69.670106 
L 315.399208 69.59806 
L 315.399208 69.559739 
L 315.290485 67.372834 
L 315.262122 67.30303 
L 315.262122 67.263851 
L 315.153398 65.929463 
L 315.125036 65.831702 
L 315.125036 65.818862 
L 315.016312 64.220513 
L 314.992677 64.14096 
L 314.992677 64.110816 
L 314.883953 62.583569 
L 314.879226 62.583569 
L 314.879226 62.473282 
L 314.770503 61.196343 
L 314.746867 61.100331 
L 314.746867 61.086843 
L 314.638144 60.23613 
L 314.623962 60.155823 
L 314.623962 60.128039 
L 314.515239 59.037248 
L 314.49633 58.988749 
L 314.49633 58.928442 
L 314.387607 58.088834 
L 314.368698 58.014604 
L 314.368698 57.979019 
L 314.259975 57.135371 
L 314.236339 57.053664 
L 314.236339 57.025033 
L 314.127616 55.581367 
L 314.099253 55.484134 
L 314.099253 55.473536 
L 313.99053 54.873596 
L 313.981076 54.814656 
L 313.981076 54.763115 
L 313.872352 53.758544 
L 313.858171 53.680698 
L 313.858171 53.651136 
L 313.749447 52.893331 
L 313.739993 52.852209 
L 313.739993 52.784603 
L 313.63127 51.852924 
L 313.612361 51.797001 
L 313.612361 51.744011 
L 313.503638 51.06467 
L 313.494183 50.984427 
L 313.494183 50.9541 
L 313.38546 49.897861 
L 313.380733 49.897861 
L 313.380733 49.789608 
L 313.276736 49.148098 
L 313.272009 49.148487 
L 313.262555 49.121542 
L 313.262555 49.03989 
L 313.153832 48.130554 
L 313.13965 48.052495 
L 313.13965 48.02133 
L 313.030927 47.413073 
L 313.007291 47.347118 
L 313.007291 47.303841 
L 312.903295 46.455425 
L 312.898568 46.455775 
L 312.889113 46.404149 
L 312.889113 46.348498 
L 312.78039 45.887357 
L 312.766209 45.83178 
L 312.766209 45.779854 
L 312.657485 45.182788 
L 312.63385 45.083002 
L 312.63385 45.075239 
L 312.525126 44.502621 
L 312.477855 44.395642 
L 312.477855 44.391891 
L 312.369132 43.979042 
L 312.359677 43.873055 
L 312.359677 43.869277 
L 312.250954 43.273491 
L 312.232045 43.163327 
L 312.232045 43.163628 
L 312.123322 42.72924 
L 312.080778 42.632383 
L 312.080778 42.620268 
L 311.972054 42.133664 
L 311.943692 42.022876 
L 311.943692 42.02316 
L 311.839695 41.687861 
L 311.834968 41.68814 
L 311.797151 41.577412 
L 311.797151 41.577689 
L 311.693155 41.177989 
L 311.688428 41.178261 
L 311.655338 41.083463 
L 311.655338 41.071149 
L 311.546615 40.635993 
L 311.499344 40.528814 
L 311.499344 40.529075 
L 311.39062 40.061924 
L 311.362257 39.961562 
L 311.362257 39.953341 
L 311.258261 39.65337 
L 311.253534 39.653618 
L 311.225171 39.544336 
L 311.225171 39.544581 
L 311.116448 39.085668 
L 311.092812 39.005462 
L 311.092812 38.975785 
L 310.984089 38.62157 
L 310.941545 38.516165 
L 310.941545 38.512103 
L 310.832821 38.233675 
L 310.78555 38.13667 
L 310.78555 38.12397 
L 310.676827 37.870275 
L 310.634283 37.776979 
L 310.634283 37.759906 
L 310.525559 37.305696 
L 310.487742 37.237701 
L 310.487742 37.198817 
L 310.379019 36.872894 
L 310.336475 36.774251 
L 310.336475 36.76573 
L 310.227751 36.486441 
L 310.175753 36.387778 
L 310.175753 36.379218 
L 310.06703 36.160181 
L 310.029213 36.056184 
L 310.029213 36.051983 
L 309.920489 35.748485 
L 309.868491 35.644593 
L 309.868491 35.640369 
L 309.759768 35.437165 
L 309.707769 35.346164 
L 309.707769 35.328658 
L 309.599046 35.093687 
L 309.570683 35.019197 
L 309.570683 34.983889 
L 309.46196 34.730235 
L 309.433597 34.633213 
L 309.433597 34.620028 
L 309.339055 34.489734 
L 309.324874 34.490229 
L 309.263421 34.389634 
L 309.263421 34.380874 
L 309.154698 34.053894 
L 309.107427 33.961288 
L 309.107427 33.943526 
L 309.00343 33.713712 
L 308.998703 33.713864 
L 308.875798 33.614322 
L 308.875798 33.605482 
L 308.767075 33.419919 
L 308.64417 33.315419 
L 308.64417 33.311055 
L 308.544901 33.074789 
L 308.535446 33.075072 
L 308.459813 32.977695 
L 308.459813 32.96426 
L 308.351089 32.813472 
L 308.256547 32.707226 
L 308.256547 32.702823 
L 308.147824 32.57877 
L 308.043827 32.467881 
L 308.043827 32.468012 
L 307.939831 32.275049 
L 307.935104 32.275177 
L 307.868924 32.171937 
L 307.868924 32.167501 
L 307.788563 32.00065 
L 307.760201 32.001392 
L 307.651477 31.898897 
L 307.651477 31.894443 
L 307.547481 31.800942 
L 307.542754 31.801062 
L 307.419849 31.694012 
L 307.419849 31.69413 
L 307.311125 31.559095 
L 307.197675 31.45141 
L 307.197675 31.451525 
L 307.088951 31.348265 
L 307.013317 31.239339 
L 307.013317 31.23945 
L 306.909321 31.117283 
L 306.904594 31.117392 
L 306.776962 31.018555 
L 306.776962 31.009415 
L 306.668239 30.900822 
L 306.564242 30.796476 
L 306.564242 30.791945 
L 306.460246 30.70609 
L 306.455519 30.706192 
L 306.25698 30.598885 
L 306.25698 30.598985 
L 306.148257 30.53153 
L 305.982808 30.423141 
L 305.982808 30.423238 
L 305.89772 30.378379 
L 305.874084 30.37886 
L 305.765361 30.269001 
L 305.765361 30.269095 
L 305.666092 30.210361 
L 305.656637 30.210548 
L 305.462826 30.102036 
L 305.462826 30.102127 
L 305.358829 30.052642 
L 305.354102 30.052732 
L 305.127201 29.94447 
L 305.127201 29.944559 
L 305.032659 29.847755 
L 305.018478 29.848017 
L 304.796304 29.739181 
L 304.796304 29.739267 
L 304.68758 29.675328 
L 304.451225 29.566311 
L 304.451225 29.566394 
L 304.347228 29.506852 
L 304.342501 29.506933 
L 304.1156 29.402048 
L 304.1156 29.397398 
L 304.011604 29.337633 
L 304.006876 29.337712 
L 303.831973 29.226822 
L 303.831973 29.226898 
L 303.727977 29.171665 
L 303.72325 29.171741 
L 303.567255 29.064934 
L 303.567255 29.065007 
L 303.463259 28.990561 
L 303.458532 28.990634 
L 303.212722 28.884806 
L 303.212722 28.880113 
L 303.11818 28.829087 
L 303.103999 28.829297 
L 302.754193 28.724538 
L 302.754193 28.719827 
L 302.654923 28.697349 
L 302.645469 28.697484 
L 302.295663 28.587461 
L 302.295663 28.587527 
L 302.191667 28.560204 
L 302.18694 28.56027 
L 301.898586 28.45373 
L 301.898586 28.453793 
L 301.808771 28.39731 
L 301.789862 28.397559 
L 301.477873 28.290843 
L 301.477873 28.290903 
L 301.425875 28.26747 
L 301.36915 28.268192 
L 300.834987 28.158945 
L 300.834987 28.159003 
L 300.726263 28.121639 
L 300.310277 28.015143 
L 300.310277 28.015199 
L 300.201554 27.982509 
L 299.823385 27.875027 
L 299.823385 27.87508 
L 299.714662 27.847101 
L 299.095411 27.741704 
L 299.095411 27.73687 
L 298.986687 27.703833 
L 298.580156 27.595482 
L 298.580156 27.59553 
L 298.518703 27.576556 
L 298.471432 27.577038 
L 297.464558 27.474047 
L 297.464558 27.469167 
L 297.370016 27.440523 
L 297.355835 27.440661 
L 296.646768 27.333778 
L 296.646768 27.333822 
L 296.56168 27.324716 
L 296.538045 27.324936 
L 295.970792 27.21602 
L 295.970792 27.216062 
L 295.87625 27.202 
L 295.862068 27.202125 
L 295.153002 27.093728 
L 295.153002 27.093768 
L 295.105731 27.079204 
L 295.044279 27.079718 
L 293.819957 26.969606 
L 293.819957 26.969644 
L 293.715961 26.945372 
L 293.711234 26.945409 
L 292.283647 26.835442 
L 292.283647 26.835477 
L 292.27892 26.830423 
L 292.174924 26.831235 
L 290.402258 26.722255 
L 290.402258 26.722289 
L 290.302989 26.707693 
L 290.293534 26.707759 
L 289.026669 26.603843 
L 289.026669 26.598743 
L 288.917946 26.584061 
L 287.022375 26.477516 
L 287.022375 26.477545 
L 286.984558 26.467419 
L 286.913652 26.467855 
L 285.57588 26.361416 
L 285.57588 26.361443 
L 285.57588 26.356228 
L 285.467157 26.35685 
L 283.037423 26.249593 
L 283.037423 26.249618 
L 283.037423 26.244343 
L 282.928699 26.24492 
L 278.934292 26.137598 
L 278.934292 26.137621 
L 278.83975 26.121963 
L 278.825569 26.122032 
L 275.908943 26.011168 
L 275.908943 26.011189 
L 275.809674 26.00073 
L 275.800219 26.000772 
L 273.989737 25.893379 
L 273.989737 25.893398 
L 273.989737 25.887898 
L 273.881013 25.88833 
L 268.719011 25.779733 
L 268.719011 25.77975 
L 268.719011 25.774115 
L 268.610287 25.774501 
L 259.359336 25.667557 
L 259.359336 25.667572 
L 259.359336 25.661684 
L 259.250612 25.66203 
L 254.145335 25.551876 
L 254.145335 25.551889 
L 254.145335 25.545848 
L 254.036611 25.546142 
L 244.303495 25.440575 
L 244.303495 25.440586 
L 244.237315 25.421691 
L 244.194771 25.421785 
L 229.512372 25.312817 
L 229.512372 25.312825 
L 229.512372 25.305959 
L 229.403649 25.306151 
L 203.305282 25.199565 
L 203.305282 25.199572 
L 203.305282 25.19155 
L 203.196559 25.191695 
L 177.315639 25.088718 
L 177.315639 25.088722 
L 177.315639 25.079099 
L 177.206915 25.079179 
L 46.516544 24.982831 
L 46.516544 24.982831 
" style="fill:none;stroke:#1f77b4;stroke-linecap:square;stroke-width:1.5;"/>
   </g>
   <g id="line2d_14">
    <path clip-path="url(#p4dc5057981)" d="M 46.516544 158.218125 
L 320.045956 158.218125 
" style="fill:none;stroke:#000080;stroke-dasharray:7.4,3.2;stroke-dashoffset:0;stroke-width:2;"/>
   </g>
   <g id="patch_3">
    <path d="M 43.78125 294.118125 
L 43.78125 22.318125 
" style="fill:none;stroke:#000000;stroke-linecap:square;stroke-linejoin:miter;stroke-width:0.8;"/>
   </g>
   <g id="patch_4">
    <path d="M 322.78125 294.118125 
L 322.78125 22.318125 
" style="fill:none;stroke:#000000;stroke-linecap:square;stroke-linejoin:miter;stroke-width:0.8;"/>
   </g>
   <g id="patch_5">
    <path d="M 43.78125 294.118125 
L 322.78125 294.118125 
" style="fill:none;stroke:#000000;stroke-linecap:square;stroke-linejoin:miter;stroke-width:0.8;"/>
   </g>
   <g id="patch_6">
    <path d="M 43.78125 22.318125 
L 322.78125 22.318125 
" style="fill:none;stroke:#000000;stroke-linecap:square;stroke-linejoin:miter;stroke-width:0.8;"/>
   </g>
   <g id="text_15">
    <!-- 2-class Precision-Recall Curve -->
    <defs>
     <path d="M 4.890625 31.390625 
L 31.203125 31.390625 
L 31.203125 23.390625 
L 4.890625 23.390625 
z
" id="DejaVuSans-45"/>
     <path d="M 64.40625 67.28125 
L 64.40625 56.890625 
Q 59.421875 61.53125 53.78125 63.8125 
Q 48.140625 66.109375 41.796875 66.109375 
Q 29.296875 66.109375 22.65625 58.46875 
Q 16.015625 50.828125 16.015625 36.375 
Q 16.015625 21.96875 22.65625 14.328125 
Q 29.296875 6.6875 41.796875 6.6875 
Q 48.140625 6.6875 53.78125 8.984375 
Q 59.421875 11.28125 64.40625 15.921875 
L 64.40625 5.609375 
Q 59.234375 2.09375 53.4375 0.328125 
Q 47.65625 -1.421875 41.21875 -1.421875 
Q 24.65625 -1.421875 15.125 8.703125 
Q 5.609375 18.84375 5.609375 36.375 
Q 5.609375 53.953125 15.125 64.078125 
Q 24.65625 74.21875 41.21875 74.21875 
Q 47.75 74.21875 53.53125 72.484375 
Q 59.328125 70.75 64.40625 67.28125 
z
" id="DejaVuSans-67"/>
     <path d="M 8.5 21.578125 
L 8.5 54.6875 
L 17.484375 54.6875 
L 17.484375 21.921875 
Q 17.484375 14.15625 20.5 10.265625 
Q 23.53125 6.390625 29.59375 6.390625 
Q 36.859375 6.390625 41.078125 11.03125 
Q 45.3125 15.671875 45.3125 23.6875 
L 45.3125 54.6875 
L 54.296875 54.6875 
L 54.296875 0 
L 45.3125 0 
L 45.3125 8.40625 
Q 42.046875 3.421875 37.71875 1 
Q 33.40625 -1.421875 27.6875 -1.421875 
Q 18.265625 -1.421875 13.375 4.4375 
Q 8.5 10.296875 8.5 21.578125 
z
M 31.109375 56 
z
" id="DejaVuSans-117"/>
    </defs>
    <g transform="translate(94.055625 16.318125)scale(0.12 -0.12)">
     <use xlink:href="#DejaVuSans-50"/>
     <use x="63.623047" xlink:href="#DejaVuSans-45"/>
     <use x="99.707031" xlink:href="#DejaVuSans-99"/>
     <use x="154.6875" xlink:href="#DejaVuSans-108"/>
     <use x="182.470703" xlink:href="#DejaVuSans-97"/>
     <use x="243.75" xlink:href="#DejaVuSans-115"/>
     <use x="295.849609" xlink:href="#DejaVuSans-115"/>
     <use x="347.949219" xlink:href="#DejaVuSans-32"/>
     <use x="379.736328" xlink:href="#DejaVuSans-80"/>
     <use x="438.289062" xlink:href="#DejaVuSans-114"/>
     <use x="477.152344" xlink:href="#DejaVuSans-101"/>
     <use x="538.675781" xlink:href="#DejaVuSans-99"/>
     <use x="593.65625" xlink:href="#DejaVuSans-105"/>
     <use x="621.439453" xlink:href="#DejaVuSans-115"/>
     <use x="673.539062" xlink:href="#DejaVuSans-105"/>
     <use x="701.322266" xlink:href="#DejaVuSans-111"/>
     <use x="762.503906" xlink:href="#DejaVuSans-110"/>
     <use x="825.882812" xlink:href="#DejaVuSans-45"/>
     <use x="861.966797" xlink:href="#DejaVuSans-82"/>
     <use x="926.949219" xlink:href="#DejaVuSans-101"/>
     <use x="988.472656" xlink:href="#DejaVuSans-99"/>
     <use x="1043.453125" xlink:href="#DejaVuSans-97"/>
     <use x="1104.732422" xlink:href="#DejaVuSans-108"/>
     <use x="1132.515625" xlink:href="#DejaVuSans-108"/>
     <use x="1160.298828" xlink:href="#DejaVuSans-32"/>
     <use x="1192.085938" xlink:href="#DejaVuSans-67"/>
     <use x="1261.910156" xlink:href="#DejaVuSans-117"/>
     <use x="1325.289062" xlink:href="#DejaVuSans-114"/>
     <use x="1366.402344" xlink:href="#DejaVuSans-118"/>
     <use x="1425.582031" xlink:href="#DejaVuSans-101"/>
    </g>
   </g>
   <g id="legend_1">
    <g id="patch_7">
     <path d="M 50.78125 289.118125 
L 272.817188 289.118125 
Q 274.817188 289.118125 274.817188 287.118125 
L 274.817188 273.44 
Q 274.817188 271.44 272.817188 271.44 
L 50.78125 271.44 
Q 48.78125 271.44 48.78125 273.44 
L 48.78125 287.118125 
Q 48.78125 289.118125 50.78125 289.118125 
z
" style="fill:#ffffff;opacity:0.8;stroke:#cccccc;stroke-linejoin:miter;"/>
    </g>
    <g id="line2d_15">
     <path d="M 52.78125 279.538437 
L 72.78125 279.538437 
" style="fill:none;stroke:#1f77b4;stroke-linecap:square;stroke-width:1.5;"/>
    </g>
    <g id="line2d_16"/>
    <g id="text_16">
     <!-- Description Text Classifier (AP = 0.99) -->
     <defs>
      <path d="M 19.671875 64.796875 
L 19.671875 8.109375 
L 31.59375 8.109375 
Q 46.6875 8.109375 53.6875 14.9375 
Q 60.6875 21.78125 60.6875 36.53125 
Q 60.6875 51.171875 53.6875 57.984375 
Q 46.6875 64.796875 31.59375 64.796875 
z
M 9.8125 72.90625 
L 30.078125 72.90625 
Q 51.265625 72.90625 61.171875 64.09375 
Q 71.09375 55.28125 71.09375 36.53125 
Q 71.09375 17.671875 61.125 8.828125 
Q 51.171875 0 30.078125 0 
L 9.8125 0 
z
" id="DejaVuSans-68"/>
      <path d="M 18.109375 8.203125 
L 18.109375 -20.796875 
L 9.078125 -20.796875 
L 9.078125 54.6875 
L 18.109375 54.6875 
L 18.109375 46.390625 
Q 20.953125 51.265625 25.265625 53.625 
Q 29.59375 56 35.59375 56 
Q 45.5625 56 51.78125 48.09375 
Q 58.015625 40.1875 58.015625 27.296875 
Q 58.015625 14.40625 51.78125 6.484375 
Q 45.5625 -1.421875 35.59375 -1.421875 
Q 29.59375 -1.421875 25.265625 0.953125 
Q 20.953125 3.328125 18.109375 8.203125 
z
M 48.6875 27.296875 
Q 48.6875 37.203125 44.609375 42.84375 
Q 40.53125 48.484375 33.40625 48.484375 
Q 26.265625 48.484375 22.1875 42.84375 
Q 18.109375 37.203125 18.109375 27.296875 
Q 18.109375 17.390625 22.1875 11.75 
Q 26.265625 6.109375 33.40625 6.109375 
Q 40.53125 6.109375 44.609375 11.75 
Q 48.6875 17.390625 48.6875 27.296875 
z
" id="DejaVuSans-112"/>
      <path d="M -0.296875 72.90625 
L 61.375 72.90625 
L 61.375 64.59375 
L 35.5 64.59375 
L 35.5 0 
L 25.59375 0 
L 25.59375 64.59375 
L -0.296875 64.59375 
z
" id="DejaVuSans-84"/>
      <path d="M 54.890625 54.6875 
L 35.109375 28.078125 
L 55.90625 0 
L 45.3125 0 
L 29.390625 21.484375 
L 13.484375 0 
L 2.875 0 
L 24.125 28.609375 
L 4.6875 54.6875 
L 15.28125 54.6875 
L 29.78125 35.203125 
L 44.28125 54.6875 
z
" id="DejaVuSans-120"/>
      <path d="M 37.109375 75.984375 
L 37.109375 68.5 
L 28.515625 68.5 
Q 23.6875 68.5 21.796875 66.546875 
Q 19.921875 64.59375 19.921875 59.515625 
L 19.921875 54.6875 
L 34.71875 54.6875 
L 34.71875 47.703125 
L 19.921875 47.703125 
L 19.921875 0 
L 10.890625 0 
L 10.890625 47.703125 
L 2.296875 47.703125 
L 2.296875 54.6875 
L 10.890625 54.6875 
L 10.890625 58.5 
Q 10.890625 67.625 15.140625 71.796875 
Q 19.390625 75.984375 28.609375 75.984375 
z
" id="DejaVuSans-102"/>
      <path d="M 34.1875 63.1875 
L 20.796875 26.90625 
L 47.609375 26.90625 
z
M 28.609375 72.90625 
L 39.796875 72.90625 
L 67.578125 0 
L 57.328125 0 
L 50.6875 18.703125 
L 17.828125 18.703125 
L 11.1875 0 
L 0.78125 0 
z
" id="DejaVuSans-65"/>
      <path d="M 10.59375 45.40625 
L 73.1875 45.40625 
L 73.1875 37.203125 
L 10.59375 37.203125 
z
M 10.59375 25.484375 
L 73.1875 25.484375 
L 73.1875 17.1875 
L 10.59375 17.1875 
z
" id="DejaVuSans-61"/>
      <path d="M 10.984375 1.515625 
L 10.984375 10.5 
Q 14.703125 8.734375 18.5 7.8125 
Q 22.3125 6.890625 25.984375 6.890625 
Q 35.75 6.890625 40.890625 13.453125 
Q 46.046875 20.015625 46.78125 33.40625 
Q 43.953125 29.203125 39.59375 26.953125 
Q 35.25 24.703125 29.984375 24.703125 
Q 19.046875 24.703125 12.671875 31.3125 
Q 6.296875 37.9375 6.296875 49.421875 
Q 6.296875 60.640625 12.9375 67.421875 
Q 19.578125 74.21875 30.609375 74.21875 
Q 43.265625 74.21875 49.921875 64.515625 
Q 56.59375 54.828125 56.59375 36.375 
Q 56.59375 19.140625 48.40625 8.859375 
Q 40.234375 -1.421875 26.421875 -1.421875 
Q 22.703125 -1.421875 18.890625 -0.6875 
Q 15.09375 0.046875 10.984375 1.515625 
z
M 30.609375 32.421875 
Q 37.25 32.421875 41.125 36.953125 
Q 45.015625 41.5 45.015625 49.421875 
Q 45.015625 57.28125 41.125 61.84375 
Q 37.25 66.40625 30.609375 66.40625 
Q 23.96875 66.40625 20.09375 61.84375 
Q 16.21875 57.28125 16.21875 49.421875 
Q 16.21875 41.5 20.09375 36.953125 
Q 23.96875 32.421875 30.609375 32.421875 
z
" id="DejaVuSans-57"/>
     </defs>
     <g transform="translate(80.78125 283.038437)scale(0.1 -0.1)">
      <use xlink:href="#DejaVuSans-68"/>
      <use x="77.001953" xlink:href="#DejaVuSans-101"/>
      <use x="138.525391" xlink:href="#DejaVuSans-115"/>
      <use x="190.625" xlink:href="#DejaVuSans-99"/>
      <use x="245.605469" xlink:href="#DejaVuSans-114"/>
      <use x="286.71875" xlink:href="#DejaVuSans-105"/>
      <use x="314.501953" xlink:href="#DejaVuSans-112"/>
      <use x="377.978516" xlink:href="#DejaVuSans-116"/>
      <use x="417.1875" xlink:href="#DejaVuSans-105"/>
      <use x="444.970703" xlink:href="#DejaVuSans-111"/>
      <use x="506.152344" xlink:href="#DejaVuSans-110"/>
      <use x="569.53125" xlink:href="#DejaVuSans-32"/>
      <use x="601.318359" xlink:href="#DejaVuSans-84"/>
      <use x="645.402344" xlink:href="#DejaVuSans-101"/>
      <use x="705.175781" xlink:href="#DejaVuSans-120"/>
      <use x="764.355469" xlink:href="#DejaVuSans-116"/>
      <use x="803.564453" xlink:href="#DejaVuSans-32"/>
      <use x="835.351562" xlink:href="#DejaVuSans-67"/>
      <use x="905.175781" xlink:href="#DejaVuSans-108"/>
      <use x="932.958984" xlink:href="#DejaVuSans-97"/>
      <use x="994.238281" xlink:href="#DejaVuSans-115"/>
      <use x="1046.337891" xlink:href="#DejaVuSans-115"/>
      <use x="1098.4375" xlink:href="#DejaVuSans-105"/>
      <use x="1126.220703" xlink:href="#DejaVuSans-102"/>
      <use x="1161.425781" xlink:href="#DejaVuSans-105"/>
      <use x="1189.208984" xlink:href="#DejaVuSans-101"/>
      <use x="1250.732422" xlink:href="#DejaVuSans-114"/>
      <use x="1291.845703" xlink:href="#DejaVuSans-32"/>
      <use x="1323.632812" xlink:href="#DejaVuSans-40"/>
      <use x="1362.646484" xlink:href="#DejaVuSans-65"/>
      <use x="1431.054688" xlink:href="#DejaVuSans-80"/>
      <use x="1491.357422" xlink:href="#DejaVuSans-32"/>
      <use x="1523.144531" xlink:href="#DejaVuSans-61"/>
      <use x="1606.933594" xlink:href="#DejaVuSans-32"/>
      <use x="1638.720703" xlink:href="#DejaVuSans-48"/>
      <use x="1702.34375" xlink:href="#DejaVuSans-46"/>
      <use x="1734.130859" xlink:href="#DejaVuSans-57"/>
      <use x="1797.753906" xlink:href="#DejaVuSans-57"/>
      <use x="1861.376953" xlink:href="#DejaVuSans-41"/>
     </g>
    </g>
   </g>
  </g>
 </g>
 <defs>
  <clipPath id="p4dc5057981">
   <rect height="271.8" width="279" x="43.78125" y="22.318125"/>
  </clipPath>
 </defs>
</svg>
